ply
format ascii 1.0
element vertex 8
property float x
property float y
property float z
property float nx
property float ny
property float nz
element face 12
property list uchar uint vertex_indices
end_header
1.000000 1.000000 -1.000000 -0.57735029100962 -0.57735033044847 0.57735018611077
-1.000000 1.000000 -1.000000 0.57735026918963 -0.57735026918963 0.57735026918963
-1.000000 -1.000000 -1.000000 0.57735041352697 0.57734998051467 0.57735041352713
0.999999 -1.000001 1.000000 -0.57735003730086 0.57735054919095 -0.57735022107695
-1.000000 -1.000000 1.000000 0.57735078528103 0.57734991925564 -0.57735010303185
-1.000000 1.000000 1.000000 0.57735028233568 -0.57735042667341 -0.57735009855974
1.000000 -1.000000 -1.000000 -0.57735035674092 0.57735013352593 0.57735031730201
1.000000 0.999999 1.000000 -0.57735048793203 -0.57734987114319 -0.57735044849346
3 0 1 2
3 3 4 5
3 6 3 7
3 2 4 3
3 2 1 5
3 5 1 0
3 6 0 2
3 7 3 5
3 0 6 7
3 6 2 3
3 4 2 5
3 7 5 0
