ply
format ascii 1.0
comment Created by Blender 2.76 (sub 0) - www.blender.org, source file: ''
element vertex 8
property float x
property float y
property float z
element face 6
property list uchar uint vertex_indices
end_header
1.000000 1.000000 -1.000000
-1.000000 1.000000 -1.000000
-1.000000 -1.000000 -1.000000
1.000000 -1.000000 -1.000000
1.000000 0.999999 1.000000
0.999999 -1.000001 1.000000
-1.000000 -1.000000 1.000000
-1.000000 1.000000 1.000000
4 0 1 2 3
4 4 5 6 7
4 0 3 5 4
4 3 2 6 5
4 2 1 7 6
4 1 0 4 7
