ply
format ascii 1.0
comment Created by Blender 2.74 (sub 0) - www.blender.org, source file: 'Main_Ship.blend'
element vertex 286
property float x
property float y
property float z
property float nx
property float ny
property float nz
property uchar red
property uchar green
property uchar blue
element face 234
property list uchar uint vertex_indices
end_header
1.000000 0.469779 2.692342 0.422529 0.858211 0.291360 50 50 59
0.000000 0.720910 3.456911 0.000000 0.982879 0.184210 48 48 58
0.000000 0.469779 4.692342 0.000000 0.897061 0.441877 57 57 66
0.000000 0.720910 3.456911 0.000000 0.982879 0.184210 46 46 56
1.000000 0.469779 2.692342 0.422529 0.858211 0.291360 51 51 61
0.000000 0.954368 1.934168 0.000000 0.996185 0.086978 48 48 56
1.925834 0.339447 1.934168 0.250618 0.932310 0.260659 58 58 65
1.000000 0.469779 2.692342 0.422529 0.858211 0.291360 68 68 76
1.000000 0.246989 3.075839 0.642933 0.662252 0.384716 74 74 82
1.925834 0.116658 2.317665 0.327097 0.817103 0.474685 62 62 69
0.000000 0.469779 4.692342 0.000000 0.897061 0.441877 71 71 79
0.000000 0.246989 5.075839 0.000000 0.864650 0.502304 79 79 87
3.420007 -0.222788 1.263636 0.426283 -0.904508 0.009766 96 96 107
3.759831 0.030507 1.263636 0.597583 -0.801752 0.006592 111 111 123
3.487954 0.030507 1.908497 0.474929 -0.814600 0.332896 112 112 124
1.925834 0.339447 1.934168 0.250618 0.932310 0.260659 71 71 78
3.060515 0.000001 2.237492 0.195410 0.847987 0.492630 83 83 92
1.000000 -0.469779 2.692342 0.349132 -0.907620 0.232978 65 65 74
0.000000 -0.469779 4.692342 0.000000 -0.906552 0.422071 74 74 82
0.000000 -0.653554 2.692342 0.000000 -0.996857 0.079073 60 60 67
0.000000 -0.704363 1.934168 0.000000 -0.999481 0.031800 49 49 56
1.925834 -0.339447 1.934168 0.205359 -0.950133 0.234565 65 65 73
1.925834 -0.116658 2.317665 0.327097 -0.817103 0.474685 63 63 69
1.000000 -0.246989 3.075839 0.642933 -0.662252 0.384716 75 75 83
1.000000 -0.469779 2.692342 0.349132 -0.907620 0.232978 70 70 78
0.000000 -0.246989 5.075839 0.000000 -0.864650 0.502304 79 79 88
1.000000 0.246989 3.075839 -0.034791 -0.999390 0.000000 74 74 82
0.000000 0.246989 5.075839 0.000000 -0.999969 0.000000 79 79 87
0.000000 0.246989 3.075839 0.000000 -1.000000 0.000000 75 75 83
1.925834 -0.339447 1.934168 0.205359 -0.950133 0.234565 72 72 80
3.060515 -0.222788 1.853995 0.245674 -0.921415 0.300943 98 98 108
3.060515 0.000001 2.237492 0.239967 -0.839381 0.487625 83 83 92
1.000000 -0.246989 2.317665 -0.071780 0.996124 0.050600 42 42 47
1.000000 -0.246989 3.075839 -0.034791 0.999390 0.000000 75 75 83
1.925834 -0.116658 2.317665 -0.133396 0.989227 0.059786 63 63 69
0.000000 -0.246989 2.317665 0.000000 0.998047 0.061983 36 36 40
0.000000 -0.246989 3.075839 0.000000 1.000000 0.000000 75 75 83
1.000000 0.246989 2.317665 -0.071780 -0.996124 0.050600 42 42 47
1.925834 0.116658 2.317665 -0.133396 -0.989227 0.059786 62 62 69
0.000000 0.246989 2.317665 0.000000 -0.998047 0.061983 36 36 40
0.773456 0.168971 1.692166 -0.940214 0.000000 0.340526 195 211 249
0.773456 -0.168971 1.692166 -0.940214 0.000000 0.340526 194 210 248
1.000000 -0.246989 2.317665 -0.940214 0.000000 0.340526 42 42 47
0.000000 0.246989 2.317665 0.000000 -0.998047 0.061983 77 77 77
0.000000 0.168971 1.692166 0.000000 -0.992309 0.123753 198 214 252
0.773456 0.168971 1.692166 0.000000 -0.992309 0.123753 195 211 249
1.820963 0.079808 1.692166 0.000000 0.000000 1.000000 221 237 254
1.104871 0.168971 1.692166 0.000000 0.000000 0.999969 221 237 255
1.104871 -0.168971 1.692166 0.000000 0.000000 1.000000 221 237 254
1.820963 0.079808 1.692166 -0.986206 0.000000 0.165349 195 211 249
1.820963 -0.079808 1.692166 -0.986206 0.000000 0.165349 193 208 246
1.925834 -0.116658 2.317665 -0.986206 0.000000 0.165349 63 63 69
1.104871 0.168971 1.692166 -0.132908 -0.986847 0.091922 196 212 250
1.820963 0.079808 1.692166 -0.123173 -0.989227 0.078921 195 211 249
1.104871 -0.168971 1.692166 0.986206 0.000000 0.165349 198 214 252
1.104871 0.168971 1.692166 0.986206 0.000000 0.165349 196 212 250
1.000000 0.246989 2.317665 0.986206 0.000000 0.165349 42 42 47
1.820963 -0.079808 1.692166 -0.123173 0.989227 0.078921 193 208 246
1.104871 -0.168971 1.692166 -0.132908 0.986847 0.091922 198 214 252
2.011519 0.079809 1.683724 0.062349 0.000000 0.998047 221 237 254
2.011519 -0.079808 1.683724 0.062349 0.000000 0.998047 221 237 254
2.889145 0.000001 1.628876 0.062349 0.000000 0.998047 221 237 254
2.011519 -0.079808 1.683724 0.990966 0.000000 0.133915 198 214 252
2.011519 0.079809 1.683724 0.990966 0.000000 0.133915 198 214 252
1.925834 0.116658 2.317665 0.990966 0.000000 0.133915 62 62 69
3.060515 0.000001 2.237492 -0.093081 0.995086 0.032899 83 83 92
2.889145 0.000001 1.628876 -0.088961 0.995697 0.025025 198 214 252
2.011519 -0.079808 1.683724 -0.095950 0.994629 0.038423 198 214 252
2.011519 0.079809 1.683724 -0.095950 -0.994629 0.038423 198 214 252
2.889145 0.000001 1.628876 -0.088961 -0.995697 0.025025 198 214 252
3.060515 0.000001 2.237492 -0.093051 -0.995086 0.032899 83 83 92
2.152045 -0.339447 1.343809 0.134892 -0.989105 0.058748 79 79 88
0.000000 -0.704363 1.343809 0.000000 -0.999359 0.035066 48 48 57
3.420007 0.222788 1.263636 0.345775 0.934660 -0.082461 95 95 105
3.759831 0.030507 1.263636 0.490585 0.867061 -0.086520 111 111 123
2.331225 -0.239867 -0.949805 0.573809 0.698111 -0.428175 120 120 133
3.060515 0.222788 1.853995 0.206366 0.933256 0.293893 78 78 89
3.420007 0.222788 1.263636 0.345775 0.934660 -0.082461 75 75 86
2.152045 0.339447 1.343809 0.164922 0.984283 -0.062746 59 59 69
2.152045 0.339447 1.343809 0.164922 0.984283 -0.062746 59 59 67
0.000000 0.954368 1.343809 0.000000 0.996673 -0.081149 53 53 60
1.334342 -0.687154 -0.949805 0.114658 -0.993255 0.015320 78 78 86
2.120523 -0.458825 -0.949805 0.412305 -0.906583 -0.089724 95 95 105
1.370377 0.003742 -0.949805 0.276772 0.932493 -0.232032 56 56 67
2.120523 -0.061693 -0.949805 0.284890 0.915738 -0.283181 87 87 98
2.152045 -0.339447 1.343809 0.134892 -0.989105 0.058748 71 71 82
1.334342 -0.687154 -0.949805 0.114658 -0.993255 0.015320 69 69 77
0.818645 -0.131415 -2.840810 0.563494 0.807184 -0.175787 252 54 1
0.541919 -0.198632 -3.803878 0.541887 0.792047 -0.280984 252 55 5
0.000000 0.217493 -3.676015 0.000000 0.950774 -0.309793 240 67 17
0.000000 -0.411109 -5.100278 0.000000 0.914853 -0.403760 252 55 3
0.942555 -0.071064 -1.940617 0.571734 0.813227 -0.108280 252 54 0
0.000000 0.532974 -2.380799 0.000000 0.986724 -0.162297 240 67 17
0.541919 -0.198632 -3.803878 0.944792 0.000000 -0.327555 254 54 0
0.818645 -0.131415 -2.840810 0.979003 0.000000 -0.203803 254 54 0
0.818645 -0.301193 -2.840810 0.780328 0.575854 -0.243721 148 31 0
0.942555 -0.071064 -1.940617 0.868282 0.495926 -0.009980 255 54 0
1.005596 -0.174912 -1.863964 0.647389 0.758476 -0.074496 148 31 0
0.000000 -0.411109 -5.100278 0.000000 0.000000 -0.999969 255 54 0
0.541919 -0.372500 -3.803878 0.803522 0.491592 -0.335612 148 31 0
0.000000 0.679132 -0.918071 0.000000 0.995819 -0.091311 255 54 0
1.370377 0.003742 -0.949805 0.000000 0.000000 -1.000000 55 55 67
2.120523 -0.061693 -0.949805 0.000000 0.000000 -1.000000 76 76 88
2.120523 -0.458825 -0.949805 0.000000 0.000000 -1.000000 66 66 78
0.541919 -0.629609 -3.803878 0.337077 -0.939879 -0.054720 81 81 89
0.000000 -0.817687 -5.100278 0.000000 -0.830866 -0.556444 75 75 83
0.000000 -0.670952 -5.219727 0.000000 -0.730705 -0.682669 81 81 89
0.000000 -0.641626 -1.775165 0.000000 -0.998291 -0.058412 46 46 56
0.000000 -0.579271 -2.840810 0.000000 -0.999969 -0.003113 44 44 56
0.818645 -0.579271 -2.840810 0.273415 -0.959227 -0.071230 60 60 71
0.818645 -0.579271 -2.840810 0.273415 -0.959227 -0.071230 77 77 85
0.740227 -0.480092 -3.803878 0.583117 -0.797052 -0.156987 80 80 89
0.000000 -0.687154 -0.997086 0.000000 -0.999451 -0.032899 50 50 59
0.948205 -0.641626 -1.775165 0.101260 -0.990844 -0.089053 60 60 71
3.060515 0.222788 1.853995 0.206366 0.933256 0.293893 97 97 107
3.487954 0.030507 1.908497 0.379620 0.872189 0.308420 112 112 124
2.331225 -0.239867 -0.949805 0.673116 -0.663778 -0.325968 120 120 133
0.818645 -0.301193 -2.840810 0.780328 0.575854 -0.243721 62 62 69
1.118216 -0.408784 -2.840810 0.327067 0.925718 -0.189795 80 80 89
0.740227 -0.480092 -3.803878 0.463790 0.852260 -0.241951 80 80 89
0.000000 -0.524216 -5.100278 0.000000 0.505356 -0.862880 58 58 64
0.541919 -0.372500 -3.803878 0.803522 0.491592 -0.335612 60 60 67
0.000000 0.822684 -0.162352 0.000000 0.986572 -0.163274 52 52 59
2.331225 -0.239867 -0.949805 0.000000 0.000000 -0.999969 92 92 105
1.005596 -0.174912 -1.863964 0.351909 0.882199 -0.312815 49 49 57
0.000000 0.728805 -0.446743 0.000000 0.948119 -0.317820 44 44 56
1.726032 -0.408784 -1.839711 0.026551 0.183691 0.982604 58 58 69
1.005596 -0.174912 -1.863964 0.026551 0.183691 0.982604 48 48 58
0.948205 -0.641626 -1.775165 0.026551 0.183691 0.982604 59 59 68
1.005596 -0.174912 -1.863964 0.647389 0.758476 -0.074496 66 66 73
1.118216 -0.408784 -2.840810 0.444075 -0.886502 -0.129765 80 80 89
1.726032 -0.408784 -1.839711 0.270333 -0.948637 -0.164129 83 83 93
0.948205 -0.641626 -1.775165 0.101260 -0.990844 -0.089053 75 75 84
0.000000 -0.629609 -3.803878 0.000000 -0.995178 0.097964 51 51 59
0.541919 -0.629609 -3.803878 0.337077 -0.939879 -0.054720 60 60 69
0.000000 -0.817687 -5.100278 0.000000 -0.830866 -0.556444 59 59 70
0.773456 -0.168971 1.692166 0.000000 0.992309 0.123753 194 210 248
0.000000 -0.168971 1.692166 0.000000 0.992309 0.123753 197 213 251
0.773456 0.168971 1.692166 0.000000 0.000000 1.000000 221 237 254
0.000000 0.168971 1.692166 0.000000 0.000000 1.000000 221 237 254
0.000000 -0.168971 1.692166 0.000000 0.000000 1.000000 221 237 254
0.000000 -0.246989 5.075839 0.000000 0.999969 0.000000 79 79 88
1.334342 -0.687154 -0.949805 0.920255 -0.089267 -0.380963 78 78 86
0.948205 -0.641626 -1.775165 0.885250 -0.189642 -0.424604 75 75 84
1.005596 -0.174912 -1.863964 0.906796 -0.132267 -0.400220 66 66 73
-1.000000 0.469779 2.692342 -0.422529 0.858211 0.291360 50 50 59
-1.000000 0.469779 2.692342 -0.422529 0.858211 0.291360 51 51 61
-1.925834 0.339447 1.934168 -0.250618 0.932310 0.260659 58 58 65
-1.925834 0.116658 2.317665 -0.327097 0.817103 0.474685 62 62 69
-1.000000 0.246989 3.075839 -0.642933 0.662252 0.384716 74 74 82
-1.000000 0.469779 2.692342 -0.422529 0.858211 0.291360 68 68 76
-3.487954 0.030507 1.908497 -0.474929 -0.814600 0.332896 112 112 124
-3.759831 0.030507 1.263636 -0.597583 -0.801752 0.006592 111 111 123
-3.420007 -0.222788 1.263636 -0.426283 -0.904508 0.009766 96 96 107
-1.925834 0.339447 1.934168 -0.250618 0.932310 0.260659 71 71 78
-3.060515 0.222788 1.853995 -0.206366 0.933287 0.293893 97 97 107
-3.060515 0.000001 2.237492 -0.195410 0.847987 0.492630 83 83 92
-1.000000 -0.469779 2.692342 -0.349132 -0.907620 0.232978 65 65 74
-1.925834 -0.339447 1.934168 -0.205359 -0.950133 0.234565 65 65 73
-1.000000 -0.469779 2.692342 -0.349132 -0.907620 0.232978 70 70 78
-1.000000 -0.246989 3.075839 -0.642933 -0.662252 0.384716 75 75 83
-1.925834 -0.116658 2.317665 -0.327097 -0.817103 0.474685 63 63 69
-1.000000 0.246989 3.075839 0.034791 -0.999390 0.000000 74 74 82
-1.925834 -0.339447 1.934168 -0.205359 -0.950133 0.234565 72 72 80
-3.060515 0.000001 2.237492 -0.239967 -0.839381 0.487625 83 83 92
-1.000000 -0.246989 2.317665 0.071780 0.996124 0.050600 42 42 47
-1.925834 -0.116658 2.317665 0.133396 0.989227 0.059786 63 63 69
-1.000000 -0.246989 3.075839 0.034791 0.999390 0.000000 75 75 83
-1.925834 0.116658 2.317665 0.133396 -0.989227 0.059786 62 62 69
-1.000000 0.246989 2.317665 0.071780 -0.996124 0.050600 42 42 47
-1.000000 -0.246989 2.317665 0.940214 0.000000 0.340526 42 42 47
-0.773456 -0.168971 1.692166 0.940214 0.000000 0.340526 194 210 248
-0.773456 0.168971 1.692166 0.940214 0.000000 0.340526 195 211 249
-1.000000 0.246989 2.317665 0.071780 -0.996124 0.050600 90 90 90
-0.773456 0.168971 1.692166 0.000000 -0.992309 0.123753 195 211 249
-1.104871 -0.168971 1.692166 0.000000 0.000000 1.000000 221 237 254
-1.104871 0.168971 1.692166 0.000000 0.000000 0.999969 221 237 255
-1.820963 0.079808 1.692166 0.000000 0.000000 1.000000 221 237 254
-1.925834 -0.116658 2.317665 0.986206 0.000000 0.165349 63 63 69
-1.820963 -0.079808 1.692166 0.986206 0.000000 0.165349 193 208 246
-1.820963 0.079808 1.692166 0.986206 0.000000 0.165349 195 211 249
-1.820963 0.079808 1.692166 0.123173 -0.989227 0.078921 195 211 249
-1.104871 0.168971 1.692166 0.132908 -0.986847 0.091922 196 212 250
-1.000000 0.246989 2.317665 -0.986206 0.000000 0.165349 42 42 47
-1.104871 0.168971 1.692166 -0.986206 0.000000 0.165349 196 212 250
-1.104871 -0.168971 1.692166 -0.986206 0.000000 0.165349 198 214 252
-1.104871 -0.168971 1.692166 0.132908 0.986847 0.091922 198 214 252
-2.011519 0.079809 1.683724 -0.062349 0.000000 0.998047 221 237 254
-2.889145 0.000001 1.628876 -0.062349 0.000000 0.998047 221 237 254
-2.011519 -0.079808 1.683724 -0.062349 0.000000 0.998047 221 237 254
-1.925834 0.116658 2.317665 -0.990966 0.000000 0.133915 62 62 69
-2.011519 0.079809 1.683724 -0.990966 0.000000 0.133915 198 214 252
-2.011519 -0.079808 1.683724 -0.990966 0.000000 0.133915 198 214 252
-3.060515 0.000001 2.237492 0.093081 0.995086 0.032899 83 83 92
-1.925834 -0.116658 2.317665 0.099063 0.994079 0.044374 63 63 69
-2.011519 -0.079808 1.683724 0.095950 0.994629 0.038423 198 214 252
-3.060515 0.000001 2.237492 0.093051 -0.995086 0.032899 83 83 92
-2.889145 0.000001 1.628876 0.088961 -0.995697 0.025025 198 214 252
-2.011519 0.079809 1.683724 0.095950 -0.994629 0.038423 198 214 252
-3.060515 -0.222788 1.853995 -0.245674 -0.921415 0.300943 98 98 108
-2.152045 -0.339447 1.343809 -0.134892 -0.989105 0.058748 79 79 88
-2.152045 -0.339447 1.343809 -0.134892 -0.989105 0.058748 71 71 82
-2.331225 -0.239867 -0.949805 -0.573809 0.698111 -0.428175 120 120 133
-3.759831 0.030507 1.263636 -0.490585 0.867061 -0.086520 111 111 123
-3.420007 0.222788 1.263636 -0.345775 0.934660 -0.082461 95 95 105
-2.152045 0.339447 1.343809 -0.164922 0.984283 -0.062746 59 59 69
-3.420007 0.222788 1.263636 -0.345775 0.934660 -0.082461 75 75 86
-3.060515 0.222788 1.853995 -0.206366 0.933287 0.293893 78 78 89
-2.152045 0.339447 1.343809 -0.164922 0.984283 -0.062746 59 59 67
-2.120523 -0.458825 -0.949805 -0.412305 -0.906583 -0.089724 95 95 105
-1.334342 -0.687154 -0.949805 -0.114658 -0.993255 0.015320 78 78 86
-1.370377 0.003742 -0.949805 -0.276772 0.932493 -0.232032 56 56 67
-1.370377 0.003742 -0.949805 -0.276772 0.932493 -0.232032 65 65 73
-2.120523 -0.061693 -0.949805 -0.284890 0.915738 -0.283181 87 87 98
-1.334342 -0.687154 -0.949805 -0.114658 -0.993255 0.015320 69 69 77
-0.541919 -0.198632 -3.803878 -0.541887 0.792047 -0.280984 252 55 5
-0.818645 -0.131415 -2.840810 -0.563494 0.807184 -0.175787 252 54 1
-0.942555 -0.071064 -1.940617 -0.571734 0.813227 -0.108280 252 54 0
-0.541919 -0.198632 -3.803878 -0.944792 0.000000 -0.327555 254 54 0
-0.541919 -0.372500 -3.803878 -0.803522 0.491592 -0.335612 148 31 0
-0.818645 -0.301193 -2.840810 -0.780328 0.575854 -0.243721 148 31 0
-1.005596 -0.174912 -1.863964 -0.647389 0.758476 -0.074496 148 31 0
-0.942555 -0.071064 -1.940617 -0.868282 0.495926 -0.009980 255 54 0
0.000000 -0.524216 -5.100278 0.000000 0.505356 -0.862880 148 31 0
-2.120523 -0.458825 -0.949805 0.000000 0.000000 -1.000000 66 66 78
-2.120523 -0.061693 -0.949805 0.000000 0.000000 -1.000000 76 76 88
-1.370377 0.003742 -0.949805 0.000000 0.000000 -1.000000 55 55 67
-0.541919 -0.629609 -3.803878 -0.337077 -0.939879 -0.054720 81 81 89
-0.740227 -0.480092 -3.803878 -0.583117 -0.797052 -0.156987 80 80 89
-0.948205 -0.641626 -1.775165 -0.101260 -0.990844 -0.089053 60 60 71
-0.818645 -0.579271 -2.840810 -0.273415 -0.959227 -0.071230 60 60 71
-0.818645 -0.579271 -2.840810 -0.273415 -0.959227 -0.071230 77 77 85
-1.118216 -0.408784 -2.840810 -0.444075 -0.886502 -0.129765 80 80 89
-3.487954 0.030507 1.908497 -0.379620 0.872189 0.308420 112 112 124
-2.331225 -0.239867 -0.949805 -0.673116 -0.663778 -0.325968 120 120 133
-0.740227 -0.480092 -3.803878 -0.463790 0.852260 -0.241951 80 80 89
-1.118216 -0.408784 -2.840810 -0.327067 0.925718 -0.189795 80 80 89
-0.818645 -0.301193 -2.840810 -0.780328 0.575854 -0.243721 62 62 69
0.000000 -0.670952 -5.219727 0.000000 0.631306 -0.775506 81 81 89
-2.331225 -0.239867 -0.949805 0.000000 0.000000 -0.999969 92 92 105
-1.726032 -0.408784 -1.839711 -0.026551 0.183691 0.982604 58 58 69
-0.948205 -0.641626 -1.775165 -0.026551 0.183691 0.982604 59 59 68
-1.005596 -0.174912 -1.863964 -0.026551 0.183691 0.982604 48 48 58
-1.726032 -0.408784 -1.839711 -0.308969 0.932371 -0.187597 83 83 93
-1.005596 -0.174912 -1.863964 -0.647389 0.758476 -0.074496 66 66 73
-0.948205 -0.641626 -1.775165 -0.101260 -0.990844 -0.089053 75 75 84
-0.541919 -0.629609 -3.803878 -0.337077 -0.939879 -0.054720 60 60 69
-0.773456 -0.168971 1.692166 0.000000 0.992309 0.123753 194 210 248
-0.773456 0.168971 1.692166 0.000000 0.000000 1.000000 221 237 254
-1.005596 -0.174912 -1.863964 -0.906796 -0.132267 -0.400220 66 66 73
-0.948205 -0.641626 -1.775165 -0.885250 -0.189642 -0.424604 75 75 84
-1.334342 -0.687154 -0.949805 -0.920255 -0.089267 -0.380963 78 78 86
1.000000 0.246989 2.317665 -0.940214 0.000000 0.340526 42 42 47
1.000000 0.246989 2.317665 -0.071780 -0.996124 0.050600 90 90 90
1.820963 -0.079808 1.692166 0.000000 0.000000 0.999969 221 237 254
1.925834 0.116658 2.317665 -0.986206 0.000000 0.165349 62 62 69
1.000000 -0.246989 2.317665 0.986206 0.000000 0.165349 42 42 47
1.925834 -0.116658 2.317665 0.990966 0.000000 0.133915 63 63 69
1.925834 -0.116658 2.317665 -0.099063 0.994079 0.044374 63 63 69
1.925834 0.116658 2.317665 -0.099063 -0.994079 0.044374 62 62 69
2.120523 -0.061693 -0.949805 0.284890 0.915738 -0.283181 100 100 111
1.925834 0.339447 1.934168 0.250618 0.932310 0.260659 61 61 69
1.370377 0.003742 -0.949805 0.276772 0.932493 -0.232032 65 65 73
0.000000 0.679132 -0.918071 0.000000 0.995025 -0.099399 252 54 4
0.000000 0.728805 -0.446743 0.000000 0.994476 -0.104801 148 31 0
1.334342 -0.687154 -0.949805 0.000000 0.000000 -1.000000 57 57 67
1.726032 -0.408784 -1.839711 0.308969 0.932371 -0.187597 83 83 93
0.773456 -0.168971 1.692166 0.000000 0.000000 1.000000 221 237 255
1.370377 0.003742 -0.949805 0.930906 -0.048524 -0.361980 76 76 84
-1.000000 0.246989 2.317665 0.940214 0.000000 0.340526 42 42 47
-1.820963 -0.079808 1.692166 0.000000 0.000000 0.999969 221 237 254
-1.925834 0.116658 2.317665 0.986206 0.000000 0.165349 62 62 69
-1.000000 -0.246989 2.317665 -0.986206 0.000000 0.165349 42 42 47
-1.820963 -0.079808 1.692166 0.123173 0.989227 0.078921 193 208 246
-1.925834 -0.116658 2.317665 -0.990966 0.000000 0.133915 63 63 69
-2.889145 0.000001 1.628876 0.088961 0.995697 0.025025 198 214 252
-1.925834 0.116658 2.317665 0.099063 -0.994079 0.044374 62 62 69
-2.120523 -0.061693 -0.949805 -0.284890 0.915738 -0.283181 100 100 111
-1.925834 0.339447 1.934168 -0.250618 0.932310 0.260659 61 61 69
-0.818645 -0.131415 -2.840810 -0.979003 0.000000 -0.203803 254 54 0
-1.334342 -0.687154 -0.949805 0.000000 0.000000 -1.000000 57 57 67
-0.541919 -0.372500 -3.803878 -0.803522 0.491592 -0.335612 60 60 67
-1.005596 -0.174912 -1.863964 -0.351909 0.882199 -0.312815 49 49 57
-1.726032 -0.408784 -1.839711 -0.270333 -0.948637 -0.164129 83 83 93
-0.773456 -0.168971 1.692166 0.000000 0.000000 1.000000 221 237 255
-1.370377 0.003742 -0.949805 -0.930906 -0.048524 -0.361980 76 76 84
3 0 1 2
3 3 4 5
3 4 6 5
3 7 8 9
3 10 11 8
3 12 13 14
3 15 9 16
3 17 18 19
3 19 20 17
3 17 20 21
3 22 23 24
3 23 25 18
3 26 27 28
3 29 30 31
3 32 33 34
3 35 36 33
3 26 37 38
3 39 37 26
3 40 41 42
3 43 44 45
3 46 47 48
3 49 50 51
3 52 53 38
3 54 55 56
3 34 57 58
3 59 60 61
3 62 63 64
3 65 66 67
3 68 69 70
3 30 29 71
3 21 20 72
3 73 74 75
3 76 77 78
3 6 79 80
3 71 81 82
3 80 79 83
3 78 77 84
3 85 72 86
3 12 71 82
3 87 88 89
3 88 90 89
3 91 87 92
3 93 94 95
3 96 97 95
3 98 93 99
3 97 96 100
3 101 102 103
3 104 105 106
3 107 108 109
3 110 104 111
3 112 107 113
3 31 30 14
3 73 114 115
3 12 82 116
3 114 16 115
3 117 118 119
3 120 121 119
3 122 80 83
3 103 102 123
3 83 124 125
3 126 127 128
3 118 117 129
3 130 131 132
3 108 133 134
3 86 72 112
3 134 133 135
3 136 137 35
3 138 139 140
3 141 33 36
3 142 143 144
3 145 2 1
3 3 5 146
3 146 5 147
3 148 149 150
3 149 11 10
3 151 152 153
3 154 155 156
3 157 19 18
3 19 157 20
3 157 158 20
3 159 160 161
3 18 25 160
3 162 28 27
3 163 161 164
3 165 166 167
3 35 165 167
3 162 168 169
3 162 169 39
3 170 171 172
3 43 173 174
3 175 176 177
3 178 179 180
3 168 181 182
3 183 184 185
3 166 165 186
3 187 188 189
3 190 191 192
3 193 194 195
3 196 197 198
3 199 153 200
3 158 201 72
3 202 203 204
3 205 206 207
3 80 208 147
3 200 209 210
3 80 211 208
3 205 212 213
3 201 214 72
3 153 209 200
3 89 215 216
3 215 89 90
3 92 216 217
3 218 219 220
3 220 221 222
3 98 223 219
3 100 222 221
3 224 225 226
3 227 228 106
3 107 229 230
3 231 232 228
3 112 214 229
3 164 151 199
3 204 203 233
3 153 152 234
3 155 233 156
3 235 236 237
3 120 238 235
3 122 211 80
3 224 239 225
3 211 122 125
3 240 241 242
3 236 243 244
3 232 231 245
3 246 133 108
3 214 112 72
3 246 135 133
3 35 137 247
3 140 139 248
3 141 36 167
3 249 250 251
3 15 7 9
3 7 10 8
3 30 12 14
3 114 15 16
3 29 22 24
3 24 23 18
3 22 29 31
3 32 35 33
3 28 39 26
3 252 40 42
3 253 43 45
3 254 46 48
3 255 49 51
3 37 52 38
3 256 54 56
3 32 34 58
3 257 62 64
3 258 65 67
3 259 68 70
3 12 30 71
3 85 21 72
3 260 73 75
3 261 76 78
3 5 6 80
3 262 78 84
3 92 87 89
3 263 91 92
3 99 93 95
3 94 96 95
3 223 98 99
3 264 97 100
3 265 101 103
3 111 104 106
3 113 107 109
3 130 110 111
3 86 112 113
3 74 73 115
3 13 12 116
3 121 117 119
3 238 120 119
3 122 83 125
3 266 118 129
3 110 130 132
3 109 108 134
3 32 136 35
3 267 138 140
3 268 142 144
3 154 148 150
3 150 149 10
3 199 151 153
3 148 154 156
3 163 159 161
3 159 18 160
3 199 163 164
3 36 35 167
3 28 162 39
3 269 170 172
3 44 43 174
3 270 175 177
3 271 178 180
3 169 168 182
3 272 183 185
3 273 166 186
3 274 190 192
3 275 193 195
3 276 196 198
3 163 199 200
3 20 158 72
3 277 202 204
3 278 205 207
3 5 80 147
3 206 205 213
3 92 89 216
3 263 92 217
3 279 218 220
3 279 220 222
3 218 98 219
3 264 100 221
3 280 224 226
3 105 227 106
3 108 107 230
3 227 231 228
3 107 112 229
3 155 204 233
3 209 153 234
3 281 235 237
3 281 120 235
3 282 211 125
3 237 236 244
3 283 232 245
3 230 246 108
3 165 35 247
3 284 140 248
3 285 249 251
