ply
format ascii 1.0
comment Created by Blender 2.74 (sub 0) - www.blender.org, source file: 'Newship_2.65 Split.blend'
element vertex 14
property float x
property float y
property float z
property float nx
property float ny
property float nz
property uchar red
property uchar green
property uchar blue
element face 20
property list uchar uint vertex_indices
end_header
0.477647 -0.018501 3.215790 -0.259468 0.788629 -0.557390 255 255 255
0.434526 -0.202746 3.215790 -0.551195 -0.603168 -0.576495 255 255 255
0.416799 -0.123805 3.215790 -0.781549 0.119419 -0.612262 255 255 255
0.604458 -0.185031 3.215790 0.499130 -0.602252 -0.623005 255 255 255
0.526868 -0.214137 3.215790 0.090182 -0.761254 -0.642109 255 255 255
0.658535 -0.097557 3.215790 0.802728 0.250404 -0.541185 255 255 255
-0.658535 -0.097557 3.215790 -0.802728 0.250404 -0.541185 255 255 255
-0.526868 -0.214137 3.215790 -0.090182 -0.761254 -0.642109 255 255 255
-0.604458 -0.185031 3.215790 -0.499130 -0.602252 -0.623005 255 255 255
-0.416799 -0.123805 3.215790 0.781549 0.119419 -0.612262 255 255 255
-0.434526 -0.202746 3.215790 0.551195 -0.603168 -0.576495 255 255 255
-0.477647 -0.018501 3.215790 0.259468 0.788629 -0.557390 255 255 255
-0.519806 -0.140296 5.057219 0.002472 -0.008332 0.999939 65 131 255
0.519805 -0.140296 5.057219 -0.002594 -0.008087 0.999939 65 131 255
3 0 1 2
3 3 4 1
3 0 5 3
3 0 3 1
3 6 7 8
3 9 10 7
3 6 11 9
3 6 9 7
3 9 11 12
3 6 8 12
3 8 7 12
3 10 9 12
3 7 10 12
3 11 6 12
3 0 2 13
3 3 5 13
3 4 3 13
3 2 1 13
3 1 4 13
3 5 0 13
