ply
format ascii 1.0
comment Created by Blender 2.74 (sub 0) - www.blender.org, source file: 'Newship_2.65 Split.blend'
element vertex 14
property float x
property float y
property float z
property float nx
property float ny
property float nz
property uchar red
property uchar green
property uchar blue
element face 20
property list uchar uint vertex_indices
end_header
0.523936 -0.139464 2.257980 0.072146 -0.714774 -0.695608 255 255 255
0.423095 -0.200889 2.257980 0.540147 0.606525 -0.583361 255 255 255
0.398921 -0.145630 2.257980 0.737297 -0.425123 -0.525010 255 255 255
0.594152 -0.204765 2.257980 -0.600726 0.556536 -0.573901 255 255 255
0.517214 -0.228010 2.257980 -0.004639 0.786798 -0.617145 255 255 255
0.611672 -0.126053 2.257980 -0.632130 -0.562334 -0.533067 255 255 255
-0.611672 -0.126053 2.257980 0.632130 -0.562334 -0.533067 255 255 255
-0.517214 -0.228010 2.257980 0.004639 0.786798 -0.617145 255 255 255
-0.594152 -0.204765 2.257980 0.600726 0.556536 -0.573901 255 255 255
-0.398921 -0.145630 2.257980 -0.737297 -0.425123 -0.525010 255 255 255
-0.423095 -0.200889 2.257980 -0.540147 0.606525 -0.583361 255 255 255
-0.523936 -0.139464 2.257980 -0.072146 -0.714774 -0.695608 255 255 255
-0.519806 -0.140298 1.208506 0.007263 -0.033418 0.999390 65 131 255
0.519805 -0.140298 1.208506 -0.007233 -0.033357 0.999390 65 131 255
3 0 1 2
3 3 4 1
3 0 5 3
3 0 3 1
3 6 7 8
3 9 10 7
3 6 11 7
3 11 9 7
3 9 11 12
3 6 8 12
3 8 7 12
3 10 9 12
3 7 10 12
3 11 6 12
3 0 2 13
3 3 5 13
3 4 3 13
3 2 1 13
3 1 4 13
3 5 0 13
