ply
format ascii 1.0
comment Created by Blender 2.74 (sub 0) - www.blender.org, source file: ''
element vertex 537
property float x
property float y
property float z
property float nx
property float ny
property float nz
property uchar red
property uchar green
property uchar blue
element face 960
property list uchar uint vertex_indices
end_header
0.707107 -0.707107 0.000000 0.710135 -0.704031 0.000000 253 255 253
0.831470 -0.555570 0.000000 0.833338 -0.552751 0.000000 194 255 189
0.815493 -0.555570 0.162212 0.817316 -0.552751 0.162572 165 255 158
0.980785 -0.195090 0.000000 0.980987 -0.193915 0.000000 72 223 56
0.961940 -0.195090 0.191342 0.962157 -0.193915 0.191382 171 164 160
0.906127 -0.382683 0.180240 0.906980 -0.380535 0.180395 125 253 114
0.980785 0.195090 0.000000 0.980987 0.193915 0.000000 37 255 19
0.961940 0.195090 0.191342 0.962157 0.193915 0.191382 114 237 99
0.980785 0.000000 0.195090 0.980773 0.000000 0.195074 175 135 163
0.831470 0.555570 0.000000 0.833338 0.552751 0.000000 255 5 0
0.815493 0.555570 0.162212 0.817316 0.552751 0.162572 255 5 0
0.906127 0.382683 0.180240 0.906980 0.380535 0.180395 252 10 1
0.555570 0.831470 0.000000 0.559771 0.828639 0.000000 255 5 0
0.544895 0.831470 0.108386 0.548997 0.828639 0.109195 255 5 0
0.693520 0.707107 0.137950 0.696493 0.704031 0.138524 255 5 0
0.382683 -0.923880 0.000000 0.387860 -0.921690 0.000000 255 255 255
0.375330 -0.923880 0.074658 0.380413 -0.921690 0.075655 255 255 255
0.191341 -0.980785 0.038060 0.197089 -0.979583 0.039186 255 255 255
0.382683 0.923880 0.000000 0.387860 0.921690 0.000000 255 164 163
0.195090 0.980785 0.000000 0.200964 0.979583 0.000000 255 242 252
0.191342 0.980785 0.038060 0.197089 0.979583 0.039186 255 244 252
0.555570 -0.831470 0.000000 0.559771 -0.828639 0.000000 255 255 255
0.707107 -0.707107 0.000000 0.710135 -0.704031 0.000000 255 255 255
0.693520 -0.707107 0.137950 0.696493 -0.704031 0.138524 255 255 255
0.923880 -0.382683 0.000000 0.924741 -0.380535 0.000000 52 253 36
1.000000 0.000000 0.000000 1.000000 0.000000 0.000000 61 233 45
0.923880 0.382683 0.000000 0.924741 0.380535 0.000000 183 91 8
0.707107 0.707107 0.000000 0.710135 0.704031 0.000000 255 5 0
0.375330 0.923880 0.074658 0.380413 0.921690 0.075655 255 112 110
0.544895 -0.831470 0.108386 0.548997 -0.828639 0.109195 255 255 255
0.853553 0.382683 0.353553 0.854366 0.380535 0.353862 255 15 18
0.653281 0.707107 0.270598 0.656056 0.704031 0.271737 255 5 0
0.768178 0.555570 0.318190 0.769890 0.552751 0.318888 255 5 0
0.353553 0.923880 0.146447 0.358348 0.921690 0.148412 255 91 87
0.513280 0.831470 0.212608 0.517136 0.828639 0.214209 255 5 0
0.513280 -0.831470 0.212608 0.517136 -0.828639 0.214209 255 255 255
0.693520 -0.707107 0.137950 0.696493 -0.704031 0.138524 229 255 227
0.768178 -0.555570 0.318190 0.769890 -0.552751 0.318888 192 255 187
0.906127 -0.195090 0.375330 0.906339 -0.193915 0.375408 248 88 240
0.853553 -0.382683 0.353554 0.854366 -0.380535 0.353893 225 254 222
0.906127 0.195090 0.375330 0.906339 0.193915 0.375408 254 98 243
0.923879 0.000000 0.382684 0.923856 0.000000 0.382672 255 59 246
0.353553 -0.923880 0.146447 0.358348 -0.921690 0.148412 255 255 255
0.180240 -0.980785 0.074658 0.185644 -0.979583 0.076907 255 255 255
0.180240 0.980785 0.074658 0.185644 0.979583 0.076876 255 244 252
0.653281 -0.707107 0.270598 0.656056 -0.704031 0.271737 255 255 255
0.768178 0.382683 0.513280 0.768914 0.380535 0.513749 255 63 198
0.587938 0.707107 0.392848 0.590442 0.704031 0.394513 255 5 0
0.691342 0.555570 0.461940 0.692892 0.552751 0.462966 255 6 6
0.318190 0.923880 0.212608 0.322489 0.921690 0.215491 255 97 94
0.461940 -0.831470 0.308658 0.465407 -0.828639 0.310984 255 255 255
0.318189 -0.923880 0.212608 0.322489 -0.921690 0.215491 255 255 255
0.768178 -0.555570 0.318190 0.769890 -0.552751 0.318888 255 255 255
0.691342 -0.555570 0.461940 0.692892 -0.552751 0.462966 255 255 255
0.587938 -0.707107 0.392848 0.590442 -0.704031 0.394513 255 255 255
0.815493 -0.195090 0.544895 0.815668 -0.193915 0.545000 253 90 246
0.768178 -0.382683 0.513280 0.768914 -0.380535 0.513749 245 255 244
0.815493 0.195090 0.544895 0.815668 0.193915 0.545000 255 58 246
0.461940 0.831470 0.308658 0.465407 0.828639 0.310984 255 5 0
0.162211 -0.980785 0.108386 0.167089 -0.979583 0.111637 255 255 255
0.180240 0.980785 0.074658 0.185644 0.979583 0.076876 255 241 225
0.162212 0.980785 0.108387 0.167089 0.979583 0.111637 255 240 215
0.318190 0.923880 0.212608 0.322489 0.921690 0.215491 255 171 71
0.831469 0.000000 0.555570 0.831446 0.000000 0.555559 255 58 246
0.653281 0.382683 0.653282 0.653890 0.380535 0.653890 255 58 246
0.500000 0.707107 0.500000 0.502121 0.704031 0.502121 255 5 0
0.587938 0.555570 0.587938 0.589251 0.552751 0.589251 255 38 142
0.270598 0.923880 0.270598 0.274270 0.921690 0.274270 255 128 126
0.392847 0.831470 0.392848 0.395795 0.828639 0.395795 255 5 0
0.392847 -0.831470 0.392848 0.395795 -0.828639 0.395795 255 255 255
0.270598 -0.923880 0.270598 0.274270 -0.921690 0.274270 255 255 255
0.587938 -0.555570 0.587938 0.589251 -0.552751 0.589251 255 255 255
0.815493 -0.195090 0.544895 0.815668 -0.193915 0.545000 255 90 248
0.693520 -0.195090 0.693520 0.693655 -0.193915 0.693655 255 211 254
0.653281 -0.382683 0.653282 0.653890 -0.380535 0.653890 255 255 255
0.693520 0.195090 0.693520 0.693655 0.193915 0.693655 255 58 246
0.137949 -0.980785 0.137950 0.142094 -0.979583 0.142094 255 255 255
0.137950 0.980785 0.137950 0.142094 0.979583 0.142094 255 240 206
0.270598 0.923880 0.270598 0.274270 0.921690 0.274270 255 183 85
0.500000 -0.707107 0.500000 0.502121 -0.704031 0.502121 255 255 255
0.768178 -0.382683 0.513280 0.768914 -0.380535 0.513749 255 255 255
0.707107 0.000000 0.707107 0.707083 0.000000 0.707083 255 63 246
0.693520 -0.195090 0.693520 0.693655 -0.193915 0.693655 254 211 253
0.513280 0.382683 0.768178 0.513749 0.380535 0.768914 255 58 246
0.392847 0.707107 0.587938 0.394513 0.704031 0.590442 255 15 46
0.212607 0.923880 0.318190 0.215491 0.921690 0.322489 255 206 99
0.308658 0.831470 0.461940 0.310984 0.828639 0.465407 255 18 4
0.308658 -0.831470 0.461940 0.310984 -0.828639 0.465407 255 255 255
0.212607 -0.923880 0.318190 0.215491 -0.921690 0.322489 255 255 255
0.461940 -0.555570 0.691342 0.462966 -0.552751 0.692892 255 255 255
0.392847 -0.707107 0.587938 0.394513 -0.704031 0.590442 255 255 255
0.544895 -0.195090 0.815493 0.545000 -0.193915 0.815668 255 60 246
0.513280 -0.382683 0.768178 0.513749 -0.380535 0.768914 255 231 254
0.544895 0.195090 0.815493 0.545000 0.193915 0.815668 255 58 246
0.461940 0.555570 0.691342 0.462966 0.552751 0.692892 255 58 244
0.392847 0.831470 0.392848 0.395795 0.828639 0.395795 255 20 3
0.108386 -0.980785 0.162212 0.111637 -0.979583 0.167089 255 255 255
0.108386 0.980785 0.162212 0.111637 0.979583 0.167089 255 239 199
0.555570 0.000000 0.831470 0.555559 0.000000 0.831446 255 58 246
0.353553 0.382683 0.853554 0.353862 0.380535 0.854366 255 58 246
0.270598 0.707107 0.653282 0.271737 0.704031 0.656056 255 49 208
0.146446 0.923880 0.353554 0.148412 0.921690 0.358348 255 224 96
0.212607 0.831470 0.513280 0.214209 0.828639 0.517136 255 37 28
0.212607 -0.831470 0.513280 0.214209 -0.828639 0.517136 255 255 255
0.146446 -0.923880 0.353554 0.148412 -0.921690 0.358348 255 255 255
0.318189 -0.555570 0.768178 0.318888 -0.552751 0.769890 255 255 255
0.270598 -0.707107 0.653282 0.271737 -0.704031 0.656056 255 255 255
0.375330 -0.195090 0.906128 0.375408 -0.193915 0.906339 255 58 246
0.353553 -0.382683 0.853554 0.353862 -0.380535 0.854366 255 223 254
0.375330 0.195090 0.906128 0.375408 0.193915 0.906339 255 58 246
0.382683 0.000000 0.923880 0.382672 0.000000 0.923856 255 58 246
0.461940 0.555570 0.691342 0.462966 0.552751 0.692892 255 60 246
0.318189 0.555570 0.768178 0.318888 0.552751 0.769890 255 58 246
0.074658 0.980785 0.180240 0.076907 0.979583 0.185644 255 238 193
0.180240 0.382683 0.906128 0.180395 0.380535 0.906980 255 58 246
0.270598 0.707107 0.653282 0.271737 0.704031 0.656056 255 89 247
0.137949 0.707107 0.693520 0.138524 0.704031 0.696493 255 58 246
0.074658 0.923880 0.375331 0.075655 0.921690 0.380413 255 230 76
0.108386 0.831470 0.544895 0.109195 0.828639 0.548997 255 102 108
0.108386 -0.831470 0.544895 0.109195 -0.828639 0.548997 255 255 255
0.074658 -0.923880 0.375330 0.075655 -0.921690 0.380413 255 255 255
0.162211 -0.555570 0.815493 0.162572 -0.552751 0.817316 255 254 255
0.137949 -0.707107 0.693520 0.138524 -0.704031 0.696493 255 255 255
0.191341 -0.195090 0.961940 0.191382 -0.193915 0.962157 255 58 246
0.180240 -0.382683 0.906128 0.180395 -0.380535 0.906980 255 96 248
0.191341 0.195090 0.961940 0.191382 0.193915 0.962157 255 59 246
0.195090 0.000000 0.980785 0.195074 0.000000 0.980773 255 58 246
0.162211 0.555570 0.815493 0.162572 0.552751 0.817316 255 58 246
0.074658 -0.980785 0.180240 0.076907 -0.979583 0.185644 255 255 255
0.038060 0.980785 0.191342 0.039186 0.979583 0.197089 255 238 188
-0.000000 0.382683 0.923880 0.000000 0.380535 0.924741 255 58 246
-0.000000 0.707107 0.707107 0.000000 0.704031 0.710135 255 63 241
-0.000000 0.555570 0.831470 0.000000 0.552751 0.833338 255 58 246
-0.000000 0.923880 0.382684 0.000000 0.921690 0.387860 255 229 58
-0.000000 0.831470 0.555570 0.000000 0.828639 0.559771 255 190 94
-0.000000 -0.831470 0.555570 0.000000 -0.828639 0.559771 255 255 255
-0.000000 -0.555570 0.831470 0.000000 -0.552751 0.833338 255 250 255
-0.000000 -0.707107 0.707107 0.000000 -0.704031 0.710135 255 255 255
-0.000000 -0.195090 0.980785 0.000000 -0.193915 0.980987 255 58 246
-0.000000 -0.382683 0.923880 0.000000 -0.380535 0.924741 255 90 248
-0.000000 0.195090 0.980785 0.000000 0.193915 0.980987 255 58 246
-0.000000 0.000000 1.000000 0.000000 0.000000 1.000000 255 58 246
0.108386 0.831470 0.544895 0.109195 0.828639 0.548997 255 193 198
-0.000000 0.831470 0.555570 0.000000 0.828639 0.559771 255 201 106
0.038060 -0.980785 0.191342 0.039186 -0.979583 0.197089 255 255 255
-0.000000 -0.923880 0.382684 0.000000 -0.921690 0.387860 255 255 255
-0.000000 0.980785 0.195091 0.000000 0.979583 0.200964 255 237 188
-0.180240 0.382683 0.906128 -0.180395 0.380535 0.906980 255 106 249
-0.137950 0.707107 0.693520 -0.138524 0.704031 0.696493 255 174 117
-0.162212 0.555570 0.815493 -0.162572 0.552751 0.817316 255 71 241
-0.074658 0.923880 0.375331 -0.075655 0.921690 0.380413 255 228 53
-0.108387 0.831470 0.544895 -0.109195 0.828639 0.548997 255 227 54
-0.108387 -0.831470 0.544895 -0.109195 -0.828639 0.548997 255 255 255
-0.074658 -0.923880 0.375330 -0.075655 -0.921690 0.380413 255 255 255
-0.162212 -0.555570 0.815493 -0.162572 -0.552751 0.817316 255 254 255
-0.137950 -0.707107 0.693520 -0.138524 -0.704031 0.696493 255 255 255
-0.191342 -0.195090 0.961940 -0.191382 -0.193915 0.962157 255 162 251
-0.180240 -0.382683 0.906128 -0.180395 -0.380535 0.906980 255 220 253
-0.191342 0.195090 0.961940 -0.191382 0.193915 0.962157 255 155 251
-0.195091 0.000000 0.980785 -0.195074 0.000000 0.980773 255 164 251
-0.000000 -0.980785 0.195090 0.000000 -0.979583 0.200964 255 255 255
-0.038061 0.980785 0.191342 -0.039186 0.979583 0.197089 255 237 190
-0.353554 0.382683 0.853554 -0.353893 0.380535 0.854366 255 247 187
-0.270598 0.707107 0.653282 -0.271737 0.704031 0.656056 255 228 52
-0.146447 0.923880 0.353554 -0.148412 0.921690 0.358348 255 228 52
-0.212608 0.831470 0.513280 -0.214209 0.828639 0.517136 255 228 52
-0.212608 -0.831470 0.513280 -0.214209 -0.828639 0.517136 255 255 255
-0.318190 -0.555570 0.768178 -0.318888 -0.552751 0.769890 255 255 255
-0.270598 -0.707107 0.653282 -0.271737 -0.704031 0.656056 255 255 255
-0.375331 -0.195090 0.906127 -0.375408 -0.193915 0.906339 255 255 255
-0.353554 -0.382683 0.853554 -0.353862 -0.380535 0.854366 255 255 255
-0.375331 0.195090 0.906127 -0.375408 0.193915 0.906339 255 254 244
-0.382684 0.000000 0.923880 -0.382672 0.000000 0.923856 255 255 255
-0.318190 0.555570 0.768178 -0.318888 0.552751 0.769890 255 229 62
-0.038061 -0.980785 0.191342 -0.039186 -0.979583 0.197089 255 255 255
-0.146447 -0.923880 0.353553 -0.148412 -0.921690 0.358348 255 255 255
-0.074658 0.980785 0.180240 -0.076907 0.979583 0.185644 255 239 198
-0.513280 0.382683 0.768178 -0.513749 0.380535 0.768914 255 228 52
-0.392848 0.707107 0.587938 -0.394513 0.704031 0.590442 255 228 52
-0.212608 0.923880 0.318190 -0.215491 0.921690 0.322489 255 228 53
-0.308659 0.831470 0.461940 -0.310984 0.828639 0.465407 255 228 52
-0.308659 -0.831470 0.461940 -0.310984 -0.828639 0.465407 255 255 255
-0.212608 -0.923880 0.318190 -0.215491 -0.921690 0.322489 255 255 255
-0.461940 -0.555570 0.691342 -0.462966 -0.552751 0.692892 255 255 255
-0.392848 -0.707107 0.587938 -0.394513 -0.704031 0.590442 255 255 255
-0.544895 -0.195090 0.815493 -0.545000 -0.193915 0.815668 255 255 253
-0.513280 -0.382683 0.768178 -0.513749 -0.380535 0.768914 255 255 255
-0.544895 0.195090 0.815493 -0.545000 0.193915 0.815668 255 228 52
-0.555571 0.000000 0.831470 -0.555559 0.000000 0.831446 255 235 102
-0.461940 0.555570 0.691342 -0.462966 0.552751 0.692892 255 228 52
-0.108387 -0.980785 0.162212 -0.111637 -0.979583 0.167089 255 255 255
-0.108387 0.980785 0.162212 -0.111637 0.979583 0.167089 255 240 210
-0.653282 0.382683 0.653282 -0.653890 0.380535 0.653890 255 228 52
-0.500000 0.707107 0.500000 -0.502121 0.704031 0.502121 255 228 52
-0.270599 0.923880 0.270598 -0.274270 0.921690 0.274270 255 224 56
-0.392848 0.831470 0.392848 -0.395795 0.828639 0.395795 255 226 51
-0.392848 -0.831470 0.392848 -0.395795 -0.828639 0.395795 255 255 255
-0.587938 -0.555570 0.587938 -0.589251 -0.552751 0.589251 255 255 255
-0.500000 -0.707107 0.500000 -0.502121 -0.704031 0.502121 255 255 255
-0.693520 -0.195090 0.693520 -0.693655 -0.193915 0.693655 255 254 250
-0.653282 -0.382683 0.653282 -0.653890 -0.380535 0.653890 255 255 255
-0.693520 0.195090 0.693520 -0.693655 0.193915 0.693655 255 228 52
-0.587938 0.555570 0.587938 -0.589251 0.552751 0.589251 255 228 52
-0.270598 -0.923880 0.270598 -0.274270 -0.921690 0.274270 255 255 255
-0.137950 0.980785 0.137950 -0.142094 0.979583 0.142094 255 240 222
-0.707107 0.000000 0.707107 -0.707083 0.000000 0.707083 255 229 60
-0.768178 0.382683 0.513280 -0.768914 0.380535 0.513749 255 221 50
-0.587938 0.707107 0.392848 -0.590442 0.704031 0.394513 255 213 46
-0.318190 0.923880 0.212608 -0.322489 0.921690 0.215491 255 192 72
-0.461940 0.831470 0.308658 -0.465407 0.828639 0.310984 255 169 33
-0.461940 -0.831470 0.308658 -0.465407 -0.828639 0.310984 255 255 255
-0.587938 -0.555570 0.587938 -0.589251 -0.552751 0.589251 250 255 255
-0.691342 -0.555570 0.461940 -0.692892 -0.552751 0.462966 249 255 255
-0.587938 -0.707107 0.392848 -0.590442 -0.704031 0.394513 255 255 255
-0.815493 -0.195090 0.544895 -0.815668 -0.193915 0.545000 255 255 255
-0.768178 -0.382683 0.513280 -0.768914 -0.380535 0.513749 255 255 255
-0.815493 0.195090 0.544895 -0.815668 0.193915 0.545000 255 235 109
-0.691342 0.555570 0.461940 -0.692892 0.552751 0.462966 255 225 51
-0.137950 -0.980785 0.137950 -0.142094 -0.979583 0.142094 255 255 255
-0.318190 -0.923880 0.212608 -0.322489 -0.921690 0.215491 255 255 255
-0.162212 0.980785 0.108386 -0.167089 0.979583 0.111637 255 238 230
-0.831470 0.000000 0.555570 -0.831446 0.000000 0.555559 255 253 239
-0.853554 0.382683 0.353553 -0.854366 0.380535 0.353862 255 122 16
-0.653282 0.707107 0.270598 -0.656056 0.704031 0.271737 255 130 25
-0.768178 0.555570 0.318190 -0.769890 0.552751 0.318888 255 122 16
-0.353554 0.923880 0.146447 -0.358348 0.921690 0.148412 255 135 36
-0.513280 -0.831470 0.212608 -0.517136 -0.828639 0.214209 255 255 255
-0.768178 -0.555570 0.318190 -0.769890 -0.552751 0.318888 237 253 255
-0.815493 -0.195090 0.544895 -0.815668 -0.193915 0.545000 0 232 255
-0.906128 -0.195090 0.375330 -0.906339 -0.193915 0.375408 0 232 255
-0.853554 -0.382683 0.353553 -0.854366 -0.380535 0.353862 32 235 255
-0.831470 0.000000 0.555570 -0.831446 0.000000 0.555559 65 238 251
-0.906128 0.195090 0.375330 -0.906339 0.193915 0.375408 255 144 54
-0.513280 0.831470 0.212608 -0.517136 0.828639 0.214209 255 122 16
-0.162212 -0.980785 0.108386 -0.167089 -0.979583 0.111637 255 255 255
-0.353554 -0.923880 0.146447 -0.358348 -0.921690 0.148412 255 255 255
-0.180240 0.980785 0.074658 -0.185644 0.979583 0.076907 255 233 229
-0.653282 -0.707107 0.270598 -0.656056 -0.704031 0.271737 255 255 255
-0.768178 -0.382683 0.513280 -0.768914 -0.380535 0.513749 70 239 255
-0.923880 0.000000 0.382683 -0.923856 0.000000 0.382672 82 239 254
-0.906128 0.382683 0.180240 -0.906980 0.380535 0.180395 255 122 16
-0.693520 0.707107 0.137950 -0.696493 0.704031 0.138524 255 122 16
-0.815493 0.555570 0.162212 -0.817316 0.552751 0.162572 255 122 16
-0.375331 0.923880 0.074658 -0.380413 0.921690 0.075655 255 123 17
-0.544895 -0.831470 0.108386 -0.548997 -0.828639 0.109195 255 255 255
-0.375331 -0.923880 0.074658 -0.380413 -0.921690 0.075655 255 255 255
-0.815493 -0.555570 0.162212 -0.817316 -0.552751 0.162572 195 249 255
-0.693520 -0.707107 0.137950 -0.696493 -0.704031 0.138524 255 255 255
-0.961940 -0.195090 0.191342 -0.962157 -0.193915 0.191382 0 232 255
-0.906128 -0.382683 0.180240 -0.906980 -0.380535 0.180395 4 233 255
-0.961940 0.195090 0.191342 -0.962157 0.193915 0.191382 255 122 16
-0.544896 0.831470 0.108386 -0.548997 0.828639 0.109195 255 122 16
-0.180240 -0.980785 0.074658 -0.185644 -0.979583 0.076907 255 255 255
-0.191342 0.980785 0.038060 -0.197089 0.979583 0.039186 255 227 222
-0.980786 0.000000 0.195090 -0.980773 0.000000 0.195074 91 214 209
-0.923880 0.382683 0.000000 -0.924741 0.380535 0.000000 255 122 17
-0.707107 0.707107 -0.000000 -0.710135 0.704031 0.000000 255 122 16
-0.831470 0.555570 -0.000000 -0.833338 0.552751 0.000000 255 122 16
-0.382684 0.923880 0.000000 -0.387860 0.921690 0.000000 254 122 17
-0.555571 0.831470 0.000000 -0.559771 0.828639 0.000000 255 122 16
-0.555570 -0.831470 -0.000000 -0.559771 -0.828639 0.000000 255 255 255
-0.831470 -0.555570 -0.000000 -0.833338 -0.552751 0.000000 117 242 255
-0.707107 -0.707107 -0.000000 -0.710135 -0.704031 0.000000 255 255 255
-0.980785 -0.195090 -0.000000 -0.980987 -0.193915 0.000000 0 232 255
-0.923880 -0.382683 0.000000 -0.924741 -0.380535 0.000000 0 232 255
-0.980785 0.195090 -0.000000 -0.980987 0.193915 0.000000 255 122 16
-0.191342 -0.980785 0.038060 -0.197089 -0.979583 0.039186 255 255 255
-0.382684 -0.923880 0.000000 -0.387860 -0.921690 0.000000 255 255 255
-0.195091 0.980785 -0.000000 -0.200964 0.979583 0.000000 255 223 217
-1.000000 0.000000 -0.000000 -1.000000 0.000000 0.000000 128 179 138
-0.906128 0.382683 -0.180240 -0.906980 0.380535 -0.180395 255 122 16
-0.693520 0.707107 -0.137950 -0.696493 0.704031 -0.138524 254 122 17
-0.375331 0.923880 -0.074658 -0.380413 0.921690 -0.075655 252 120 21
-0.544896 0.831470 -0.108386 -0.548997 0.828639 -0.109195 248 118 27
-0.544895 -0.831470 -0.108386 -0.548997 -0.828639 -0.109195 255 255 255
-0.815493 -0.555570 -0.162212 -0.817316 -0.552751 -0.162572 64 238 255
-0.693520 -0.707107 -0.137950 -0.696493 -0.704031 -0.138524 255 255 255
-0.961940 -0.195090 -0.191342 -0.962157 -0.193915 -0.191382 0 232 255
-0.906128 -0.382683 -0.180240 -0.906980 -0.380535 -0.180395 0 232 255
-0.961940 0.195090 -0.191342 -0.962157 0.193915 -0.191382 255 122 16
-0.815493 0.555570 -0.162212 -0.817316 0.552751 -0.162572 255 122 16
-0.195091 -0.980785 0.000000 -0.200964 -0.979583 0.000000 255 255 255
-0.375331 -0.923880 -0.074658 -0.380413 -0.921690 -0.075655 255 255 255
-0.191342 0.980785 -0.038060 -0.197089 0.979583 -0.039186 255 224 219
-0.980786 0.000000 -0.195090 -0.980773 0.000000 -0.195074 216 141 57
-0.853554 0.382683 -0.353553 -0.854366 0.380535 -0.353862 255 122 16
-0.653282 0.707107 -0.270598 -0.656056 0.704031 -0.271737 215 93 87
-0.353554 0.923880 -0.146447 -0.358348 0.921690 -0.148412 250 118 25
-0.513280 0.831470 -0.212608 -0.517136 0.828639 -0.214209 219 98 78
-0.513280 -0.831470 -0.212608 -0.517136 -0.828639 -0.214209 255 255 255
-0.768178 -0.555570 -0.318190 -0.769890 -0.552751 -0.318888 46 236 255
-0.653282 -0.707107 -0.270598 -0.656056 -0.704031 -0.271737 255 255 255
-0.906127 -0.195090 -0.375330 -0.906339 -0.193915 -0.375408 23 234 254
-0.853554 -0.382683 -0.353553 -0.854366 -0.380535 -0.353862 0 232 255
-0.906127 0.195090 -0.375330 -0.906339 0.193915 -0.375408 255 122 16
-0.768178 0.555570 -0.318190 -0.769890 0.552751 -0.318888 248 118 29
-0.191342 -0.980785 -0.038060 -0.197089 -0.979583 -0.039186 255 255 255
-0.353554 -0.923880 -0.146447 -0.358348 -0.921690 -0.148412 255 255 255
-0.180240 0.980785 -0.074658 -0.185644 0.979583 -0.076907 255 227 227
-0.923880 0.000000 -0.382684 -0.923856 0.000000 -0.382672 255 138 45
-0.768178 0.382683 -0.513280 -0.768914 0.380535 -0.513749 215 95 85
-0.587938 0.707107 -0.392847 -0.590442 0.704031 -0.394513 122 30 250
-0.318190 0.923880 -0.212608 -0.322489 0.921690 -0.215491 249 118 28
-0.461940 0.831470 -0.308658 -0.465407 0.828639 -0.310984 170 63 166
-0.461940 -0.831470 -0.308658 -0.465407 -0.828639 -0.310984 255 255 255
-0.691342 -0.555570 -0.461940 -0.692892 -0.552751 -0.462966 9 233 255
-0.587938 -0.707107 -0.392847 -0.590442 -0.704031 -0.394513 238 253 255
-0.815493 -0.195090 -0.544895 -0.815668 -0.193915 -0.545000 59 236 252
-0.768178 -0.382683 -0.513280 -0.768914 -0.380535 -0.513749 0 232 255
-0.815493 0.195090 -0.544895 -0.815668 0.193915 -0.545000 255 123 17
-0.691342 0.555570 -0.461940 -0.692892 0.552751 -0.462966 129 34 237
-0.180240 -0.980785 -0.074658 -0.185644 -0.979583 -0.076876 255 255 255
-0.318190 -0.923880 -0.212607 -0.322489 -0.921690 -0.215491 255 255 255
-0.162212 0.980785 -0.108386 -0.167089 0.979583 -0.111637 255 231 236
-0.831470 0.000000 -0.555570 -0.831446 0.000000 -0.555559 255 156 78
-0.653282 0.382683 -0.653281 -0.653890 0.380535 -0.653890 119 28 254
-0.500000 0.707107 -0.500000 -0.502121 0.704031 -0.502121 119 28 255
-0.270598 0.923880 -0.270598 -0.274270 0.921690 -0.274270 249 119 29
-0.392848 0.831470 -0.392848 -0.395795 0.828639 -0.395795 154 52 195
-0.392848 -0.831470 -0.392847 -0.395795 -0.828639 -0.395795 255 255 255
-0.587938 -0.555570 -0.587938 -0.589251 -0.552751 -0.589251 0 232 255
-0.500000 -0.707107 -0.500000 -0.502121 -0.704031 -0.502121 123 243 255
-0.815493 -0.195090 -0.544895 -0.815668 -0.193915 -0.545000 59 237 255
-0.693520 -0.195090 -0.693520 -0.693655 -0.193915 -0.693655 144 190 255
-0.653282 -0.382683 -0.653281 -0.653890 -0.380535 -0.653890 0 232 255
-0.693520 0.195090 -0.693520 -0.693655 0.193915 -0.693655 172 65 163
-0.587938 0.555570 -0.587938 -0.589251 0.552751 -0.589251 119 28 255
-0.270598 -0.923880 -0.270598 -0.274270 -0.921690 -0.274270 255 255 255
-0.137950 -0.980785 -0.137950 -0.142094 -0.979583 -0.142094 255 255 255
-0.137950 0.980785 -0.137950 -0.142094 0.979583 -0.142094 255 234 243
-0.707107 0.000000 -0.707107 -0.707083 0.000000 -0.707083 182 86 167
-0.693520 -0.195090 -0.693520 -0.693655 -0.193915 -0.693655 144 179 237
-0.693520 0.195090 -0.693520 -0.693655 0.193915 -0.693655 172 117 255
-0.653282 0.382683 -0.653281 -0.653890 0.380535 -0.653890 119 29 255
-0.513280 0.382683 -0.768178 -0.513749 0.380535 -0.768914 119 28 255
-0.392848 0.707107 -0.587938 -0.394513 0.704031 -0.590442 119 28 255
-0.212608 0.923880 -0.318190 -0.215491 0.921690 -0.322489 235 112 57
-0.308659 0.831470 -0.461940 -0.310984 0.828639 -0.465407 156 54 191
-0.308658 -0.831470 -0.461940 -0.310984 -0.828639 -0.465407 246 254 255
-0.461940 -0.555570 -0.691342 -0.462966 -0.552751 -0.692892 0 232 255
-0.392848 -0.707107 -0.587938 -0.394513 -0.704031 -0.590442 32 235 255
-0.544895 -0.195090 -0.815493 -0.545000 -0.193915 -0.815668 119 28 255
-0.513280 -0.382683 -0.768178 -0.513749 -0.380535 -0.768914 6 225 255
-0.707107 0.000000 -0.707107 -0.707083 0.000000 -0.707083 182 133 255
-0.544895 0.195090 -0.815493 -0.545000 0.193915 -0.815668 119 28 255
-0.461940 0.555570 -0.691342 -0.462966 0.552751 -0.692892 119 28 255
-0.212608 -0.923880 -0.318190 -0.215491 -0.921690 -0.322489 255 255 255
-0.108387 -0.980785 -0.162212 -0.111637 -0.979583 -0.167089 255 255 255
-0.108387 0.980785 -0.162212 -0.111637 0.979583 -0.167089 255 236 246
-0.555570 0.000000 -0.831470 -0.555559 0.000000 -0.831446 119 28 255
-0.353554 0.382683 -0.853553 -0.353862 0.380535 -0.854366 119 28 255
-0.270598 0.707107 -0.653281 -0.271737 0.704031 -0.656056 119 28 255
-0.146447 0.923880 -0.353553 -0.148412 0.921690 -0.358348 200 89 121
-0.212608 0.831470 -0.513280 -0.214209 0.828639 -0.517136 121 30 251
-0.212608 -0.831470 -0.513280 -0.214209 -0.828639 -0.517136 239 254 255
-0.318190 -0.555570 -0.768177 -0.318888 -0.552751 -0.769890 8 232 255
-0.270598 -0.707107 -0.653281 -0.271737 -0.704031 -0.656056 57 237 255
-0.375330 -0.195090 -0.906127 -0.375408 -0.193915 -0.906339 119 28 255
-0.353554 -0.382683 -0.853553 -0.353862 -0.380535 -0.854366 104 103 255
-0.375330 0.195090 -0.906127 -0.375408 0.193915 -0.906339 119 28 255
-0.382684 0.000000 -0.923880 -0.382672 0.000000 -0.923856 119 28 255
-0.318190 0.555570 -0.768177 -0.318888 0.552751 -0.769890 119 28 255
-0.146447 -0.923880 -0.353553 -0.148412 -0.921690 -0.358348 255 255 255
-0.074658 0.980785 -0.180240 -0.076907 0.979583 -0.185644 255 237 248
-0.180240 0.382683 -0.906127 -0.180395 0.380535 -0.906980 119 28 255
-0.137950 0.707107 -0.693520 -0.138524 0.704031 -0.696493 119 28 255
-0.146447 0.923880 -0.353553 -0.148412 0.921690 -0.358348 200 163 255
-0.074658 0.923880 -0.375330 -0.075655 0.921690 -0.380413 176 122 255
-0.108387 0.831470 -0.544895 -0.109195 0.828639 -0.548997 119 29 255
-0.108387 -0.831470 -0.544895 -0.109195 -0.828639 -0.548997 247 254 255
-0.162212 -0.555570 -0.815493 -0.162572 -0.552751 -0.817316 202 226 255
-0.137950 -0.707107 -0.693520 -0.138524 -0.704031 -0.696493 198 250 255
-0.191342 -0.195090 -0.961939 -0.191382 -0.193915 -0.962157 119 28 255
-0.180240 -0.382683 -0.906127 -0.180395 -0.380535 -0.906980 121 32 255
-0.191342 0.195090 -0.961939 -0.191382 0.193915 -0.962157 119 28 255
-0.195090 0.000000 -0.980785 -0.195074 0.000000 -0.980773 119 28 255
-0.162212 0.555570 -0.815493 -0.162572 0.552751 -0.817316 119 28 255
-0.212608 0.831470 -0.513280 -0.214209 0.828639 -0.517136 121 32 255
-0.074658 -0.923880 -0.375330 -0.075655 -0.921690 -0.380413 255 255 255
-0.038061 -0.980785 -0.191342 -0.039186 -0.979583 -0.197089 255 255 255
-0.038061 0.980785 -0.191342 -0.039186 0.979583 -0.197089 255 237 250
-0.074658 0.923880 -0.375330 -0.075655 0.921690 -0.380413 176 74 165
-0.000000 0.382683 -0.923879 0.000000 0.380535 -0.924741 119 28 255
-0.000000 0.707107 -0.707107 0.000000 0.704031 -0.710135 141 69 255
-0.000000 0.923880 -0.382683 0.000000 0.921690 -0.387860 180 129 255
-0.000000 0.831470 -0.555570 0.000000 0.828639 -0.559771 131 48 255
-0.000000 -0.831470 -0.555570 0.000000 -0.828639 -0.559771 254 255 255
-0.000000 -0.555570 -0.831469 0.000000 -0.552751 -0.833338 216 191 255
-0.000000 -0.707107 -0.707107 0.000000 -0.704031 -0.710135 253 255 255
-0.000000 -0.195090 -0.980785 0.000000 -0.193915 -0.980987 119 28 255
-0.000000 -0.382683 -0.923879 0.000000 -0.380535 -0.924741 120 30 255
-0.000000 0.195090 -0.980785 0.000000 0.193915 -0.980987 119 28 255
-0.000000 0.000000 -1.000000 0.000000 0.000000 -1.000000 119 28 255
-0.000000 0.555570 -0.831469 0.000000 0.552751 -0.833338 119 29 255
-0.000000 -0.923880 -0.382683 0.000000 -0.921690 -0.387860 255 255 255
-0.000000 -0.980785 -0.195090 0.000000 -0.979583 -0.200964 255 255 255
-0.000000 0.980785 -0.195090 0.000000 0.979583 -0.200964 255 237 250
0.180240 0.382683 -0.906127 0.180395 0.380535 -0.906980 118 28 255
0.137949 0.707107 -0.693520 0.138524 0.704031 -0.696493 74 74 255
0.162211 0.555570 -0.815493 0.162572 0.552751 -0.817316 100 25 255
0.074658 0.923880 -0.375330 0.075655 0.921690 -0.380413 204 171 255
0.108386 0.831470 -0.544895 0.109195 0.828639 -0.548997 207 177 255
0.108386 -0.831470 -0.544895 0.109195 -0.828639 -0.548997 255 255 255
0.162211 -0.555570 -0.815493 0.162572 -0.552751 -0.817316 231 214 255
0.137949 -0.707107 -0.693520 0.138524 -0.704031 -0.696493 254 254 255
0.191342 -0.195090 -0.961939 0.191382 -0.193915 -0.962157 119 28 255
0.180240 -0.382683 -0.906127 0.180395 -0.380535 -0.906980 141 64 255
0.191342 0.195090 -0.961939 0.191382 0.193915 -0.962157 119 28 255
0.195090 0.000000 -0.980785 0.195074 0.000000 -0.980773 119 28 255
0.074658 -0.923880 -0.375330 0.075655 -0.921690 -0.380413 255 255 255
0.038060 -0.980785 -0.191342 0.039186 -0.979583 -0.197089 255 255 255
-0.000000 0.980785 -0.195090 0.000000 0.979583 -0.200964 255 238 251
0.038060 0.980785 -0.191342 0.039186 0.979583 -0.197089 254 238 251
0.353553 0.382683 -0.853553 0.353862 0.380535 -0.854366 28 14 255
0.270598 0.707107 -0.653281 0.271737 0.704031 -0.656056 1 11 255
0.146446 0.923880 -0.353553 0.148412 0.921690 -0.358348 230 213 255
0.212607 0.831470 -0.513280 0.214209 0.828639 -0.517136 237 233 255
0.212607 -0.831470 -0.513280 0.214209 -0.828639 -0.517136 255 255 255
0.318189 -0.555570 -0.768177 0.318888 -0.552751 -0.769890 247 242 255
0.270598 -0.707107 -0.653281 0.271737 -0.704031 -0.656056 255 255 255
0.375330 -0.195090 -0.906127 0.375408 -0.193915 -0.906339 151 89 255
0.353553 -0.382683 -0.853553 0.353862 -0.380535 -0.854366 205 173 255
0.375330 0.195090 -0.906127 0.375408 0.193915 -0.906339 44 16 255
0.382683 0.000000 -0.923879 0.382672 0.000000 -0.923856 74 22 255
0.318189 0.555570 -0.768177 0.318888 0.552751 -0.769890 16 12 255
0.146446 -0.923880 -0.353553 0.148412 -0.921690 -0.358348 255 255 255
0.074657 -0.980785 -0.180240 0.076907 -0.979583 -0.185644 255 255 255
0.074658 0.980785 -0.180240 0.076907 0.979583 -0.185644 254 238 251
0.513280 0.382683 -0.768178 0.513749 0.380535 -0.768914 0 10 255
0.392847 0.707107 -0.587938 0.394513 0.704031 -0.590442 0 10 255
0.212607 0.923880 -0.318190 0.215491 0.921690 -0.322489 244 237 255
0.308658 0.831470 -0.461940 0.310984 0.828639 -0.465407 237 237 255
0.308658 -0.831470 -0.461940 0.310984 -0.828639 -0.465407 255 255 255
0.461939 -0.555570 -0.691341 0.462966 -0.552751 -0.692892 252 250 255
0.392847 -0.707107 -0.587938 0.394513 -0.704031 -0.590442 255 255 255
0.544895 -0.195090 -0.815493 0.545000 -0.193915 -0.815668 237 228 255
0.513280 -0.382683 -0.768178 0.513749 -0.380535 -0.768914 244 235 255
0.544895 0.195090 -0.815493 0.545000 0.193915 -0.815668 0 10 255
0.555570 0.000000 -0.831469 0.555559 0.000000 -0.831446 5 13 255
0.461939 0.555570 -0.691341 0.462966 0.552751 -0.692892 0 10 255
0.212607 -0.923880 -0.318189 0.215491 -0.921690 -0.322489 255 255 255
0.108386 -0.980785 -0.162212 0.111637 -0.979583 -0.167089 255 255 255
0.108386 0.980785 -0.162212 0.111637 0.979583 -0.167089 254 238 251
0.653281 0.382683 -0.653281 0.653890 0.380535 -0.653890 0 10 255
0.500000 0.707107 -0.500000 0.502121 0.704031 -0.502121 1 11 255
0.270598 0.923880 -0.270598 0.274270 0.921690 -0.274270 251 248 255
0.392847 0.831470 -0.392847 0.395795 0.828639 -0.395795 250 247 252
0.392847 -0.831470 -0.392847 0.395795 -0.828639 -0.395795 255 255 255
0.587937 -0.555570 -0.587937 0.589251 -0.552751 -0.589251 253 252 255
0.500000 -0.707107 -0.500000 0.502121 -0.704031 -0.502121 255 255 255
0.693519 -0.195090 -0.693519 0.693655 -0.193915 -0.693655 255 255 255
0.653281 -0.382683 -0.653281 0.653890 -0.380535 -0.653890 251 250 255
0.693519 0.195090 -0.693519 0.693655 0.193915 -0.693655 0 10 255
0.707106 0.000000 -0.707106 0.707083 0.000000 -0.707083 70 78 253
0.587937 0.555570 -0.587937 0.589251 0.552751 -0.589251 0 10 255
0.270598 -0.923880 -0.270598 0.274270 -0.921690 -0.274270 255 255 255
0.137949 -0.980785 -0.137950 0.142094 -0.979583 -0.142094 255 255 255
0.137949 0.980785 -0.137950 0.142094 0.979583 -0.142094 254 238 251
0.768177 0.382683 -0.513280 0.768914 0.380535 -0.513749 28 37 255
0.587937 0.707107 -0.392847 0.590442 0.704031 -0.394513 116 29 160
0.318189 0.923880 -0.212607 0.322489 0.921690 -0.215491 253 251 255
0.461939 0.831470 -0.308658 0.465407 0.828639 -0.310984 255 160 157
0.461939 -0.831470 -0.308658 0.465407 -0.828639 -0.310984 255 255 255
0.318189 -0.923880 -0.212607 0.322489 -0.921690 -0.215491 255 255 255
0.587937 -0.555570 -0.587937 0.589251 -0.552751 -0.589251 255 255 255
0.691341 -0.555570 -0.461939 0.692892 -0.552751 -0.462966 255 255 255
0.587937 -0.707107 -0.392847 0.590442 -0.704031 -0.394513 255 255 255
0.815492 -0.195090 -0.544895 0.815668 -0.193915 -0.545000 91 255 79
0.768177 -0.382683 -0.513280 0.768914 -0.380535 -0.513749 248 251 250
0.815492 0.195090 -0.544895 0.815668 0.193915 -0.545000 54 230 65
0.691341 0.555570 -0.461939 0.692892 0.552751 -0.462966 3 12 255
0.162211 -0.980785 -0.108386 0.167089 -0.979583 -0.111637 255 255 255
0.162211 0.980785 -0.108386 0.167089 0.979583 -0.111637 254 238 252
0.653281 -0.382683 -0.653281 0.653890 -0.380535 -0.653890 255 255 255
0.768177 -0.382683 -0.513280 0.768914 -0.380535 -0.513749 251 255 250
0.831469 0.000000 -0.555570 0.831446 0.000000 -0.555559 37 255 19
0.853553 0.382683 -0.353553 0.854366 0.380535 -0.353862 242 241 228
0.653281 0.707107 -0.270598 0.656056 0.704031 -0.271737 254 5 1
0.353553 0.923880 -0.146447 0.358348 0.921690 -0.148412 253 247 250
0.513279 -0.831470 -0.212607 0.517136 -0.828639 -0.214209 255 255 255
0.768177 -0.555570 -0.318189 0.769890 -0.552751 -0.318888 255 255 255
0.653281 -0.707107 -0.270598 0.656056 -0.704031 -0.271737 255 255 255
0.906127 -0.195090 -0.375330 0.906339 -0.193915 -0.375408 37 255 19
0.853553 -0.382683 -0.353553 0.854366 -0.380535 -0.353862 170 255 163
0.906127 0.195090 -0.375330 0.906339 0.193915 -0.375408 37 255 19
0.923879 0.000000 -0.382683 0.923856 0.000000 -0.382672 37 255 19
0.768177 0.555570 -0.318189 0.769890 0.552751 -0.318888 244 24 31
0.513280 0.831470 -0.212607 0.517136 0.828639 -0.214209 255 15 10
0.353553 -0.923880 -0.146446 0.358348 -0.921690 -0.148412 255 255 255
0.180240 -0.980785 -0.074658 0.185644 -0.979583 -0.076907 255 255 255
0.180240 0.980785 -0.074658 0.185644 0.979583 -0.076907 253 238 252
0.906127 0.382683 -0.180240 0.906980 0.380535 -0.180395 159 155 49
0.693520 0.707107 -0.137950 0.696493 0.704031 -0.138524 255 5 0
0.353553 0.923880 -0.146447 0.358348 0.921690 -0.148412 255 250 250
0.375330 0.923880 -0.074658 0.380413 0.921690 -0.075655 255 219 219
0.544895 0.831470 -0.108386 0.548997 0.828639 -0.109195 255 5 0
0.544895 -0.831470 -0.108386 0.548997 -0.828639 -0.109195 255 255 255
0.815492 -0.555570 -0.162211 0.817316 -0.552751 -0.162572 247 255 246
0.693520 -0.707107 -0.137950 0.696493 -0.704031 -0.138524 255 255 255
0.961939 -0.195090 -0.191341 0.962157 -0.193915 -0.191382 37 255 19
0.906127 -0.382683 -0.180240 0.906980 -0.380535 -0.180395 65 255 50
0.961939 0.195090 -0.191341 0.962157 0.193915 -0.191382 37 255 19
0.980785 0.000000 -0.195090 0.980773 0.000000 -0.195074 37 255 19
0.815492 0.555570 -0.162211 0.817316 0.552751 -0.162572 255 5 0
0.375330 -0.923880 -0.074658 0.380413 -0.921690 -0.075655 255 255 255
0.191341 -0.980785 -0.038060 0.197089 -0.979583 -0.039186 255 255 255
0.191342 0.980785 -0.038060 0.197089 0.979583 -0.039186 253 239 252
0.375330 0.923880 -0.074658 0.380413 0.921690 -0.075655 253 216 220
0.195090 0.980785 0.000000 0.200964 0.979583 0.000000 253 239 252
-0.000000 1.000000 -0.000000 0.000000 1.000000 0.000000 255 238 251
0.191342 0.980785 0.038060 0.197089 0.979583 0.039186 252 239 252
-0.000000 -1.000000 0.000000 0.000000 -1.000000 0.000000 255 255 255
0.195090 -0.980785 0.000000 0.200964 -0.979583 0.000000 255 255 255
0.191342 0.980785 0.038060 0.197089 0.979583 0.039186 252 237 235
0.180240 0.980785 0.074658 0.185644 0.979583 0.076876 252 235 226
0.162212 0.980785 0.108387 0.167089 0.979583 0.111637 255 245 253
0.137950 0.980785 0.137950 0.142094 0.979583 0.142094 255 246 253
-0.074658 -0.980785 0.180240 -0.076907 -0.979583 0.185644 255 255 255
-0.162212 -0.980785 -0.108386 -0.167089 -0.979583 -0.111637 255 255 255
-0.074658 -0.980785 -0.180240 -0.076907 -0.979583 -0.185644 255 255 255
-0.038061 0.980785 -0.191342 -0.039186 0.979583 -0.197089 255 238 251
0.038060 0.980785 -0.191342 0.039186 0.979583 -0.197089 254 237 250
0.108386 0.980785 -0.162212 0.111637 0.979583 -0.167089 254 237 250
0.137949 0.980785 -0.137950 0.142094 0.979583 -0.142094 254 237 251
0.162211 0.980785 -0.108386 0.167089 0.979583 -0.111637 254 238 251
0.180240 0.980785 -0.074658 0.185644 0.979583 -0.076907 253 238 249
0.191342 0.980785 -0.038060 0.197089 0.979583 -0.039186 253 238 247
0.195090 0.980785 0.000000 0.200964 0.979583 0.000000 253 237 242
0.961939 -0.195090 -0.191341 0.962157 -0.193915 -0.191382 58 236 40
0.980785 0.000000 -0.195090 0.980773 0.000000 -0.195074 42 250 24
0.191342 0.980785 -0.038060 0.197089 0.979583 -0.039186 255 241 252
0.906127 -0.382683 -0.180240 0.906980 -0.380535 -0.180395 69 251 54
0.653281 -0.707107 0.270598 0.656056 -0.704031 0.271737 193 255 187
0.353553 0.923880 0.146447 0.358348 0.921690 0.148412 255 173 67
0.691342 -0.555570 0.461940 0.692892 -0.552751 0.462966 219 255 216
-0.691342 -0.555570 0.461940 -0.692892 -0.552751 0.462966 255 255 255
-0.000000 0.923880 -0.382683 0.000000 0.921690 -0.387860 180 78 162
3 0 1 2
3 3 4 5
3 6 7 8
3 9 10 11
3 12 13 14
3 15 16 17
3 18 19 20
3 21 22 23
3 1 24 5
3 25 8 4
3 26 11 7
3 27 14 10
3 12 18 28
3 21 29 16
3 7 11 30
3 14 31 32
3 28 33 34
3 16 29 35
3 36 2 37
3 4 38 39
3 7 40 41
3 10 32 30
3 13 34 31
3 16 42 43
3 28 20 44
3 29 23 45
3 2 5 39
3 4 8 41
3 40 30 46
3 31 47 48
3 34 33 49
3 35 50 51
3 52 53 54
3 38 55 56
3 41 40 57
3 32 48 46
3 31 34 58
3 42 51 59
3 60 61 62
3 45 54 50
3 37 39 56
3 41 63 55
3 57 46 64
3 47 65 66
3 49 67 68
3 50 69 70
3 54 53 71
3 72 73 74
3 63 57 75
3 48 66 64
3 58 68 65
3 51 70 76
3 61 77 78
3 50 54 79
3 53 80 74
3 63 81 82
3 75 64 83
3 66 65 84
3 78 85 86
3 69 87 88
3 71 89 90
3 73 91 92
3 81 75 93
3 66 94 83
3 95 86 84
3 70 88 96
3 77 97 85
3 69 79 90
3 71 74 92
3 81 98 91
3 93 83 99
3 94 84 100
3 85 101 102
3 87 103 104
3 89 105 106
3 91 107 108
3 93 109 110
3 111 112 99
3 86 102 100
3 96 88 104
3 97 113 101
3 87 90 106
3 89 92 108
3 91 98 110
3 109 99 114
3 112 115 116
3 101 117 118
3 103 119 120
3 105 121 122
3 107 123 124
3 109 125 126
3 112 127 114
3 102 118 116
3 128 104 120
3 113 129 117
3 103 106 122
3 105 108 124
3 107 110 126
3 125 114 130
3 116 131 132
3 117 133 134
3 120 119 135
3 121 136 137
3 123 138 139
3 125 140 141
3 127 132 130
3 142 143 131
3 144 120 145
3 129 146 133
3 119 122 137
3 121 124 139
3 123 126 141
3 140 130 147
3 131 148 149
3 133 150 151
3 135 152 153
3 136 154 155
3 138 156 157
3 140 158 159
3 132 149 147
3 143 151 148
3 160 145 153
3 146 161 150
3 135 137 155
3 136 139 157
3 138 141 159
3 158 147 162
3 149 148 163
3 150 164 165
3 153 152 166
3 154 167 168
3 156 169 170
3 158 171 172
3 149 173 162
3 151 165 163
3 174 153 175
3 161 176 164
3 152 155 168
3 154 157 170
3 156 159 172
3 171 162 177
3 173 163 178
3 164 179 180
3 166 181 182
3 167 183 184
3 169 185 186
3 171 187 188
3 173 189 177
3 165 180 178
3 175 182 190
3 176 191 179
3 166 168 184
3 167 170 186
3 169 172 188
3 187 177 192
3 189 178 193
3 179 194 195
3 182 181 196
3 183 197 198
3 185 199 200
3 188 187 201
3 189 202 192
3 180 195 193
3 190 182 203
3 191 204 194
3 181 184 198
3 183 186 200
3 188 205 199
3 201 192 206
3 202 193 207
3 194 208 209
3 203 196 210
3 211 212 213
3 199 214 215
3 205 201 216
3 202 217 206
3 195 209 207
3 218 203 219
3 204 220 208
3 196 198 213
3 197 200 215
3 205 221 214
3 216 206 222
3 207 223 224
3 209 208 225
3 219 210 226
3 213 212 227
3 228 229 230
3 231 216 232
3 217 224 222
3 209 233 223
3 234 219 235
3 220 236 225
3 210 213 237
3 212 238 230
3 231 239 229
3 232 222 240
3 223 241 242
3 233 225 243
3 226 244 245
3 227 246 247
3 229 248 249
3 239 232 250
3 224 242 240
3 223 233 251
3 252 235 245
3 236 253 243
3 237 247 244
3 227 230 249
3 239 254 248
3 250 240 255
3 241 256 257
3 243 258 259
3 245 244 260
3 246 261 262
3 248 263 264
3 254 250 265
3 242 257 255
3 241 251 259
3 266 245 267
3 253 268 258
3 244 247 262
3 246 249 264
3 254 269 263
3 265 255 270
3 257 256 271
3 258 272 273
3 267 260 274
3 261 275 276
3 263 277 278
3 269 265 279
3 257 280 270
3 256 259 273
3 281 267 282
3 268 283 272
3 262 276 274
3 261 264 278
3 269 284 277
3 279 270 285
3 280 271 286
3 272 287 288
3 282 274 289
3 275 290 291
3 277 292 293
3 284 279 294
3 280 295 285
3 271 273 288
3 296 282 297
3 283 298 287
3 276 291 289
3 275 278 293
3 284 299 292
3 294 285 300
3 295 286 301
3 287 302 303
3 297 289 304
3 290 305 306
3 292 307 308
3 299 294 309
3 295 310 300
3 286 288 303
3 311 297 312
3 298 313 302
3 289 291 306
3 290 293 308
3 299 314 307
3 309 300 315
3 310 301 316
3 302 317 318
3 312 304 319
3 305 320 321
3 322 323 324
3 314 309 325
3 310 326 315
3 301 303 318
3 312 327 328
3 313 329 317
3 304 306 321
3 305 308 324
3 314 330 331
3 332 333 334
3 326 316 335
3 317 336 337
3 327 319 338
3 320 339 340
3 323 341 342
3 343 332 344
3 326 345 334
3 316 318 337
3 327 346 347
3 329 348 336
3 319 321 340
3 320 324 342
3 343 349 341
3 344 334 350
3 345 335 351
3 336 352 353
3 346 338 354
3 339 355 356
3 341 357 358
3 344 359 360
3 345 361 350
3 335 337 353
3 347 346 362
3 348 363 352
3 338 340 356
3 339 342 358
3 341 349 360
3 359 350 364
3 361 351 365
3 366 367 368
3 362 354 369
3 355 370 371
3 357 372 373
3 359 374 375
3 361 376 364
3 351 377 368
3 362 378 379
3 363 380 381
3 356 371 369
3 355 358 373
3 357 360 375
3 374 364 382
3 376 365 383
3 367 384 385
3 378 369 386
3 370 387 388
3 372 389 390
3 374 391 392
3 376 393 382
3 365 368 385
3 378 394 395
3 381 380 396
3 371 388 386
3 370 373 390
3 372 375 392
3 391 382 397
3 383 398 399
3 384 400 401
3 394 386 402
3 387 403 404
3 389 405 406
3 391 407 408
3 393 399 397
3 383 385 401
3 394 409 410
3 384 411 412
3 388 404 402
3 387 390 406
3 389 392 408
3 407 397 413
3 399 398 414
3 400 415 416
3 409 402 417
3 403 418 419
3 405 420 421
3 407 422 423
3 399 424 413
3 398 401 416
3 409 425 426
3 400 412 427
3 404 419 417
3 403 406 421
3 405 408 423
3 422 413 428
3 424 414 429
3 415 430 431
3 425 417 432
3 418 433 434
3 420 435 436
3 422 437 438
3 424 439 428
3 414 416 431
3 425 440 441
3 415 427 442
3 419 434 432
3 418 421 436
3 420 423 438
3 437 428 443
3 439 429 444
3 430 445 446
3 440 432 447
3 433 448 449
3 435 450 451
3 437 452 453
3 439 454 443
3 429 431 446
3 440 455 456
3 442 457 445
3 434 449 447
3 433 436 451
3 438 453 450
3 452 443 458
3 454 444 459
3 445 460 461
3 447 462 463
3 464 465 466
3 450 467 468
3 453 452 469
3 454 470 458
3 446 461 459
3 455 463 471
3 457 472 460
3 447 449 466
3 464 473 474
3 453 475 467
3 469 458 476
3 470 459 477
3 461 460 478
3 463 462 479
3 465 480 481
3 467 482 483
3 469 484 485
3 470 486 476
3 459 461 487
3 463 488 489
3 460 472 490
3 466 481 479
3 465 474 483
3 467 475 485
3 484 476 491
3 486 477 492
3 493 494 495
3 488 479 496
3 480 497 498
3 482 499 500
3 484 501 502
3 486 503 491
3 487 495 492
3 488 504 505
3 490 506 507
3 479 481 498
3 480 483 500
3 482 485 502
3 508 509 510
3 511 512 17
3 511 17 43
3 513 509 514
3 511 43 59
3 60 509 61
3 511 59 76
3 515 509 516
3 511 76 96
3 77 509 97
3 511 96 128
3 97 509 113
3 511 128 144
3 113 509 129
3 511 144 160
3 129 509 146
3 511 160 174
3 146 509 161
3 511 174 517
3 161 509 176
3 511 517 190
3 176 509 191
3 511 190 218
3 191 509 204
3 511 218 234
3 204 509 220
3 511 234 252
3 220 509 236
3 511 252 266
3 236 509 253
3 511 266 281
3 253 509 268
3 511 281 296
3 268 509 283
3 511 296 311
3 283 509 298
3 511 311 518
3 298 509 313
3 511 518 328
3 313 509 329
3 511 328 347
3 329 509 348
3 511 347 519
3 348 509 363
3 511 519 379
3 363 509 380
3 511 379 395
3 520 509 411
3 511 395 410
3 396 509 521
3 511 410 426
3 412 509 427
3 511 426 441
3 427 509 442
3 511 441 456
3 522 509 523
3 511 456 471
3 523 509 524
3 511 471 489
3 524 509 525
3 511 489 505
3 525 509 526
3 501 491 26
3 503 492 27
3 511 505 512
3 495 494 18
3 496 21 15
3 526 509 527
3 497 1 0
3 528 3 24
3 529 501 6
3 491 503 9
3 492 495 12
3 504 15 512
3 494 530 19
3 498 0 21
3 531 24 1
3 529 25 3
3 36 0 2
3 24 3 5
3 25 6 8
3 26 9 11
3 27 12 14
3 512 15 17
3 28 18 20
3 29 21 23
3 2 1 5
3 3 25 4
3 6 26 7
3 9 27 10
3 13 12 28
3 15 21 16
3 40 7 30
3 10 14 32
3 13 28 34
3 42 16 35
3 532 36 37
3 5 4 39
3 8 7 41
3 11 10 30
3 14 13 31
3 17 16 43
3 33 28 44
3 35 29 45
3 37 2 39
3 38 4 41
3 57 40 46
3 32 31 48
3 58 34 49
3 42 35 51
3 45 52 54
3 39 38 56
3 63 41 57
3 30 32 46
3 47 31 58
3 43 42 59
3 533 60 62
3 35 45 50
3 534 37 56
3 38 41 55
3 75 57 64
3 48 47 66
3 58 49 68
3 51 50 70
3 79 54 71
3 80 72 74
3 81 63 75
3 46 48 64
3 47 58 65
3 59 51 76
3 62 61 78
3 69 50 79
3 71 53 74
3 55 63 82
3 93 75 83
3 94 66 84
3 95 78 86
3 70 69 88
3 79 71 90
3 74 73 92
3 98 81 93
3 64 66 83
3 65 95 84
3 76 70 96
3 78 77 85
3 87 69 90
3 89 71 92
3 73 81 91
3 109 93 99
3 112 94 100
3 86 85 102
3 88 87 104
3 90 89 106
3 92 91 108
3 98 93 110
3 83 111 99
3 84 86 100
3 128 96 104
3 85 97 101
3 103 87 106
3 105 89 108
3 107 91 110
3 125 109 114
3 127 112 116
3 102 101 118
3 104 103 120
3 106 105 122
3 108 107 124
3 110 109 126
3 99 112 114
3 100 102 116
3 144 128 120
3 101 113 117
3 119 103 122
3 121 105 124
3 123 107 126
3 140 125 130
3 127 116 132
3 118 117 134
3 145 120 135
3 122 121 137
3 124 123 139
3 126 125 141
3 114 127 130
3 116 142 131
3 160 144 145
3 117 129 133
3 135 119 137
3 136 121 139
3 138 123 141
3 158 140 147
3 132 131 149
3 143 133 151
3 145 135 153
3 137 136 155
3 139 138 157
3 141 140 159
3 130 132 147
3 131 143 148
3 174 160 153
3 133 146 150
3 152 135 155
3 154 136 157
3 156 138 159
3 171 158 162
3 173 149 163
3 151 150 165
3 175 153 166
3 155 154 168
3 157 156 170
3 159 158 172
3 147 149 162
3 148 151 163
3 517 174 175
3 150 161 164
3 166 152 168
3 167 154 170
3 169 156 172
3 187 171 177
3 189 173 178
3 165 164 180
3 175 166 182
3 168 167 184
3 170 169 186
3 172 171 188
3 162 173 177
3 163 165 178
3 517 175 190
3 164 176 179
3 181 166 184
3 183 167 186
3 185 169 188
3 201 187 192
3 202 189 193
3 180 179 195
3 203 182 196
3 184 183 198
3 186 185 200
3 205 188 201
3 177 189 192
3 178 180 193
3 218 190 203
3 179 191 194
3 196 181 198
3 197 183 200
3 185 188 199
3 216 201 206
3 217 202 207
3 195 194 209
3 219 203 210
3 198 211 213
3 200 199 215
3 221 205 216
3 192 202 206
3 193 195 207
3 234 218 219
3 194 204 208
3 210 196 213
3 535 197 215
3 199 205 214
3 232 216 222
3 217 207 224
3 233 209 225
3 235 219 226
3 237 213 227
3 238 228 230
3 239 231 232
3 206 217 222
3 207 209 223
3 252 234 235
3 208 220 225
3 226 210 237
3 227 212 230
3 228 231 229
3 250 232 240
3 224 223 242
3 251 233 243
3 235 226 245
3 237 227 247
3 230 229 249
3 254 239 250
3 222 224 240
3 241 223 251
3 266 252 245
3 225 236 243
3 226 237 244
3 246 227 249
3 229 239 248
3 265 250 255
3 242 241 257
3 251 243 259
3 267 245 260
3 247 246 262
3 249 248 264
3 269 254 265
3 240 242 255
3 256 241 259
3 281 266 267
3 243 253 258
3 260 244 262
3 261 246 264
3 248 254 263
3 279 265 270
3 280 257 271
3 259 258 273
3 282 267 274
3 262 261 276
3 264 263 278
3 284 269 279
3 255 257 270
3 271 256 273
3 296 281 282
3 258 268 272
3 260 262 274
3 275 261 278
3 263 269 277
3 294 279 285
3 295 280 286
3 273 272 288
3 297 282 289
3 276 275 291
3 278 277 293
3 299 284 294
3 270 280 285
3 286 271 288
3 311 296 297
3 272 283 287
3 274 276 289
3 290 275 293
3 277 284 292
3 309 294 300
3 310 295 301
3 288 287 303
3 312 297 304
3 291 290 306
3 293 292 308
3 314 299 309
3 285 295 300
3 301 286 303
3 518 311 312
3 287 298 302
3 304 289 306
3 305 290 308
3 292 299 307
3 325 309 315
3 326 310 316
3 303 302 318
3 327 312 319
3 306 305 321
3 308 322 324
3 330 314 325
3 300 310 315
3 316 301 318
3 518 312 328
3 302 313 317
3 319 304 321
3 320 305 324
3 307 314 331
3 344 332 334
3 345 326 335
3 318 317 337
3 346 327 338
3 321 320 340
3 324 323 342
3 349 343 344
3 315 326 334
3 335 316 337
3 328 327 347
3 317 329 336
3 338 319 340
3 339 320 342
3 323 343 341
3 359 344 350
3 361 345 351
3 337 336 353
3 362 346 354
3 340 339 356
3 342 341 358
3 349 344 360
3 334 345 350
3 351 335 353
3 519 347 362
3 336 348 352
3 354 338 356
3 355 339 358
3 357 341 360
3 374 359 364
3 376 361 365
3 377 366 368
3 378 362 369
3 356 355 371
3 358 357 373
3 360 359 375
3 350 361 364
3 365 351 368
3 519 362 379
3 352 363 381
3 354 356 369
3 370 355 373
3 372 357 375
3 391 374 382
3 393 376 383
3 368 367 385
3 394 378 386
3 371 370 388
3 373 372 390
3 375 374 392
3 364 376 382
3 383 365 385
3 379 378 395
3 536 381 396
3 369 371 386
3 387 370 390
3 389 372 392
3 407 391 397
3 393 383 399
3 385 384 401
3 409 394 402
3 388 387 404
3 390 389 406
3 392 391 408
3 382 393 397
3 398 383 401
3 395 394 410
3 400 384 412
3 386 388 402
3 403 387 406
3 405 389 408
3 422 407 413
3 424 399 414
3 401 400 416
3 425 409 417
3 404 403 419
3 406 405 421
3 408 407 423
3 397 399 413
3 414 398 416
3 410 409 426
3 415 400 427
3 402 404 417
3 418 403 421
3 420 405 423
3 437 422 428
3 439 424 429
3 416 415 431
3 440 425 432
3 419 418 434
3 421 420 436
3 423 422 438
3 413 424 428
3 429 414 431
3 426 425 441
3 430 415 442
3 417 419 432
3 433 418 436
3 435 420 438
3 452 437 443
3 454 439 444
3 431 430 446
3 455 440 447
3 434 433 449
3 436 435 451
3 438 437 453
3 428 439 443
3 444 429 446
3 441 440 456
3 430 442 445
3 432 434 447
3 448 433 451
3 435 438 450
3 469 452 458
3 470 454 459
3 446 445 461
3 455 447 463
3 449 464 466
3 451 450 468
3 475 453 469
3 443 454 458
3 444 446 459
3 456 455 471
3 445 457 460
3 462 447 466
3 465 464 474
3 450 453 467
3 484 469 476
3 486 470 477
3 487 461 478
3 488 463 479
3 466 465 481
3 474 467 483
3 475 469 485
3 458 470 476
3 477 459 487
3 471 463 489
3 478 460 490
3 462 466 479
3 480 465 483
3 482 467 485
3 501 484 491
3 503 486 492
3 487 493 495
3 504 488 496
3 481 480 498
3 483 482 500
3 485 484 502
3 476 486 491
3 477 487 492
3 489 488 505
3 478 490 507
3 496 479 498
3 497 480 500
3 499 482 502
3 6 501 26
3 9 503 27
3 12 495 18
3 504 496 15
3 498 497 0
3 531 528 24
3 25 529 6
3 26 491 9
3 27 492 12
3 505 504 512
3 18 494 19
3 496 498 21
3 497 531 1
3 528 529 3
