ply
format ascii 1.0
comment Created by Blender 2.74 (sub 0) - www.blender.org, source file: ''
element vertex 483
property float x
property float y
property float z
property float nx
property float ny
property float nz
property uchar red
property uchar green
property uchar blue
element face 960
property list uchar uint vertex_indices
end_header
0.239714 -0.239714 0.000000 0.710135 -0.704031 0.000000 255 255 255
0.281874 -0.188342 0.000000 0.833338 -0.552751 0.000000 255 255 255
0.276458 -0.188342 0.054991 0.817316 -0.552751 0.162572 255 255 255
0.332493 -0.066137 0.000000 0.980987 -0.193915 0.000000 255 255 255
0.326104 -0.066137 0.064866 0.962157 -0.193915 0.191382 255 255 255
0.307183 -0.129732 0.061103 0.906980 -0.380535 0.180395 255 255 255
0.332493 0.066137 0.000000 0.980987 0.193915 0.000000 255 255 255
0.326104 0.066137 0.064866 0.962157 0.193915 0.191382 255 255 255
0.332493 0.000000 0.066137 0.980773 0.000000 0.195074 255 255 255
0.281874 0.188342 0.000000 0.833338 0.552751 0.000000 255 255 255
0.276458 0.188342 0.054991 0.817316 0.552751 0.162572 255 255 255
0.307183 0.129732 0.061103 0.906980 0.380535 0.180395 255 255 255
0.188342 0.281874 0.000000 0.559771 0.828639 0.000000 255 255 255
0.184723 0.281874 0.036744 0.548997 0.828639 0.109195 255 255 255
0.235108 0.239714 0.046766 0.696493 0.704031 0.138524 255 255 255
0.129732 -0.313201 0.000000 0.387860 -0.921690 0.000000 255 255 255
0.127239 -0.313201 0.025310 0.380413 -0.921690 0.075655 255 255 255
0.064866 -0.332493 0.012903 0.197089 -0.979583 0.039186 255 255 255
0.129732 0.313201 0.000000 0.387860 0.921690 0.000000 255 255 255
0.066137 0.332493 0.000000 0.200964 0.979583 0.000000 255 255 255
0.064866 0.332493 0.012903 0.197089 0.979583 0.039186 255 255 255
0.188342 -0.281874 0.000000 0.559771 -0.828639 0.000000 255 255 255
0.235108 -0.239714 0.046766 0.696493 -0.704031 0.138524 255 255 255
0.313201 -0.129732 0.000000 0.924741 -0.380535 0.000000 255 255 255
0.339007 0.000000 0.000000 1.000000 0.000000 0.000000 255 255 255
0.313201 0.129732 0.000000 0.924741 0.380535 0.000000 255 255 255
0.239714 0.239714 0.000000 0.710135 0.704031 0.000000 255 255 255
0.127240 0.313201 0.025310 0.380413 0.921690 0.075655 255 255 255
0.184723 -0.281874 0.036744 0.548997 -0.828639 0.109195 255 255 255
0.289360 0.129732 0.119857 0.854366 0.380535 0.353862 255 255 255
0.221467 0.239714 0.091735 0.656056 0.704031 0.271737 255 255 255
0.260417 0.188342 0.107868 0.769890 0.552751 0.318888 255 255 255
0.119857 0.313201 0.049646 0.358348 0.921690 0.148412 255 255 255
0.174005 0.281874 0.072075 0.517136 0.828639 0.214209 255 255 255
0.174005 -0.281874 0.072075 0.517136 -0.828639 0.214209 255 255 255
0.260417 -0.188342 0.107868 0.769890 -0.552751 0.318888 255 255 255
0.307183 -0.066137 0.127240 0.906339 -0.193915 0.375408 255 255 255
0.289360 -0.129732 0.119857 0.854366 -0.380535 0.353893 255 255 255
0.307183 0.066137 0.127240 0.906339 0.193915 0.375408 255 255 255
0.313201 0.000000 0.129732 0.923856 0.000000 0.382672 255 255 255
0.119857 -0.313201 0.049646 0.358348 -0.921690 0.148412 255 255 255
0.061102 -0.332493 0.025310 0.185644 -0.979583 0.076876 255 255 255
0.061103 0.332493 0.025310 0.185644 0.979583 0.076907 255 255 255
0.221467 -0.239714 0.091735 0.656056 -0.704031 0.271737 255 255 255
0.260417 0.129732 0.174005 0.768914 0.380535 0.513749 255 255 255
0.199315 0.239714 0.133178 0.590442 0.704031 0.394513 255 255 255
0.234370 0.188342 0.156601 0.692892 0.552751 0.462966 255 255 255
0.107868 0.313201 0.072075 0.322489 0.921690 0.215491 255 255 255
0.156601 -0.281874 0.104637 0.465407 -0.828639 0.310984 255 255 255
0.107868 -0.313201 0.072075 0.322489 -0.921690 0.215491 255 255 255
0.234370 -0.188342 0.156601 0.692892 -0.552751 0.462966 255 255 255
0.199315 -0.239714 0.133178 0.590442 -0.704031 0.394513 255 255 255
0.276458 -0.066137 0.184723 0.815668 -0.193915 0.545000 255 255 255
0.260417 -0.129732 0.174005 0.768914 -0.380535 0.513749 255 255 255
0.276458 0.066137 0.184723 0.815668 0.193915 0.545000 255 255 255
0.156601 0.281874 0.104637 0.465407 0.828639 0.310984 255 255 255
0.054991 -0.332493 0.036744 0.167089 -0.979583 0.111637 255 255 255
0.054991 0.332493 0.036744 0.167089 0.979583 0.111637 255 255 255
0.281874 0.000000 0.188342 0.831446 0.000000 0.555559 255 255 255
0.221467 0.129732 0.221467 0.653890 0.380535 0.653890 255 255 255
0.169503 0.239714 0.169503 0.502121 0.704031 0.502121 255 255 255
0.199315 0.188342 0.199315 0.589251 0.552751 0.589251 255 255 255
0.091735 0.313201 0.091735 0.274270 0.921690 0.274270 255 255 255
0.133178 0.281874 0.133178 0.395795 0.828639 0.395795 255 255 255
0.133178 -0.281874 0.133178 0.395795 -0.828639 0.395795 255 255 255
0.091735 -0.313201 0.091735 0.274270 -0.921690 0.274270 255 255 255
0.199315 -0.188342 0.199315 0.589251 -0.552751 0.589251 255 255 255
0.235108 -0.066137 0.235108 0.693655 -0.193915 0.693655 255 255 255
0.221467 -0.129732 0.221467 0.653890 -0.380535 0.653890 255 255 255
0.235108 0.066137 0.235108 0.693655 0.193915 0.693655 255 255 255
0.046766 -0.332493 0.046766 0.142094 -0.979583 0.142094 255 255 255
0.046766 0.332493 0.046766 0.142094 0.979583 0.142094 255 255 255
0.169503 -0.239714 0.169503 0.502121 -0.704031 0.502121 255 255 255
0.239714 0.000000 0.239714 0.707083 0.000000 0.707083 255 255 255
0.174005 0.129732 0.260418 0.513749 0.380535 0.768914 255 255 255
0.133178 0.239714 0.199315 0.394513 0.704031 0.590442 255 255 255
0.072075 0.313201 0.107869 0.215491 0.921690 0.322489 255 255 255
0.104637 0.281874 0.156601 0.310984 0.828639 0.465407 255 255 255
0.104637 -0.281874 0.156601 0.310984 -0.828639 0.465407 255 255 255
0.072075 -0.313201 0.107869 0.215491 -0.921690 0.322489 255 255 255
0.156601 -0.188342 0.234370 0.462966 -0.552751 0.692892 255 255 255
0.133178 -0.239714 0.199315 0.394513 -0.704031 0.590442 255 255 255
0.184723 -0.066137 0.276458 0.545000 -0.193915 0.815668 255 255 255
0.174005 -0.129732 0.260418 0.513749 -0.380535 0.768914 255 255 255
0.184723 0.066137 0.276458 0.545000 0.193915 0.815668 255 255 255
0.156601 0.188342 0.234370 0.462966 0.552751 0.692892 255 255 255
0.036744 -0.332493 0.054991 0.111637 -0.979583 0.167089 255 255 255
0.036744 0.332493 0.054991 0.111637 0.979583 0.167089 255 255 255
0.188342 0.000000 0.281874 0.555559 0.000000 0.831446 255 255 255
0.119857 0.129732 0.289360 0.353893 0.380535 0.854366 255 255 255
0.091734 0.239714 0.221467 0.271737 0.704031 0.656056 255 255 255
0.049646 0.313201 0.119857 0.148412 0.921690 0.358348 255 255 255
0.072075 0.281874 0.174005 0.214209 0.828639 0.517136 255 255 255
0.072075 -0.281874 0.174005 0.214209 -0.828639 0.517136 255 255 255
0.049646 -0.313201 0.119857 0.148412 -0.921690 0.358348 255 255 255
0.107868 -0.188342 0.260418 0.318888 -0.552751 0.769890 255 255 255
0.091734 -0.239714 0.221467 0.271737 -0.704031 0.656056 255 255 255
0.127239 -0.066137 0.307183 0.375408 -0.193915 0.906339 255 255 255
0.119857 -0.129732 0.289360 0.353862 -0.380535 0.854366 255 255 255
0.127239 0.066137 0.307183 0.375408 0.193915 0.906339 255 255 255
0.129732 0.000000 0.313201 0.382672 0.000000 0.923856 255 255 255
0.107868 0.188342 0.260418 0.318888 0.552751 0.769890 255 255 255
0.025309 0.332493 0.061103 0.076907 0.979583 0.185644 255 255 255
0.061102 0.129732 0.307183 0.180395 0.380535 0.906980 255 255 255
0.046766 0.239714 0.235108 0.138524 0.704031 0.696493 255 255 255
0.025309 0.313201 0.127240 0.075655 0.921690 0.380413 255 255 255
0.036744 0.281874 0.184723 0.109195 0.828639 0.548997 255 255 255
0.036744 -0.281874 0.184723 0.109195 -0.828639 0.548997 255 255 255
0.025309 -0.313201 0.127240 0.075655 -0.921690 0.380413 255 255 255
0.054991 -0.188342 0.276458 0.162572 -0.552751 0.817316 255 255 255
0.046766 -0.239714 0.235108 0.138524 -0.704031 0.696493 255 255 255
0.064866 -0.066137 0.326104 0.191382 -0.193915 0.962157 255 255 255
0.061103 -0.129732 0.307183 0.180395 -0.380535 0.906980 255 255 255
0.064866 0.066137 0.326104 0.191382 0.193915 0.962157 255 255 255
0.066137 0.000000 0.332493 0.195074 0.000000 0.980773 255 255 255
0.054991 0.188342 0.276458 0.162572 0.552751 0.817316 255 255 255
0.025309 -0.332493 0.061103 0.076907 -0.979583 0.185644 255 255 255
0.012903 0.332493 0.064866 0.039186 0.979583 0.197089 255 255 255
-0.000000 0.129732 0.313201 0.000000 0.380535 0.924741 255 255 255
-0.000000 0.239714 0.239714 0.000000 0.704031 0.710135 255 255 255
-0.000000 0.188342 0.281874 0.000000 0.552751 0.833338 255 255 255
-0.000000 0.313201 0.129732 0.000000 0.921690 0.387860 255 255 255
-0.000000 0.281874 0.188342 0.000000 0.828639 0.559771 255 255 255
-0.000000 -0.281874 0.188342 0.000000 -0.828639 0.559771 255 255 255
-0.000000 -0.188342 0.281874 0.000000 -0.552751 0.833338 255 255 255
-0.000000 -0.239714 0.239714 0.000000 -0.704031 0.710135 255 255 255
-0.000000 -0.066137 0.332493 0.000000 -0.193915 0.980987 255 255 255
-0.000000 -0.129732 0.313201 0.000000 -0.380535 0.924741 255 255 255
-0.000000 0.066137 0.332493 0.000000 0.193915 0.980987 255 255 255
-0.000000 0.000000 0.339007 0.000000 0.000000 1.000000 255 255 255
0.012903 -0.332493 0.064866 0.039186 -0.979583 0.197089 255 255 255
-0.000000 -0.313201 0.129732 0.000000 -0.921690 0.387860 255 255 255
-0.000000 0.332493 0.066137 0.000000 0.979583 0.200964 255 255 255
-0.061103 0.129732 0.307183 -0.180395 0.380535 0.906980 255 255 255
-0.046766 0.239714 0.235108 -0.138524 0.704031 0.696493 255 255 255
-0.054991 0.188342 0.276458 -0.162572 0.552751 0.817316 255 255 255
-0.025310 0.313201 0.127240 -0.075655 0.921690 0.380413 255 255 255
-0.036744 0.281874 0.184723 -0.109195 0.828639 0.548997 255 255 255
-0.036744 -0.281874 0.184723 -0.109195 -0.828639 0.548997 255 255 255
-0.025310 -0.313201 0.127240 -0.075655 -0.921690 0.380413 255 255 255
-0.054991 -0.188342 0.276458 -0.162572 -0.552751 0.817316 255 255 255
-0.046766 -0.239714 0.235108 -0.138524 -0.704031 0.696493 255 255 255
-0.064866 -0.066137 0.326104 -0.191382 -0.193915 0.962157 255 255 255
-0.061103 -0.129732 0.307183 -0.180395 -0.380535 0.906980 255 255 255
-0.064866 0.066137 0.326104 -0.191382 0.193915 0.962157 255 255 255
-0.066137 0.000000 0.332493 -0.195074 0.000000 0.980773 255 255 255
-0.000000 -0.332493 0.066137 0.000000 -0.979583 0.200964 255 255 255
-0.012903 0.332493 0.064866 -0.039186 0.979583 0.197089 255 255 255
-0.119857 0.129732 0.289360 -0.353862 0.380535 0.854366 255 255 255
-0.091735 0.239714 0.221467 -0.271737 0.704031 0.656056 255 255 255
-0.049647 0.313201 0.119857 -0.148412 0.921690 0.358348 255 255 255
-0.072076 0.281874 0.174005 -0.214209 0.828639 0.517136 255 255 255
-0.072076 -0.281874 0.174005 -0.214209 -0.828639 0.517136 255 255 255
-0.107869 -0.188342 0.260417 -0.318888 -0.552751 0.769890 255 255 255
-0.091735 -0.239714 0.221467 -0.271737 -0.704031 0.656056 255 255 255
-0.127240 -0.066137 0.307183 -0.375408 -0.193915 0.906339 255 255 255
-0.119857 -0.129732 0.289360 -0.353862 -0.380535 0.854366 255 255 255
-0.127240 0.066137 0.307183 -0.375408 0.193915 0.906339 255 255 255
-0.129732 0.000000 0.313201 -0.382672 0.000000 0.923856 255 255 255
-0.107869 0.188342 0.260417 -0.318888 0.552751 0.769890 255 255 255
-0.012903 -0.332493 0.064866 -0.039186 -0.979583 0.197089 255 255 255
-0.049647 -0.313201 0.119857 -0.148412 -0.921690 0.358348 255 255 255
-0.025310 0.332493 0.061103 -0.076907 0.979583 0.185644 255 255 255
-0.174005 0.129732 0.260418 -0.513749 0.380535 0.768914 255 255 255
-0.133178 0.239714 0.199315 -0.394513 0.704031 0.590442 255 255 255
-0.072076 0.313201 0.107869 -0.215491 0.921690 0.322489 255 255 255
-0.104637 0.281874 0.156601 -0.310984 0.828639 0.465407 255 255 255
-0.104637 -0.281874 0.156601 -0.310984 -0.828639 0.465407 255 255 255
-0.072076 -0.313201 0.107868 -0.215491 -0.921690 0.322489 255 255 255
-0.156601 -0.188342 0.234370 -0.462966 -0.552751 0.692892 255 255 255
-0.133178 -0.239714 0.199315 -0.394513 -0.704031 0.590442 255 255 255
-0.184723 -0.066137 0.276458 -0.545000 -0.193915 0.815668 255 255 255
-0.174005 -0.129732 0.260418 -0.513749 -0.380535 0.768914 255 255 255
-0.184723 0.066137 0.276458 -0.545000 0.193915 0.815668 255 255 255
-0.188342 0.000000 0.281874 -0.555559 0.000000 0.831446 255 255 255
-0.156601 0.188342 0.234370 -0.462966 0.552751 0.692892 255 255 255
-0.036744 -0.332493 0.054991 -0.111637 -0.979583 0.167089 255 255 255
-0.036744 0.332493 0.054991 -0.111637 0.979583 0.167089 255 255 255
-0.221467 0.129732 0.221467 -0.653890 0.380535 0.653890 255 255 255
-0.169504 0.239714 0.169503 -0.502121 0.704031 0.502121 255 255 255
-0.091735 0.313201 0.091735 -0.274270 0.921690 0.274270 255 255 255
-0.133178 0.281874 0.133178 -0.395795 0.828639 0.395795 255 255 255
-0.133178 -0.281874 0.133178 -0.395795 -0.828639 0.395795 255 255 255
-0.199315 -0.188342 0.199315 -0.589251 -0.552751 0.589251 255 255 255
-0.169504 -0.239714 0.169503 -0.502121 -0.704031 0.502121 255 255 255
-0.235108 -0.066137 0.235108 -0.693655 -0.193915 0.693655 255 255 255
-0.221467 -0.129732 0.221467 -0.653890 -0.380535 0.653890 255 255 255
-0.235108 0.066137 0.235108 -0.693655 0.193915 0.693655 255 255 255
-0.199315 0.188342 0.199315 -0.589251 0.552751 0.589251 255 255 255
-0.091735 -0.313201 0.091735 -0.274270 -0.921690 0.274270 255 255 255
-0.046766 0.332493 0.046766 -0.142094 0.979583 0.142094 255 255 255
-0.239714 0.000000 0.239714 -0.707083 0.000000 0.707083 255 255 255
-0.260418 0.129732 0.174005 -0.768914 0.380535 0.513749 255 255 255
-0.199315 0.239714 0.133178 -0.590442 0.704031 0.394513 255 255 255
-0.107869 0.313201 0.072075 -0.322489 0.921690 0.215491 255 255 255
-0.156601 0.281874 0.104637 -0.465407 0.828639 0.310984 255 255 255
-0.156601 -0.281874 0.104637 -0.465407 -0.828639 0.310984 255 255 255
-0.234370 -0.188342 0.156601 -0.692892 -0.552751 0.462966 255 255 255
-0.199315 -0.239714 0.133178 -0.590442 -0.704031 0.394513 255 255 255
-0.276458 -0.066137 0.184723 -0.815668 -0.193915 0.545000 255 255 255
-0.260418 -0.129732 0.174005 -0.768914 -0.380535 0.513749 255 255 255
-0.276458 0.066137 0.184723 -0.815668 0.193915 0.545000 255 255 255
-0.234370 0.188342 0.156601 -0.692892 0.552751 0.462966 255 255 255
-0.046766 -0.332493 0.046766 -0.142094 -0.979583 0.142094 255 255 255
-0.107869 -0.313201 0.072075 -0.322489 -0.921690 0.215491 255 255 255
-0.054991 0.332493 0.036744 -0.167089 0.979583 0.111637 255 255 255
-0.281874 0.000000 0.188342 -0.831446 0.000000 0.555559 255 255 255
-0.289360 0.129732 0.119857 -0.854366 0.380535 0.353862 255 255 255
-0.221467 0.239714 0.091735 -0.656056 0.704031 0.271737 255 255 255
-0.260418 0.188342 0.107868 -0.769890 0.552751 0.318888 255 255 255
-0.119857 0.313201 0.049646 -0.358348 0.921690 0.148412 255 255 255
-0.174005 -0.281874 0.072075 -0.517136 -0.828639 0.214209 255 255 255
-0.260418 -0.188342 0.107868 -0.769890 -0.552751 0.318888 255 255 255
-0.307183 -0.066137 0.127239 -0.906339 -0.193915 0.375408 255 255 255
-0.289360 -0.129732 0.119857 -0.854366 -0.380535 0.353862 255 255 255
-0.307183 0.066137 0.127239 -0.906339 0.193915 0.375408 255 255 255
-0.174006 0.281874 0.072075 -0.517136 0.828639 0.214209 255 255 255
-0.054991 -0.332493 0.036744 -0.167089 -0.979583 0.111637 255 255 255
-0.119857 -0.313201 0.049646 -0.358348 -0.921690 0.148412 255 255 255
-0.061103 0.332493 0.025310 -0.185644 0.979583 0.076907 255 255 255
-0.221467 -0.239714 0.091735 -0.656056 -0.704031 0.271737 255 255 255
-0.313202 0.000000 0.129732 -0.923856 0.000000 0.382672 255 255 255
-0.307183 0.129732 0.061103 -0.906980 0.380535 0.180395 255 255 255
-0.235108 0.239714 0.046766 -0.696493 0.704031 0.138524 255 255 255
-0.276458 0.188342 0.054991 -0.817316 0.552751 0.162572 255 255 255
-0.127240 0.313201 0.025310 -0.380413 0.921690 0.075655 255 255 255
-0.184723 -0.281874 0.036744 -0.548997 -0.828639 0.109195 255 255 255
-0.127240 -0.313201 0.025310 -0.380413 -0.921690 0.075655 255 255 255
-0.276458 -0.188342 0.054991 -0.817316 -0.552751 0.162572 255 255 255
-0.235108 -0.239714 0.046766 -0.696493 -0.704031 0.138524 255 255 255
-0.326104 -0.066137 0.064866 -0.962157 -0.193915 0.191382 255 255 255
-0.307183 -0.129732 0.061103 -0.906980 -0.380535 0.180395 255 255 255
-0.326104 0.066137 0.064866 -0.962157 0.193915 0.191382 255 255 255
-0.184723 0.281874 0.036744 -0.548997 0.828639 0.109195 255 255 255
-0.061103 -0.332493 0.025310 -0.185644 -0.979583 0.076907 255 255 255
-0.064866 0.332493 0.012903 -0.197089 0.979583 0.039186 255 255 255
-0.332493 0.000000 0.066137 -0.980773 0.000000 0.195074 255 255 255
-0.313202 0.129732 0.000000 -0.924741 0.380535 0.000000 255 255 255
-0.239714 0.239714 -0.000000 -0.710135 0.704031 0.000000 255 255 255
-0.281874 0.188342 -0.000000 -0.833338 0.552751 0.000000 255 255 255
-0.129732 0.313201 0.000000 -0.387860 0.921690 0.000000 255 255 255
-0.188342 0.281874 0.000000 -0.559771 0.828639 0.000000 255 255 255
-0.188342 -0.281874 -0.000000 -0.559771 -0.828639 0.000000 255 255 255
-0.281874 -0.188342 -0.000000 -0.833338 -0.552751 0.000000 255 255 255
-0.239714 -0.239714 -0.000000 -0.710135 -0.704031 0.000000 255 255 255
-0.332493 -0.066137 -0.000000 -0.980987 -0.193915 0.000000 255 255 255
-0.313202 -0.129732 0.000000 -0.924741 -0.380535 0.000000 255 255 255
-0.332493 0.066137 -0.000000 -0.980987 0.193915 0.000000 255 255 255
-0.064866 -0.332493 0.012903 -0.197089 -0.979583 0.039186 255 255 255
-0.129732 -0.313201 0.000000 -0.387860 -0.921690 0.000000 255 255 255
-0.066137 0.332493 -0.000000 -0.200964 0.979583 0.000000 255 255 255
-0.339007 0.000000 -0.000000 -1.000000 0.000000 0.000000 255 255 255
-0.307183 0.129732 -0.061103 -0.906980 0.380535 -0.180395 255 255 255
-0.235108 0.239714 -0.046766 -0.696493 0.704031 -0.138524 255 255 255
-0.127240 0.313201 -0.025310 -0.380413 0.921690 -0.075655 255 255 255
-0.184723 0.281874 -0.036744 -0.548997 0.828639 -0.109195 255 255 255
-0.184723 -0.281874 -0.036744 -0.548997 -0.828639 -0.109195 255 255 255
-0.276458 -0.188342 -0.054991 -0.817316 -0.552751 -0.162572 255 255 255
-0.235108 -0.239714 -0.046766 -0.696493 -0.704031 -0.138524 255 255 255
-0.326104 -0.066137 -0.064866 -0.962157 -0.193915 -0.191382 255 255 255
-0.307183 -0.129732 -0.061103 -0.906980 -0.380535 -0.180395 255 255 255
-0.326104 0.066137 -0.064866 -0.962157 0.193915 -0.191382 255 255 255
-0.276458 0.188342 -0.054991 -0.817316 0.552751 -0.162572 255 255 255
-0.066137 -0.332493 0.000000 -0.200964 -0.979583 0.000000 255 255 255
-0.127240 -0.313201 -0.025310 -0.380413 -0.921690 -0.075655 255 255 255
-0.064866 0.332493 -0.012903 -0.197089 0.979583 -0.039186 255 255 255
-0.332493 0.000000 -0.066137 -0.980773 0.000000 -0.195074 255 255 255
-0.289360 0.129732 -0.119857 -0.854366 0.380535 -0.353862 255 255 255
-0.221467 0.239714 -0.091735 -0.656056 0.704031 -0.271737 255 255 255
-0.119857 0.313201 -0.049646 -0.358348 0.921690 -0.148412 255 255 255
-0.174006 0.281874 -0.072075 -0.517136 0.828639 -0.214209 255 255 255
-0.174005 -0.281874 -0.072075 -0.517136 -0.828639 -0.214209 255 255 255
-0.260417 -0.188342 -0.107868 -0.769890 -0.552751 -0.318888 255 255 255
-0.221467 -0.239714 -0.091735 -0.656056 -0.704031 -0.271737 255 255 255
-0.307183 -0.066137 -0.127240 -0.906339 -0.193915 -0.375408 255 255 255
-0.289360 -0.129732 -0.119857 -0.854366 -0.380535 -0.353862 255 255 255
-0.307183 0.066137 -0.127240 -0.906339 0.193915 -0.375408 255 255 255
-0.260417 0.188342 -0.107868 -0.769890 0.552751 -0.318888 255 255 255
-0.064866 -0.332493 -0.012903 -0.197089 -0.979583 -0.039186 255 255 255
-0.119857 -0.313201 -0.049646 -0.358348 -0.921690 -0.148412 255 255 255
-0.061103 0.332493 -0.025310 -0.185644 0.979583 -0.076907 255 255 255
-0.313202 0.000000 -0.129732 -0.923856 0.000000 -0.382672 255 255 255
-0.260418 0.129732 -0.174005 -0.768914 0.380535 -0.513749 255 255 255
-0.199315 0.239714 -0.133178 -0.590442 0.704031 -0.394513 255 255 255
-0.107869 0.313201 -0.072075 -0.322489 0.921690 -0.215491 255 255 255
-0.156601 0.281874 -0.104637 -0.465407 0.828639 -0.310984 255 255 255
-0.156601 -0.281874 -0.104637 -0.465407 -0.828639 -0.310984 255 255 255
-0.234370 -0.188342 -0.156601 -0.692892 -0.552751 -0.462966 255 255 255
-0.199315 -0.239714 -0.133178 -0.590442 -0.704031 -0.394513 255 255 255
-0.276458 -0.066137 -0.184723 -0.815668 -0.193915 -0.545000 255 255 255
-0.260418 -0.129732 -0.174005 -0.768914 -0.380535 -0.513749 255 255 255
-0.276458 0.066137 -0.184723 -0.815668 0.193915 -0.545000 255 255 255
-0.234370 0.188342 -0.156601 -0.692892 0.552751 -0.462966 255 255 255
-0.061103 -0.332493 -0.025310 -0.185644 -0.979583 -0.076907 255 255 255
-0.107869 -0.313201 -0.072075 -0.322489 -0.921690 -0.215491 255 255 255
-0.054991 0.332493 -0.036744 -0.167089 0.979583 -0.111637 255 255 255
-0.313202 0.000000 -0.129732 -0.923856 0.000000 -0.382672 255 254 254
-0.281874 0.000000 -0.188342 -0.831446 0.000000 -0.555559 255 255 255
-0.221467 0.129732 -0.221467 -0.653890 0.380535 -0.653890 255 255 255
-0.169503 0.239714 -0.169503 -0.502121 0.704031 -0.502121 255 255 255
-0.091735 0.313201 -0.091735 -0.274270 0.921690 -0.274270 255 255 255
-0.133178 0.281874 -0.133178 -0.395795 0.828639 -0.395795 255 255 255
-0.133178 -0.281874 -0.133178 -0.395795 -0.828639 -0.395795 255 255 255
-0.199315 -0.188342 -0.199315 -0.589251 -0.552751 -0.589251 255 255 255
-0.169503 -0.239714 -0.169503 -0.502121 -0.704031 -0.502121 255 255 255
-0.235108 -0.066137 -0.235108 -0.693655 -0.193915 -0.693655 255 255 255
-0.221467 -0.129732 -0.221467 -0.653890 -0.380535 -0.653890 255 255 255
-0.235108 0.066137 -0.235108 -0.693655 0.193915 -0.693655 255 255 255
-0.199315 0.188342 -0.199315 -0.589251 0.552751 -0.589251 255 255 255
-0.091735 -0.313201 -0.091735 -0.274270 -0.921690 -0.274270 255 255 255
-0.046766 -0.332493 -0.046766 -0.142094 -0.979583 -0.142094 255 255 255
-0.046766 0.332493 -0.046766 -0.142094 0.979583 -0.142094 255 255 255
-0.239714 0.000000 -0.239714 -0.707083 0.000000 -0.707083 255 255 255
-0.174005 0.129732 -0.260417 -0.513749 0.380535 -0.768914 255 255 255
-0.133178 0.239714 -0.199315 -0.394513 0.704031 -0.590442 255 255 255
-0.072075 0.313201 -0.107868 -0.215491 0.921690 -0.322489 255 255 255
-0.104637 0.281874 -0.156601 -0.310984 0.828639 -0.465407 255 255 255
-0.104637 -0.281874 -0.156601 -0.310984 -0.828639 -0.465407 255 255 255
-0.156601 -0.188342 -0.234369 -0.462966 -0.552751 -0.692892 255 255 255
-0.133178 -0.239714 -0.199315 -0.394513 -0.704031 -0.590442 255 255 255
-0.184723 -0.066137 -0.276458 -0.545000 -0.193915 -0.815668 255 255 255
-0.174005 -0.129732 -0.260417 -0.513749 -0.380535 -0.768914 255 255 255
-0.184723 0.066137 -0.276458 -0.545000 0.193915 -0.815668 255 255 255
-0.156601 0.188342 -0.234369 -0.462966 0.552751 -0.692892 255 255 255
-0.072075 -0.313201 -0.107868 -0.215491 -0.921690 -0.322489 255 255 255
-0.036744 -0.332493 -0.054991 -0.111637 -0.979583 -0.167089 255 255 255
-0.036744 0.332493 -0.054991 -0.111637 0.979583 -0.167089 255 255 255
-0.188342 0.000000 -0.281874 -0.555559 0.000000 -0.831446 255 255 255
-0.119857 0.129732 -0.289360 -0.353862 0.380535 -0.854366 255 255 255
-0.091735 0.239714 -0.221467 -0.271737 0.704031 -0.656056 255 255 255
-0.049646 0.313201 -0.119857 -0.148412 0.921690 -0.358348 255 255 255
-0.072075 0.281874 -0.174005 -0.214209 0.828639 -0.517136 255 255 255
-0.072075 -0.281874 -0.174005 -0.214209 -0.828639 -0.517136 255 255 255
-0.107868 -0.188342 -0.260417 -0.318888 -0.552751 -0.769890 255 255 255
-0.091735 -0.239714 -0.221467 -0.271737 -0.704031 -0.656056 255 255 255
-0.127239 -0.066137 -0.307183 -0.375408 -0.193915 -0.906339 255 255 255
-0.119857 -0.129732 -0.289360 -0.353862 -0.380535 -0.854366 255 255 255
-0.127239 0.066137 -0.307183 -0.375408 0.193915 -0.906339 255 255 255
-0.129732 0.000000 -0.313201 -0.382672 0.000000 -0.923856 255 255 255
-0.107868 0.188342 -0.260417 -0.318888 0.552751 -0.769890 255 255 255
-0.049646 -0.313201 -0.119857 -0.148412 -0.921690 -0.358348 255 255 255
-0.025310 0.332493 -0.061103 -0.076907 0.979583 -0.185644 255 255 255
-0.061103 0.129732 -0.307183 -0.180395 0.380535 -0.906980 255 255 255
-0.046766 0.239714 -0.235108 -0.138524 0.704031 -0.696493 255 255 255
-0.025310 0.313201 -0.127239 -0.075655 0.921690 -0.380413 255 255 255
-0.036744 0.281874 -0.184723 -0.109195 0.828639 -0.548997 255 255 255
-0.036744 -0.281874 -0.184723 -0.109195 -0.828639 -0.548997 255 255 255
-0.054991 -0.188342 -0.276458 -0.162572 -0.552751 -0.817316 255 255 255
-0.046766 -0.239714 -0.235108 -0.138524 -0.704031 -0.696493 255 255 255
-0.064866 -0.066137 -0.326104 -0.191382 -0.193915 -0.962157 255 255 255
-0.061103 -0.129732 -0.307183 -0.180395 -0.380535 -0.906980 255 255 255
-0.064866 0.066137 -0.326104 -0.191382 0.193915 -0.962157 255 255 255
-0.066137 0.000000 -0.332493 -0.195074 0.000000 -0.980773 255 255 255
-0.054991 0.188342 -0.276458 -0.162572 0.552751 -0.817316 255 255 255
-0.025310 -0.313201 -0.127239 -0.075655 -0.921690 -0.380413 255 255 255
-0.012903 -0.332493 -0.064866 -0.039186 -0.979583 -0.197089 255 255 255
-0.012903 0.332493 -0.064866 -0.039186 0.979583 -0.197089 255 255 255
-0.000000 0.129732 -0.313201 0.000000 0.380535 -0.924741 255 255 255
-0.000000 0.239714 -0.239714 0.000000 0.704031 -0.710135 255 255 255
-0.000000 0.313201 -0.129732 0.000000 0.921690 -0.387860 255 255 255
-0.000000 0.281874 -0.188342 0.000000 0.828639 -0.559771 255 255 255
-0.000000 -0.281874 -0.188342 0.000000 -0.828639 -0.559771 255 255 255
-0.000000 -0.188342 -0.281874 0.000000 -0.552751 -0.833338 255 255 255
-0.000000 -0.239714 -0.239714 0.000000 -0.704031 -0.710135 255 255 255
-0.000000 -0.066137 -0.332493 0.000000 -0.193915 -0.980987 255 255 255
-0.000000 -0.129732 -0.313201 0.000000 -0.380535 -0.924741 255 255 255
-0.000000 0.066137 -0.332493 0.000000 0.193915 -0.980987 255 255 255
-0.000000 0.000000 -0.339007 0.000000 0.000000 -1.000000 255 255 255
-0.000000 0.188342 -0.281874 0.000000 0.552751 -0.833338 255 255 255
-0.000000 -0.313201 -0.129732 0.000000 -0.921690 -0.387860 255 255 255
-0.000000 -0.332493 -0.066137 0.000000 -0.979583 -0.200964 255 255 255
-0.000000 0.332493 -0.066137 0.000000 0.979583 -0.200964 255 255 255
0.061102 0.129732 -0.307183 0.180395 0.380535 -0.906980 255 255 255
0.046766 0.239714 -0.235108 0.138524 0.704031 -0.696493 255 255 255
0.054991 0.188342 -0.276458 0.162572 0.552751 -0.817316 255 255 255
0.025309 0.313201 -0.127239 0.075655 0.921690 -0.380413 255 255 255
0.036744 0.281874 -0.184723 0.109195 0.828639 -0.548997 255 255 255
0.036744 -0.281874 -0.184723 0.109195 -0.828639 -0.548997 255 255 255
0.054991 -0.188342 -0.276458 0.162572 -0.552751 -0.817316 255 255 255
0.046766 -0.239714 -0.235108 0.138524 -0.704031 -0.696493 255 255 255
0.064866 -0.066137 -0.326104 0.191382 -0.193915 -0.962157 255 255 255
0.061102 -0.129732 -0.307183 0.180395 -0.380535 -0.906980 255 255 255
0.064866 0.066137 -0.326104 0.191382 0.193915 -0.962157 255 255 255
0.066137 0.000000 -0.332493 0.195074 0.000000 -0.980773 255 255 255
0.025309 -0.313201 -0.127239 0.075655 -0.921690 -0.380413 255 255 255
0.012903 -0.332493 -0.064866 0.039186 -0.979583 -0.197089 255 255 255
0.012903 0.332493 -0.064866 0.039186 0.979583 -0.197089 255 255 255
0.119857 0.129732 -0.289360 0.353862 0.380535 -0.854366 255 255 255
0.091735 0.239714 -0.221467 0.271737 0.704031 -0.656056 255 255 255
0.049646 0.313201 -0.119857 0.148412 0.921690 -0.358348 255 255 255
0.072075 0.281874 -0.174005 0.214209 0.828639 -0.517136 255 255 255
0.072075 -0.281874 -0.174005 0.214209 -0.828639 -0.517136 255 255 255
0.107868 -0.188342 -0.260417 0.318888 -0.552751 -0.769890 255 255 255
0.091735 -0.239714 -0.221467 0.271737 -0.704031 -0.656056 255 255 255
0.127239 -0.066137 -0.307183 0.375408 -0.193915 -0.906339 255 255 255
0.119857 -0.129732 -0.289360 0.353862 -0.380535 -0.854366 255 255 255
0.127239 0.066137 -0.307183 0.375408 0.193915 -0.906339 255 255 255
0.129732 0.000000 -0.313201 0.382672 0.000000 -0.923856 255 255 255
0.107868 0.188342 -0.260417 0.318888 0.552751 -0.769890 255 255 255
0.049646 -0.313201 -0.119857 0.148412 -0.921690 -0.358348 255 255 255
0.025309 -0.332493 -0.061103 0.076907 -0.979583 -0.185644 255 255 255
0.025309 0.332493 -0.061103 0.076907 0.979583 -0.185644 255 255 255
0.174005 0.129732 -0.260417 0.513749 0.380535 -0.768914 255 255 255
0.133178 0.239714 -0.199315 0.394513 0.704031 -0.590442 255 255 255
0.072075 0.313201 -0.107868 0.215491 0.921690 -0.322489 255 255 255
0.104637 0.281874 -0.156601 0.310984 0.828639 -0.465407 255 255 255
0.104637 -0.281874 -0.156601 0.310984 -0.828639 -0.465407 255 255 255
0.156601 -0.188342 -0.234369 0.462966 -0.552751 -0.692892 255 255 255
0.133178 -0.239714 -0.199315 0.394513 -0.704031 -0.590442 255 255 255
0.184723 -0.066137 -0.276458 0.545000 -0.193915 -0.815668 255 255 255
0.174005 -0.129732 -0.260417 0.513749 -0.380535 -0.768914 255 255 255
0.184723 0.066137 -0.276458 0.545000 0.193915 -0.815668 255 255 255
0.188342 0.000000 -0.281874 0.555559 0.000000 -0.831446 255 255 255
0.156601 0.188342 -0.234369 0.462966 0.552751 -0.692892 255 255 255
0.072075 -0.313201 -0.107868 0.215491 -0.921690 -0.322489 255 255 255
0.036744 -0.332493 -0.054991 0.111637 -0.979583 -0.167089 255 255 255
0.036744 0.332493 -0.054991 0.111637 0.979583 -0.167089 255 255 255
0.221467 0.129732 -0.221467 0.653890 0.380535 -0.653890 255 255 255
0.169503 0.239714 -0.169503 0.502121 0.704031 -0.502121 255 255 255
0.091734 0.313201 -0.091735 0.274270 0.921690 -0.274270 255 255 255
0.133178 0.281874 -0.133178 0.395795 0.828639 -0.395795 255 255 255
0.133178 -0.281874 -0.133178 0.395795 -0.828639 -0.395795 255 255 255
0.199315 -0.188342 -0.199315 0.589251 -0.552751 -0.589251 255 255 255
0.169503 -0.239714 -0.169503 0.502121 -0.704031 -0.502121 255 255 255
0.235108 -0.066137 -0.235108 0.693655 -0.193915 -0.693655 255 255 255
0.221467 -0.129732 -0.221467 0.653890 -0.380535 -0.653890 255 255 255
0.235108 0.066137 -0.235108 0.693655 0.193915 -0.693655 255 255 255
0.239714 0.000000 -0.239714 0.707083 0.000000 -0.707083 255 255 255
0.199315 0.188342 -0.199315 0.589251 0.552751 -0.589251 255 255 255
0.091734 -0.313201 -0.091735 0.274270 -0.921690 -0.274270 255 255 255
0.046766 -0.332493 -0.046766 0.142094 -0.979583 -0.142094 255 255 255
0.046766 0.332493 -0.046766 0.142094 0.979583 -0.142094 255 255 255
0.260417 0.129732 -0.174005 0.768914 0.380535 -0.513749 255 255 255
0.199315 0.239714 -0.133178 0.590442 0.704031 -0.394513 255 255 255
0.107868 0.313201 -0.072075 0.322489 0.921690 -0.215491 255 255 255
0.156601 0.281874 -0.104637 0.465407 0.828639 -0.310984 255 255 255
0.156601 -0.281874 -0.104637 0.465407 -0.828639 -0.310984 255 255 255
0.107868 -0.313201 -0.072075 0.322489 -0.921690 -0.215491 255 255 255
0.234369 -0.188342 -0.156601 0.692892 -0.552751 -0.462966 255 255 255
0.199315 -0.239714 -0.133178 0.590442 -0.704031 -0.394513 255 255 255
0.276457 -0.066137 -0.184723 0.815668 -0.193915 -0.545000 255 255 255
0.260417 -0.129732 -0.174005 0.768914 -0.380535 -0.513749 255 255 255
0.276457 0.066137 -0.184723 0.815668 0.193915 -0.545000 255 255 255
0.234369 0.188342 -0.156601 0.692892 0.552751 -0.462966 255 255 255
0.054991 -0.332493 -0.036744 0.167089 -0.979583 -0.111637 255 255 255
0.054991 0.332493 -0.036744 0.167089 0.979583 -0.111637 255 255 255
0.281874 0.000000 -0.188342 0.831446 0.000000 -0.555559 255 255 255
0.289360 0.129732 -0.119857 0.854366 0.380535 -0.353862 255 255 255
0.221467 0.239714 -0.091735 0.656056 0.704031 -0.271737 255 255 255
0.119857 0.313201 -0.049646 0.358348 0.921690 -0.148412 255 255 255
0.174005 -0.281874 -0.072075 0.517136 -0.828639 -0.214209 255 255 255
0.260417 -0.188342 -0.107868 0.769890 -0.552751 -0.318888 255 255 255
0.221467 -0.239714 -0.091735 0.656056 -0.704031 -0.271737 255 255 255
0.307183 -0.066137 -0.127239 0.906339 -0.193915 -0.375408 255 255 255
0.289360 -0.129732 -0.119857 0.854366 -0.380535 -0.353862 255 255 255
0.307183 0.066137 -0.127239 0.906339 0.193915 -0.375408 255 255 255
0.313201 0.000000 -0.129732 0.923856 0.000000 -0.382672 255 255 255
0.260417 0.188342 -0.107868 0.769890 0.552751 -0.318888 255 255 255
0.174005 0.281874 -0.072075 0.517136 0.828639 -0.214209 255 255 255
0.119857 -0.313201 -0.049646 0.358348 -0.921690 -0.148412 255 255 255
0.061102 -0.332493 -0.025309 0.185644 -0.979583 -0.076907 255 255 255
0.061103 0.332493 -0.025310 0.185644 0.979583 -0.076907 255 255 255
0.307183 0.129732 -0.061103 0.906980 0.380535 -0.180395 255 255 255
0.235108 0.239714 -0.046766 0.696493 0.704031 -0.138524 255 255 255
0.127239 0.313201 -0.025309 0.380413 0.921690 -0.075655 255 255 255
0.184723 0.281874 -0.036744 0.548997 0.828639 -0.109195 255 255 255
0.184723 -0.281874 -0.036744 0.548997 -0.828639 -0.109195 255 255 255
0.276457 -0.188342 -0.054991 0.817316 -0.552751 -0.162572 255 255 255
0.235108 -0.239714 -0.046766 0.696493 -0.704031 -0.138524 255 255 255
0.326104 -0.066137 -0.064866 0.962157 -0.193915 -0.191382 255 255 255
0.307183 -0.129732 -0.061103 0.906980 -0.380535 -0.180395 255 255 255
0.326104 0.066137 -0.064866 0.962157 0.193915 -0.191382 255 255 255
0.332493 0.000000 -0.066137 0.980773 0.000000 -0.195074 255 255 255
0.276457 0.188342 -0.054991 0.817316 0.552751 -0.162572 255 255 255
0.127239 -0.313201 -0.025309 0.380413 -0.921690 -0.075655 255 255 255
0.064866 -0.332493 -0.012903 0.197089 -0.979583 -0.039186 255 255 255
0.064866 0.332493 -0.012903 0.197089 0.979583 -0.039186 255 255 255
-0.000000 0.339007 -0.000000 0.000000 1.000000 0.000000 255 255 255
-0.000000 -0.339007 0.000000 0.000000 -1.000000 0.000000 255 255 255
0.066137 -0.332493 0.000000 0.200964 -0.979583 0.000000 255 255 255
-0.025310 -0.332493 0.061103 -0.076907 -0.979583 0.185644 255 255 255
-0.054991 -0.332493 -0.036744 -0.167089 -0.979583 -0.111637 255 255 255
-0.025310 -0.332493 -0.061103 -0.076907 -0.979583 -0.185644 255 255 255
3 0 1 2
3 3 4 5
3 6 7 8
3 9 10 11
3 12 13 14
3 15 16 17
3 18 19 20
3 21 0 22
3 1 23 5
3 24 8 4
3 25 11 7
3 26 14 10
3 12 18 27
3 21 28 16
3 7 11 29
3 14 30 31
3 27 32 33
3 16 28 34
3 22 2 35
3 4 36 37
3 7 38 39
3 10 31 29
3 13 33 30
3 16 40 41
3 27 20 42
3 28 22 43
3 2 5 37
3 4 8 39
3 38 29 44
3 30 45 46
3 33 32 47
3 34 48 49
3 35 50 51
3 36 52 53
3 39 38 54
3 31 46 44
3 30 33 55
3 40 49 56
3 42 57 47
3 43 51 48
3 35 37 53
3 39 58 52
3 54 44 59
3 45 60 61
3 47 62 63
3 48 64 65
3 51 50 66
3 52 67 68
3 58 54 69
3 46 61 59
3 55 63 60
3 49 65 70
3 57 71 62
3 48 51 72
3 50 53 68
3 58 73 67
3 69 59 74
3 61 60 75
3 62 76 77
3 64 78 79
3 66 80 81
3 67 82 83
3 73 69 84
3 61 85 74
3 63 77 75
3 65 79 86
3 71 87 76
3 64 72 81
3 66 68 83
3 73 88 82
3 84 74 89
3 85 75 90
3 76 91 92
3 78 93 94
3 80 95 96
3 82 97 98
3 84 99 100
3 85 101 89
3 77 92 90
3 86 79 94
3 87 102 91
3 78 81 96
3 80 83 98
3 82 88 100
3 99 89 103
3 101 90 104
3 91 105 106
3 93 107 108
3 95 109 110
3 97 111 112
3 99 113 114
3 101 115 103
3 92 106 104
3 116 94 108
3 102 117 105
3 93 96 110
3 95 98 112
3 97 100 114
3 113 103 118
3 104 119 120
3 105 121 122
3 108 107 123
3 109 124 125
3 111 126 127
3 113 128 129
3 115 120 118
3 106 122 119
3 130 108 131
3 117 132 121
3 107 110 125
3 109 112 127
3 111 114 129
3 128 118 133
3 119 134 135
3 121 136 137
3 123 138 139
3 124 140 141
3 126 142 143
3 128 144 145
3 120 135 133
3 122 137 134
3 146 131 139
3 132 147 136
3 123 125 141
3 124 127 143
3 126 129 145
3 144 133 148
3 135 134 149
3 136 150 151
3 139 138 152
3 140 153 154
3 142 155 156
3 144 157 158
3 135 159 148
3 137 151 149
3 160 139 161
3 147 162 150
3 138 141 154
3 140 143 156
3 142 145 158
3 157 148 163
3 159 149 164
3 150 165 166
3 152 167 168
3 153 169 170
3 155 171 172
3 157 173 174
3 159 175 163
3 151 166 164
3 161 168 176
3 162 177 165
3 152 154 170
3 153 156 172
3 155 158 174
3 173 163 178
3 175 164 179
3 165 180 181
3 168 167 182
3 169 183 184
3 171 185 186
3 174 173 187
3 175 188 178
3 166 181 179
3 176 168 189
3 177 190 180
3 167 170 184
3 169 172 186
3 174 191 185
3 187 178 192
3 188 179 193
3 180 194 195
3 189 182 196
3 183 197 198
3 185 199 200
3 191 187 201
3 188 202 192
3 181 195 193
3 203 189 204
3 190 205 194
3 182 184 198
3 183 186 200
3 191 206 199
3 201 192 207
3 193 208 209
3 195 194 210
3 204 196 211
3 198 197 212
3 199 213 214
3 206 201 215
3 202 209 207
3 195 216 208
3 217 204 218
3 205 219 210
3 196 198 220
3 197 200 214
3 206 221 213
3 215 207 222
3 208 223 224
3 216 210 225
3 211 226 227
3 212 228 229
3 213 230 231
3 221 215 232
3 209 224 222
3 208 216 233
3 234 218 227
3 219 235 225
3 220 229 226
3 212 214 231
3 221 236 230
3 232 222 237
3 223 238 239
3 225 240 241
3 227 226 242
3 228 243 244
3 230 245 246
3 236 232 247
3 224 239 237
3 223 233 241
3 248 227 249
3 235 250 240
3 226 229 244
3 228 231 246
3 236 251 245
3 247 237 252
3 239 238 253
3 240 254 255
3 249 242 256
3 243 257 258
3 245 259 260
3 251 247 261
3 239 262 252
3 238 241 255
3 263 249 264
3 250 265 254
3 244 258 256
3 243 246 260
3 251 266 259
3 261 252 267
3 262 253 268
3 254 269 270
3 264 256 271
3 257 272 273
3 259 274 275
3 266 261 276
3 262 277 267
3 253 255 270
3 278 264 279
3 265 280 269
3 258 273 271
3 257 260 275
3 266 281 274
3 276 267 282
3 277 268 283
3 269 284 285
3 279 271 286
3 272 287 288
3 274 289 290
3 281 276 291
3 277 292 282
3 268 270 285
3 293 279 294
3 280 295 284
3 271 273 288
3 272 275 290
3 296 297 289
3 291 282 298
3 292 283 299
3 284 300 301
3 294 286 302
3 287 303 304
3 289 305 306
3 297 291 307
3 292 308 298
3 283 285 301
3 294 309 310
3 295 311 300
3 286 288 304
3 287 290 306
3 297 312 305
3 307 298 313
3 308 299 314
3 300 315 316
3 309 302 317
3 303 318 319
3 305 320 321
3 312 307 322
3 308 323 313
3 299 301 316
3 309 324 325
3 311 326 315
3 302 304 319
3 303 306 321
3 312 327 320
3 322 313 328
3 323 314 329
3 315 330 331
3 324 317 332
3 318 333 334
3 320 335 336
3 322 337 338
3 323 339 328
3 314 316 331
3 325 324 340
3 326 341 330
3 317 319 334
3 318 321 336
3 320 327 338
3 337 328 342
3 339 329 343
3 330 344 345
3 340 332 346
3 333 347 348
3 335 349 350
3 337 351 352
3 339 353 342
3 329 331 345
3 340 354 355
3 341 356 344
3 334 348 346
3 333 336 350
3 335 338 352
3 351 342 357
3 353 343 358
3 344 359 360
3 354 346 361
3 347 362 363
3 349 364 365
3 351 366 367
3 353 368 357
3 343 345 360
3 354 369 370
3 344 356 371
3 348 363 361
3 347 350 365
3 349 352 367
3 366 357 372
3 358 373 374
3 359 375 376
3 369 361 377
3 362 378 379
3 364 380 381
3 366 382 383
3 368 374 372
3 358 360 376
3 369 384 385
3 359 371 386
3 363 379 377
3 362 365 381
3 364 367 383
3 382 372 387
3 374 373 388
3 375 389 390
3 384 377 391
3 378 392 393
3 380 394 395
3 382 396 397
3 374 398 387
3 373 376 390
3 384 399 400
3 375 386 401
3 379 393 391
3 378 381 395
3 380 383 397
3 396 387 402
3 398 388 403
3 389 404 405
3 399 391 406
3 392 407 408
3 394 409 410
3 396 411 412
3 398 413 402
3 388 390 405
3 399 414 415
3 389 401 416
3 393 408 406
3 392 395 410
3 394 397 412
3 411 402 417
3 413 403 418
3 404 419 420
3 414 406 421
3 407 422 423
3 409 424 425
3 411 426 427
3 413 428 417
3 403 405 420
3 414 429 430
3 416 431 419
3 408 423 421
3 407 410 425
3 412 427 424
3 426 417 432
3 428 418 433
3 419 434 435
3 421 436 437
3 422 438 439
3 424 440 441
3 427 426 442
3 428 443 432
3 420 435 433
3 429 437 444
3 431 445 434
3 421 423 439
3 422 425 441
3 427 446 440
3 442 432 447
3 443 433 448
3 435 434 449
3 437 436 450
3 438 451 452
3 440 453 454
3 442 455 456
3 443 457 447
3 433 435 458
3 437 459 460
3 434 445 461
3 439 452 450
3 438 441 454
3 440 446 456
3 455 447 462
3 457 448 463
3 449 464 465
3 459 450 466
3 451 467 468
3 453 469 470
3 455 471 472
3 457 473 462
3 458 465 463
3 459 474 475
3 461 476 464
3 450 452 468
3 451 454 470
3 453 456 472
3 19 477 20
3 478 479 17
3 478 17 41
3 20 477 42
3 478 41 56
3 42 477 57
3 478 56 70
3 57 477 71
3 478 70 86
3 71 477 87
3 478 86 116
3 87 477 102
3 478 116 130
3 102 477 117
3 478 130 146
3 117 477 132
3 478 146 160
3 132 477 147
3 478 160 480
3 147 477 162
3 478 480 176
3 162 477 177
3 478 176 203
3 177 477 190
3 478 203 217
3 190 477 205
3 478 217 234
3 205 477 219
3 478 234 248
3 219 477 235
3 478 248 263
3 235 477 250
3 478 263 278
3 250 477 265
3 478 278 293
3 265 477 280
3 478 293 481
3 280 477 295
3 478 481 310
3 295 477 311
3 478 310 325
3 311 477 326
3 478 325 482
3 326 477 341
3 478 482 355
3 341 477 356
3 478 355 370
3 356 477 371
3 478 370 385
3 371 477 386
3 478 385 400
3 386 477 401
3 478 400 415
3 401 477 416
3 478 415 430
3 416 477 431
3 478 430 444
3 431 477 445
3 478 444 460
3 445 477 461
3 478 460 475
3 461 477 476
3 471 462 25
3 473 463 26
3 478 475 479
3 465 464 18
3 466 21 15
3 476 477 19
3 467 1 0
3 469 3 23
3 472 471 6
3 462 473 9
3 463 465 12
3 474 15 479
3 464 476 19
3 468 0 21
3 470 23 1
3 472 24 3
3 22 0 2
3 23 3 5
3 24 6 8
3 25 9 11
3 26 12 14
3 479 15 17
3 27 18 20
3 28 21 22
3 2 1 5
3 3 24 4
3 6 25 7
3 9 26 10
3 13 12 27
3 15 21 16
3 38 7 29
3 10 14 31
3 13 27 33
3 40 16 34
3 43 22 35
3 5 4 37
3 8 7 39
3 11 10 29
3 14 13 30
3 17 16 41
3 32 27 42
3 34 28 43
3 35 2 37
3 36 4 39
3 54 38 44
3 31 30 46
3 55 33 47
3 40 34 49
3 43 35 51
3 37 36 53
3 58 39 54
3 29 31 44
3 45 30 55
3 41 40 56
3 32 42 47
3 34 43 48
3 50 35 53
3 36 39 52
3 69 54 59
3 46 45 61
3 55 47 63
3 49 48 65
3 72 51 66
3 53 52 68
3 73 58 69
3 44 46 59
3 45 55 60
3 56 49 70
3 47 57 62
3 64 48 72
3 66 50 68
3 52 58 67
3 84 69 74
3 85 61 75
3 63 62 77
3 65 64 79
3 72 66 81
3 68 67 83
3 88 73 84
3 59 61 74
3 60 63 75
3 70 65 86
3 62 71 76
3 78 64 81
3 80 66 83
3 67 73 82
3 99 84 89
3 101 85 90
3 77 76 92
3 79 78 94
3 81 80 96
3 83 82 98
3 88 84 100
3 74 85 89
3 75 77 90
3 116 86 94
3 76 87 91
3 93 78 96
3 95 80 98
3 97 82 100
3 113 99 103
3 115 101 104
3 92 91 106
3 94 93 108
3 96 95 110
3 98 97 112
3 100 99 114
3 89 101 103
3 90 92 104
3 130 116 108
3 91 102 105
3 107 93 110
3 109 95 112
3 111 97 114
3 128 113 118
3 115 104 120
3 106 105 122
3 131 108 123
3 110 109 125
3 112 111 127
3 114 113 129
3 103 115 118
3 104 106 119
3 146 130 131
3 105 117 121
3 123 107 125
3 124 109 127
3 126 111 129
3 144 128 133
3 120 119 135
3 122 121 137
3 131 123 139
3 125 124 141
3 127 126 143
3 129 128 145
3 118 120 133
3 119 122 134
3 160 146 139
3 121 132 136
3 138 123 141
3 140 124 143
3 142 126 145
3 157 144 148
3 159 135 149
3 137 136 151
3 161 139 152
3 141 140 154
3 143 142 156
3 145 144 158
3 133 135 148
3 134 137 149
3 480 160 161
3 136 147 150
3 152 138 154
3 153 140 156
3 155 142 158
3 173 157 163
3 175 159 164
3 151 150 166
3 161 152 168
3 154 153 170
3 156 155 172
3 158 157 174
3 148 159 163
3 149 151 164
3 480 161 176
3 150 162 165
3 167 152 170
3 169 153 172
3 171 155 174
3 187 173 178
3 188 175 179
3 166 165 181
3 189 168 182
3 170 169 184
3 172 171 186
3 191 174 187
3 163 175 178
3 164 166 179
3 203 176 189
3 165 177 180
3 182 167 184
3 183 169 186
3 171 174 185
3 201 187 192
3 202 188 193
3 181 180 195
3 204 189 196
3 184 183 198
3 186 185 200
3 206 191 201
3 178 188 192
3 179 181 193
3 217 203 204
3 180 190 194
3 196 182 198
3 197 183 200
3 185 191 199
3 215 201 207
3 202 193 209
3 216 195 210
3 218 204 211
3 220 198 212
3 200 199 214
3 221 206 215
3 192 202 207
3 193 195 208
3 234 217 218
3 194 205 210
3 211 196 220
3 212 197 214
3 199 206 213
3 232 215 222
3 209 208 224
3 233 216 225
3 218 211 227
3 220 212 229
3 214 213 231
3 236 221 232
3 207 209 222
3 223 208 233
3 248 234 227
3 210 219 225
3 211 220 226
3 228 212 231
3 213 221 230
3 247 232 237
3 224 223 239
3 233 225 241
3 249 227 242
3 229 228 244
3 231 230 246
3 251 236 247
3 222 224 237
3 238 223 241
3 263 248 249
3 225 235 240
3 242 226 244
3 243 228 246
3 230 236 245
3 261 247 252
3 262 239 253
3 241 240 255
3 264 249 256
3 244 243 258
3 246 245 260
3 266 251 261
3 237 239 252
3 253 238 255
3 278 263 264
3 240 250 254
3 242 244 256
3 257 243 260
3 245 251 259
3 276 261 267
3 277 262 268
3 255 254 270
3 279 264 271
3 258 257 273
3 260 259 275
3 281 266 276
3 252 262 267
3 268 253 270
3 293 278 279
3 254 265 269
3 256 258 271
3 272 257 275
3 259 266 274
3 291 276 282
3 292 277 283
3 270 269 285
3 294 279 286
3 273 272 288
3 275 274 290
3 297 281 291
3 267 277 282
3 283 268 285
3 481 293 294
3 269 280 284
3 286 271 288
3 287 272 290
3 274 296 289
3 307 291 298
3 308 292 299
3 285 284 301
3 309 294 302
3 288 287 304
3 290 289 306
3 312 297 307
3 282 292 298
3 299 283 301
3 481 294 310
3 284 295 300
3 302 286 304
3 303 287 306
3 289 297 305
3 322 307 313
3 323 308 314
3 301 300 316
3 324 309 317
3 304 303 319
3 306 305 321
3 327 312 322
3 298 308 313
3 314 299 316
3 310 309 325
3 300 311 315
3 317 302 319
3 318 303 321
3 305 312 320
3 337 322 328
3 339 323 329
3 316 315 331
3 340 324 332
3 319 318 334
3 321 320 336
3 327 322 338
3 313 323 328
3 329 314 331
3 482 325 340
3 315 326 330
3 332 317 334
3 333 318 336
3 335 320 338
3 351 337 342
3 353 339 343
3 331 330 345
3 354 340 346
3 334 333 348
3 336 335 350
3 338 337 352
3 328 339 342
3 343 329 345
3 482 340 355
3 330 341 344
3 332 334 346
3 347 333 350
3 349 335 352
3 366 351 357
3 368 353 358
3 345 344 360
3 369 354 361
3 348 347 363
3 350 349 365
3 352 351 367
3 342 353 357
3 358 343 360
3 355 354 370
3 359 344 371
3 346 348 361
3 362 347 365
3 364 349 367
3 382 366 372
3 368 358 374
3 360 359 376
3 384 369 377
3 363 362 379
3 365 364 381
3 367 366 383
3 357 368 372
3 373 358 376
3 370 369 385
3 375 359 386
3 361 363 377
3 378 362 381
3 380 364 383
3 396 382 387
3 398 374 388
3 376 375 390
3 399 384 391
3 379 378 393
3 381 380 395
3 383 382 397
3 372 374 387
3 388 373 390
3 385 384 400
3 389 375 401
3 377 379 391
3 392 378 395
3 394 380 397
3 411 396 402
3 413 398 403
3 390 389 405
3 414 399 406
3 393 392 408
3 395 394 410
3 397 396 412
3 387 398 402
3 403 388 405
3 400 399 415
3 404 389 416
3 391 393 406
3 407 392 410
3 409 394 412
3 426 411 417
3 428 413 418
3 405 404 420
3 429 414 421
3 408 407 423
3 410 409 425
3 412 411 427
3 402 413 417
3 418 403 420
3 415 414 430
3 404 416 419
3 406 408 421
3 422 407 425
3 409 412 424
3 442 426 432
3 443 428 433
3 420 419 435
3 429 421 437
3 423 422 439
3 425 424 441
3 446 427 442
3 417 428 432
3 418 420 433
3 430 429 444
3 419 431 434
3 436 421 439
3 438 422 441
3 424 427 440
3 455 442 447
3 457 443 448
3 458 435 449
3 459 437 450
3 439 438 452
3 441 440 454
3 446 442 456
3 432 443 447
3 448 433 458
3 444 437 460
3 449 434 461
3 436 439 450
3 451 438 454
3 453 440 456
3 471 455 462
3 473 457 463
3 458 449 465
3 474 459 466
3 452 451 468
3 454 453 470
3 456 455 472
3 447 457 462
3 448 458 463
3 460 459 475
3 449 461 464
3 466 450 468
3 467 451 470
3 469 453 472
3 6 471 25
3 9 473 26
3 12 465 18
3 474 466 15
3 468 467 0
3 470 469 23
3 24 472 6
3 25 462 9
3 26 463 12
3 475 474 479
3 18 464 19
3 466 468 21
3 467 470 1
3 469 472 3
