ply
format ascii 1.0
comment Created by Blender 2.76 (sub 0) - www.blender.org, source file: ''
element vertex 8
property float x
property float y
property float z
element face 12
property list uchar uint vertex_indices
end_header
1.000000 1.000000 -1.000000
-1.000000 1.000000 -1.000000
-1.000000 -1.000000 -1.000000
0.999999 -1.000001 1.000000
-1.000000 -1.000000 1.000000
-1.000000 1.000000 1.000000
1.000000 -1.000000 -1.000000
1.000000 0.999999 1.000000
3 0 1 2
3 3 4 5
3 6 3 7
3 2 4 3
3 2 1 5
3 5 1 0
3 6 0 2
3 7 3 5
3 0 6 7
3 6 2 3
3 4 2 5
3 7 5 0
