ply
format ascii 1.0
comment Created by Blender 2.76 (sub 0) - www.blender.org, source file: ''
element vertex 42
property float x
property float y
property float z
element face 80
property list uchar uint vertex_indices
end_header
0.000000 0.000000 -1.075000
0.457222 -0.332187 -0.914453
-0.174640 -0.537495 -0.914454
0.777878 -0.565155 -0.480761
0.914446 0.000000 -0.565166
-0.565160 0.000000 -0.914451
-0.174640 0.537495 -0.914454
0.457222 0.332187 -0.914453
1.022387 -0.332189 0.000000
-0.297117 -0.914448 -0.480761
0.282584 -0.869688 -0.565168
0.000000 -1.075000 0.000000
-0.961508 0.000000 -0.480757
-0.739804 -0.537497 -0.565166
-1.022387 -0.332189 0.000000
-0.297117 0.914448 -0.480761
-0.739804 0.537497 -0.565166
-0.631870 0.869693 0.000000
0.777878 0.565155 -0.480761
0.282584 0.869688 -0.565168
0.631870 0.869693 0.000000
0.631870 -0.869693 0.000000
-0.631870 -0.869693 0.000000
-1.022387 0.332189 0.000000
0.000000 1.075000 0.000000
1.022387 0.332189 0.000000
0.297117 -0.914448 0.480761
0.739804 -0.537497 0.565166
0.174640 -0.537495 0.914454
-0.777878 -0.565155 0.480761
-0.282584 -0.869688 0.565168
-0.457222 -0.332187 0.914453
-0.777878 0.565155 0.480761
-0.914446 0.000000 0.565166
-0.457222 0.332187 0.914453
0.297117 0.914448 0.480761
-0.282584 0.869688 0.565168
0.174640 0.537495 0.914454
0.961508 0.000000 0.480757
0.739804 0.537497 0.565166
0.565160 0.000000 0.914451
0.000000 0.000000 1.075000
3 0 1 2
3 3 1 4
3 0 2 5
3 0 5 6
3 0 6 7
3 3 4 8
3 9 10 11
3 12 13 14
3 15 16 17
3 18 19 20
3 3 8 21
3 9 11 22
3 12 14 23
3 15 17 24
3 18 20 25
3 26 27 28
3 29 30 31
3 32 33 34
3 35 36 37
3 38 39 40
3 40 37 41
3 40 39 37
3 39 35 37
3 37 34 41
3 37 36 34
3 36 32 34
3 34 31 41
3 34 33 31
3 33 29 31
3 31 28 41
3 31 30 28
3 30 26 28
3 28 40 41
3 28 27 40
3 27 38 40
3 25 39 38
3 25 20 39
3 20 35 39
3 24 36 35
3 24 17 36
3 17 32 36
3 23 33 32
3 23 14 33
3 14 29 33
3 22 30 29
3 22 11 30
3 11 26 30
3 21 27 26
3 21 8 27
3 8 38 27
3 20 24 35
3 20 19 24
3 19 15 24
3 17 23 32
3 17 16 23
3 16 12 23
3 14 22 29
3 14 13 22
3 13 9 22
3 11 21 26
3 11 10 21
3 10 3 21
3 8 25 38
3 8 4 25
3 4 18 25
3 7 19 18
3 7 6 19
3 6 15 19
3 6 16 15
3 6 5 16
3 5 12 16
3 5 13 12
3 5 2 13
3 2 9 13
3 4 7 18
3 4 1 7
3 1 0 7
3 2 10 9
3 2 1 10
3 1 3 10
