ply
format ascii 1.0
comment Created by Blender 2.74 (sub 0) - www.blender.org, source file: 'Main_Ship.blend'
element vertex 286
property float x
property float y
property float z
property float nx
property float ny
property float nz
property uchar red
property uchar green
property uchar blue
element face 234
property list uchar uint vertex_indices
end_header
1.000000 -2.692342 0.469779 0.422529 -0.291360 0.858211 50 50 59
0.000000 -3.456911 0.720910 0.000000 -0.184210 0.982879 48 48 58
0.000000 -4.692342 0.469779 0.000000 -0.441877 0.897061 57 57 66
0.000000 -3.456911 0.720910 0.000000 -0.184210 0.982879 46 46 56
1.000000 -2.692342 0.469779 0.422529 -0.291360 0.858211 51 51 61
0.000000 -1.934168 0.954368 0.000000 -0.086978 0.996185 48 48 56
1.925834 -1.934168 0.339447 0.250618 -0.260659 0.932310 58 58 65
1.000000 -2.692342 0.469779 0.422529 -0.291360 0.858211 68 68 76
1.000000 -3.075839 0.246989 0.642933 -0.384716 0.662252 74 74 82
1.925834 -2.317665 0.116658 0.327097 -0.474685 0.817103 62 62 69
0.000000 -4.692342 0.469779 0.000000 -0.441877 0.897061 71 71 79
0.000000 -5.075839 0.246989 0.000000 -0.502304 0.864650 79 79 87
3.420007 -1.263636 -0.222788 0.426283 -0.009766 -0.904508 96 96 107
3.759831 -1.263636 0.030507 0.597583 -0.006592 -0.801752 111 111 123
3.487954 -1.908497 0.030507 0.474929 -0.332896 -0.814600 112 112 124
1.925834 -1.934168 0.339447 0.250618 -0.260659 0.932310 71 71 78
3.060515 -2.237492 0.000001 0.195410 -0.492630 0.847987 83 83 92
1.000000 -2.692342 -0.469779 0.349132 -0.232978 -0.907620 65 65 74
0.000000 -4.692342 -0.469779 0.000000 -0.422071 -0.906552 74 74 82
0.000000 -2.692342 -0.653554 0.000000 -0.079073 -0.996857 60 60 67
0.000000 -1.934168 -0.704363 0.000000 -0.031800 -0.999481 49 49 56
1.925834 -1.934168 -0.339447 0.205359 -0.234565 -0.950133 65 65 73
1.925834 -2.317665 -0.116658 0.327097 -0.474685 -0.817103 63 63 69
1.000000 -3.075839 -0.246989 0.642933 -0.384716 -0.662252 75 75 83
1.000000 -2.692342 -0.469779 0.349132 -0.232978 -0.907620 70 70 78
0.000000 -5.075839 -0.246989 0.000000 -0.502304 -0.864650 79 79 88
1.000000 -3.075839 0.246989 -0.034791 0.000000 -0.999390 74 74 82
0.000000 -5.075839 0.246989 0.000000 0.000000 -0.999969 79 79 87
0.000000 -3.075839 0.246989 0.000000 0.000000 -1.000000 75 75 83
1.925834 -1.934168 -0.339447 0.205359 -0.234565 -0.950133 72 72 80
3.060515 -1.853995 -0.222788 0.245674 -0.300943 -0.921415 98 98 108
3.060515 -2.237492 0.000001 0.239967 -0.487625 -0.839381 83 83 92
1.000000 -2.317665 -0.246989 -0.071780 -0.050600 0.996124 42 42 47
1.000000 -3.075839 -0.246989 -0.034791 0.000000 0.999390 75 75 83
1.925834 -2.317665 -0.116658 -0.133396 -0.059786 0.989227 63 63 69
0.000000 -3.075839 -0.246989 0.000000 0.000000 1.000000 75 75 83
1.000000 -2.317665 0.246989 -0.071780 -0.050600 -0.996124 42 42 47
1.925834 -2.317665 0.116658 -0.133396 -0.059786 -0.989227 62 62 69
0.000000 -2.317665 0.246989 0.000000 -0.061983 -0.998047 36 36 40
0.773456 -1.692166 0.168971 -0.940214 -0.340526 0.000000 195 211 249
0.773456 -1.692166 -0.168971 -0.940214 -0.340526 0.000000 194 210 248
1.000000 -2.317665 -0.246989 -0.940214 -0.340526 0.000000 42 42 47
0.000000 -2.317665 0.246989 0.000000 -0.061983 -0.998047 77 77 77
0.000000 -1.692166 0.168971 0.000000 -0.123753 -0.992309 198 214 252
0.773456 -1.692166 0.168971 0.000000 -0.123753 -0.992309 195 211 249
1.820963 -1.692166 0.079808 0.000000 -1.000000 0.000000 221 237 254
1.104871 -1.692166 0.168971 0.000000 -0.999969 0.000000 221 237 255
1.104871 -1.692166 -0.168971 0.000000 -1.000000 0.000000 221 237 254
1.820963 -1.692166 0.079808 -0.986206 -0.165349 0.000000 195 211 249
1.820963 -1.692166 -0.079808 -0.986206 -0.165349 0.000000 193 208 246
1.925834 -2.317665 -0.116658 -0.986206 -0.165349 0.000000 63 63 69
1.104871 -1.692166 0.168971 -0.132908 -0.091922 -0.986847 196 212 250
1.820963 -1.692166 0.079808 -0.123173 -0.078921 -0.989227 195 211 249
1.104871 -1.692166 -0.168971 0.986206 -0.165349 0.000000 198 214 252
1.104871 -1.692166 0.168971 0.986206 -0.165349 0.000000 196 212 250
1.000000 -2.317665 0.246989 0.986206 -0.165349 0.000000 42 42 47
1.820963 -1.692166 -0.079808 -0.123173 -0.078921 0.989227 193 208 246
1.104871 -1.692166 -0.168971 -0.132908 -0.091922 0.986847 198 214 252
2.011519 -1.683724 0.079809 0.062349 -0.998047 0.000000 221 237 254
2.011519 -1.683724 -0.079808 0.062349 -0.998047 0.000000 221 237 254
2.889145 -1.628876 0.000001 0.062349 -0.998047 0.000000 221 237 254
2.011519 -1.683724 -0.079808 0.990966 -0.133915 0.000000 198 214 252
2.011519 -1.683724 0.079809 0.990966 -0.133915 0.000000 198 214 252
1.925834 -2.317665 0.116658 0.990966 -0.133915 0.000000 62 62 69
3.060515 -2.237492 0.000001 -0.093081 -0.032899 0.995086 83 83 92
2.889145 -1.628876 0.000001 -0.088961 -0.025025 0.995697 198 214 252
2.011519 -1.683724 -0.079808 -0.095950 -0.038423 0.994629 198 214 252
2.011519 -1.683724 0.079809 -0.095950 -0.038423 -0.994629 198 214 252
2.889145 -1.628876 0.000001 -0.088961 -0.025025 -0.995697 198 214 252
3.060515 -2.237492 0.000001 -0.093051 -0.032899 -0.995086 83 83 92
2.152045 -1.343809 -0.339447 0.134892 -0.058748 -0.989105 79 79 88
0.000000 -1.343809 -0.704363 0.000000 -0.035066 -0.999359 48 48 57
3.420007 -1.263636 0.222788 0.345775 0.082461 0.934660 95 95 105
3.759831 -1.263636 0.030507 0.490585 0.086520 0.867061 111 111 123
2.331225 0.949805 -0.239867 0.573809 0.428175 0.698111 120 120 133
3.060515 -1.853995 0.222788 0.206366 -0.293893 0.933256 78 78 89
3.420007 -1.263636 0.222788 0.345775 0.082461 0.934660 75 75 86
2.152045 -1.343809 0.339447 0.164922 0.062746 0.984283 59 59 69
2.152045 -1.343809 0.339447 0.164922 0.062746 0.984283 59 59 67
0.000000 -1.343809 0.954368 0.000000 0.081149 0.996673 53 53 60
1.334342 0.949805 -0.687154 0.114658 -0.015320 -0.993255 78 78 86
2.120523 0.949805 -0.458825 0.412305 0.089724 -0.906583 95 95 105
1.370377 0.949805 0.003742 0.276772 0.232032 0.932493 56 56 67
2.120523 0.949805 -0.061693 0.284890 0.283181 0.915738 87 87 98
2.152045 -1.343809 -0.339447 0.134892 -0.058748 -0.989105 71 71 82
1.334342 0.949805 -0.687154 0.114658 -0.015320 -0.993255 69 69 77
0.818645 2.840810 -0.131415 0.563494 0.175787 0.807184 252 54 1
0.541919 3.803878 -0.198632 0.541887 0.280984 0.792047 252 55 5
0.000000 3.676015 0.217493 0.000000 0.309793 0.950774 240 67 17
0.000000 5.100278 -0.411109 0.000000 0.403760 0.914853 252 55 3
0.942555 1.940617 -0.071064 0.571734 0.108280 0.813227 252 54 0
0.000000 2.380799 0.532974 0.000000 0.162297 0.986724 240 67 17
0.541919 3.803878 -0.198632 0.944792 0.327555 0.000000 254 54 0
0.818645 2.840810 -0.131415 0.979003 0.203803 0.000000 254 54 0
0.818645 2.840810 -0.301193 0.780328 0.243721 0.575854 148 31 0
0.942555 1.940617 -0.071064 0.868282 0.009980 0.495926 255 54 0
1.005596 1.863964 -0.174912 0.647389 0.074496 0.758476 148 31 0
0.000000 5.100278 -0.411109 0.000000 1.000000 0.000000 255 54 0
0.541919 3.803878 -0.372500 0.803522 0.335612 0.491592 148 31 0
0.000000 0.918071 0.679132 0.000000 0.091311 0.995819 255 54 0
1.370377 0.949805 0.003742 0.000000 1.000000 0.000000 55 55 67
2.120523 0.949805 -0.061693 0.000000 1.000000 0.000000 76 76 88
2.120523 0.949805 -0.458825 0.000000 1.000000 0.000000 66 66 78
0.541919 3.803878 -0.629609 0.337077 0.054720 -0.939879 81 81 89
0.000000 5.100278 -0.817687 0.000000 0.556444 -0.830866 75 75 83
0.000000 5.219727 -0.670952 0.000000 0.682669 -0.730705 81 81 89
0.000000 1.775165 -0.641626 0.000000 0.058412 -0.998291 46 46 56
0.000000 2.840810 -0.579271 0.000000 0.003113 -0.999969 44 44 56
0.818645 2.840810 -0.579271 0.273415 0.071230 -0.959227 60 60 71
0.818645 2.840810 -0.579271 0.273415 0.071230 -0.959227 77 77 85
0.740227 3.803878 -0.480092 0.583117 0.156987 -0.797052 80 80 89
0.000000 0.997086 -0.687154 0.000000 0.032899 -0.999451 50 50 59
0.948205 1.775165 -0.641626 0.101260 0.089053 -0.990844 60 60 71
3.060515 -1.853995 0.222788 0.206366 -0.293893 0.933256 97 97 107
3.487954 -1.908497 0.030507 0.379620 -0.308420 0.872189 112 112 124
2.331225 0.949805 -0.239867 0.673116 0.325968 -0.663778 120 120 133
0.818645 2.840810 -0.301193 0.780328 0.243721 0.575854 62 62 69
1.118216 2.840810 -0.408784 0.327067 0.189795 0.925718 80 80 89
0.740227 3.803878 -0.480092 0.463790 0.241951 0.852260 80 80 89
0.000000 5.100278 -0.524216 0.000000 0.862880 0.505356 58 58 64
0.541919 3.803878 -0.372500 0.803522 0.335612 0.491592 60 60 67
0.000000 0.162352 0.822684 0.000000 0.163274 0.986572 52 52 59
2.331225 0.949805 -0.239867 0.000000 0.999969 0.000000 92 92 105
1.005596 1.863964 -0.174912 0.351909 0.312815 0.882199 49 49 57
0.000000 0.446743 0.728805 0.000000 0.317820 0.948119 44 44 56
1.726032 1.839711 -0.408784 0.026551 -0.982604 0.183691 58 58 69
1.005596 1.863964 -0.174912 0.026551 -0.982604 0.183691 48 48 58
0.948205 1.775165 -0.641626 0.026551 -0.982604 0.183691 59 59 68
1.005596 1.863964 -0.174912 0.647389 0.074496 0.758476 66 66 73
1.118216 2.840810 -0.408784 0.444075 0.129765 -0.886502 80 80 89
1.726032 1.839711 -0.408784 0.270333 0.164129 -0.948637 83 83 93
0.948205 1.775165 -0.641626 0.101260 0.089053 -0.990844 75 75 84
0.000000 3.803878 -0.629609 0.000000 -0.097964 -0.995178 51 51 59
0.541919 3.803878 -0.629609 0.337077 0.054720 -0.939879 60 60 69
0.000000 5.100278 -0.817687 0.000000 0.556444 -0.830866 59 59 70
0.773456 -1.692166 -0.168971 0.000000 -0.123753 0.992309 194 210 248
0.000000 -1.692166 -0.168971 0.000000 -0.123753 0.992309 197 213 251
0.000000 -2.317665 -0.246989 0.000000 -0.061983 0.998047 36 36 40
0.773456 -1.692166 0.168971 0.000000 -1.000000 0.000000 221 237 254
0.000000 -1.692166 0.168971 0.000000 -1.000000 0.000000 221 237 254
0.000000 -1.692166 -0.168971 0.000000 -1.000000 0.000000 221 237 254
0.000000 -5.075839 -0.246989 0.000000 0.000000 0.999969 79 79 88
1.334342 0.949805 -0.687154 0.920255 0.380963 -0.089267 78 78 86
0.948205 1.775165 -0.641626 0.885250 0.424604 -0.189642 75 75 84
1.005596 1.863964 -0.174912 0.906796 0.400220 -0.132267 66 66 73
1.000000 -2.317665 0.246989 -0.940214 -0.340526 0.000000 42 42 47
1.000000 -2.317665 0.246989 -0.071780 -0.050600 -0.996124 90 90 90
1.820963 -1.692166 -0.079808 0.000000 -1.000000 0.000000 221 237 254
1.925834 -2.317665 0.116658 -0.986206 -0.165349 0.000000 62 62 69
1.000000 -2.317665 -0.246989 0.986206 -0.165349 0.000000 42 42 47
1.925834 -2.317665 -0.116658 0.990966 -0.133915 0.000000 63 63 69
1.925834 -2.317665 -0.116658 -0.099063 -0.044374 0.994079 63 63 69
1.925834 -2.317665 0.116658 -0.099063 -0.044374 -0.994079 62 62 69
2.120523 0.949805 -0.061693 0.284890 0.283181 0.915738 100 100 111
1.925834 -1.934168 0.339447 0.250618 -0.260659 0.932310 61 61 69
1.370377 0.949805 0.003742 0.276772 0.232032 0.932493 65 65 73
0.000000 0.918071 0.679132 0.000000 0.099399 0.995025 252 54 4
0.000000 5.100278 -0.524216 0.000000 0.862880 0.505356 148 31 0
0.000000 0.446743 0.728805 0.000000 0.104801 0.994476 148 31 0
1.334342 0.949805 -0.687154 0.000000 1.000000 0.000000 57 57 67
0.000000 5.219727 -0.670952 0.000000 0.775506 0.631306 81 81 89
1.726032 1.839711 -0.408784 0.308969 0.187597 0.932371 83 83 93
0.773456 -1.692166 -0.168971 0.000000 -1.000000 0.000000 221 237 255
1.370377 0.949805 0.003742 0.930906 0.361980 -0.048524 76 76 84
-1.000000 -2.692342 0.469779 -0.422529 -0.291360 0.858211 50 50 59
-1.000000 -2.692342 0.469779 -0.422529 -0.291360 0.858211 51 51 61
-1.925834 -1.934168 0.339447 -0.250618 -0.260659 0.932310 58 58 65
-1.000000 -2.692342 0.469779 -0.422529 -0.291360 0.858211 68 68 76
-1.925834 -2.317665 0.116658 -0.327097 -0.474685 0.817103 62 62 69
-1.000000 -3.075839 0.246989 -0.642933 -0.384716 0.662252 74 74 82
-3.420007 -1.263636 -0.222788 -0.426283 -0.009766 -0.904508 96 96 107
-3.487954 -1.908497 0.030507 -0.474929 -0.332896 -0.814600 112 112 124
-3.759831 -1.263636 0.030507 -0.597583 -0.006592 -0.801752 111 111 123
-1.925834 -1.934168 0.339447 -0.250618 -0.260659 0.932310 71 71 78
-3.060515 -2.237492 0.000001 -0.195410 -0.492630 0.847987 83 83 92
-1.000000 -2.692342 -0.469779 -0.349132 -0.232978 -0.907620 65 65 74
-1.925834 -1.934168 -0.339447 -0.205359 -0.234565 -0.950133 65 65 73
-1.925834 -2.317665 -0.116658 -0.327097 -0.474685 -0.817103 63 63 69
-1.000000 -2.692342 -0.469779 -0.349132 -0.232978 -0.907620 70 70 78
-1.000000 -3.075839 -0.246989 -0.642933 -0.384716 -0.662252 75 75 83
-1.000000 -3.075839 0.246989 0.034791 0.000000 -0.999390 74 74 82
-1.925834 -1.934168 -0.339447 -0.205359 -0.234565 -0.950133 72 72 80
-3.060515 -2.237492 0.000001 -0.239967 -0.487625 -0.839381 83 83 92
-3.060515 -1.853995 -0.222788 -0.245674 -0.300943 -0.921415 98 98 108
-1.000000 -2.317665 -0.246989 0.071780 -0.050600 0.996124 42 42 47
-1.925834 -2.317665 -0.116658 0.133396 -0.059786 0.989227 63 63 69
-1.000000 -3.075839 -0.246989 0.034791 0.000000 0.999390 75 75 83
-1.925834 -2.317665 0.116658 0.133396 -0.059786 -0.989227 62 62 69
-1.000000 -2.317665 0.246989 0.071780 -0.050600 -0.996124 42 42 47
-0.773456 -1.692166 0.168971 0.940214 -0.340526 0.000000 195 211 249
-1.000000 -2.317665 -0.246989 0.940214 -0.340526 0.000000 42 42 47
-0.773456 -1.692166 -0.168971 0.940214 -0.340526 0.000000 194 210 248
-0.773456 -1.692166 0.168971 0.000000 -0.123753 -0.992309 195 211 249
-1.820963 -1.692166 0.079808 0.000000 -1.000000 0.000000 221 237 254
-1.104871 -1.692166 -0.168971 0.000000 -1.000000 0.000000 221 237 254
-1.104871 -1.692166 0.168971 0.000000 -0.999969 0.000000 221 237 255
-1.820963 -1.692166 0.079808 0.986206 -0.165349 0.000000 195 211 249
-1.925834 -2.317665 -0.116658 0.986206 -0.165349 0.000000 63 63 69
-1.820963 -1.692166 -0.079808 0.986206 -0.165349 0.000000 193 208 246
-1.104871 -1.692166 0.168971 0.132908 -0.091922 -0.986847 196 212 250
-1.820963 -1.692166 0.079808 0.123173 -0.078921 -0.989227 195 211 249
-1.104871 -1.692166 -0.168971 -0.986206 -0.165349 0.000000 198 214 252
-1.000000 -2.317665 0.246989 -0.986206 -0.165349 0.000000 42 42 47
-1.104871 -1.692166 0.168971 -0.986206 -0.165349 0.000000 196 212 250
-1.104871 -1.692166 -0.168971 0.132908 -0.091922 0.986847 198 214 252
-1.820963 -1.692166 -0.079808 0.123173 -0.078921 0.989227 193 208 246
-2.011519 -1.683724 0.079809 -0.062349 -0.998047 0.000000 221 237 254
-2.889145 -1.628876 0.000001 -0.062349 -0.998047 0.000000 221 237 254
-2.011519 -1.683724 -0.079808 -0.062349 -0.998047 0.000000 221 237 254
-2.011519 -1.683724 -0.079808 -0.990966 -0.133915 0.000000 198 214 252
-1.925834 -2.317665 0.116658 -0.990966 -0.133915 0.000000 62 62 69
-2.011519 -1.683724 0.079809 -0.990966 -0.133915 0.000000 198 214 252
-3.060515 -2.237492 0.000001 0.093081 -0.032899 0.995086 83 83 92
-2.011519 -1.683724 -0.079808 0.095950 -0.038423 0.994629 198 214 252
-2.889145 -1.628876 0.000001 0.088961 -0.025025 0.995697 198 214 252
-2.011519 -1.683724 0.079809 0.095950 -0.038423 -0.994629 198 214 252
-3.060515 -2.237492 0.000001 0.093051 -0.032899 -0.995086 83 83 92
-2.889145 -1.628876 0.000001 0.088961 -0.025025 -0.995697 198 214 252
-2.152045 -1.343809 -0.339447 -0.134892 -0.058748 -0.989105 79 79 88
-3.420007 -1.263636 0.222788 -0.345775 0.082461 0.934660 95 95 105
-2.331225 0.949805 -0.239867 -0.573809 0.428175 0.698111 120 120 133
-3.759831 -1.263636 0.030507 -0.490585 0.086520 0.867061 111 111 123
-3.060515 -1.853995 0.222788 -0.206366 -0.293893 0.933256 78 78 89
-2.152045 -1.343809 0.339447 -0.164922 0.062746 0.984283 59 59 69
-3.420007 -1.263636 0.222788 -0.345775 0.082461 0.934660 75 75 86
-2.152045 -1.343809 0.339447 -0.164922 0.062746 0.984283 59 59 67
-2.120523 0.949805 -0.458825 -0.412305 0.089724 -0.906583 95 95 105
-1.334342 0.949805 -0.687154 -0.114658 -0.015320 -0.993255 78 78 86
-1.370377 0.949805 0.003742 -0.276772 0.232032 0.932493 56 56 67
-2.120523 0.949805 -0.061693 -0.284890 0.283181 0.915738 87 87 98
-2.152045 -1.343809 -0.339447 -0.134892 -0.058748 -0.989105 71 71 82
-1.334342 0.949805 -0.687154 -0.114658 -0.015320 -0.993255 69 69 77
-0.818645 2.840810 -0.131415 -0.563494 0.175787 0.807184 252 54 1
-0.541919 3.803878 -0.198632 -0.541887 0.280984 0.792047 252 55 5
-0.942555 1.940617 -0.071064 -0.571734 0.108280 0.813227 252 54 0
-0.541919 3.803878 -0.198632 -0.944792 0.327555 0.000000 254 54 0
-0.818645 2.840810 -0.301193 -0.780328 0.243721 0.575854 148 31 0
-0.818645 2.840810 -0.131415 -0.979003 0.203803 0.000000 254 54 0
-0.942555 1.940617 -0.071064 -0.868282 0.009980 0.495926 255 54 0
-1.005596 1.863964 -0.174912 -0.647389 0.074496 0.758476 148 31 0
-0.541919 3.803878 -0.372500 -0.803522 0.335612 0.491592 148 31 0
-1.370377 0.949805 0.003742 0.000000 1.000000 0.000000 55 55 67
-2.120523 0.949805 -0.458825 0.000000 1.000000 0.000000 66 66 78
-2.120523 0.949805 -0.061693 0.000000 1.000000 0.000000 76 76 88
-0.541919 3.803878 -0.629609 -0.337077 0.054720 -0.939879 81 81 89
-0.818645 2.840810 -0.579271 -0.273415 0.071230 -0.959227 60 60 71
-0.818645 2.840810 -0.579271 -0.273415 0.071230 -0.959227 77 77 85
-0.740227 3.803878 -0.480092 -0.583117 0.156987 -0.797052 80 80 89
-0.948205 1.775165 -0.641626 -0.101260 0.089053 -0.990844 60 60 71
-3.487954 -1.908497 0.030507 -0.379620 -0.308420 0.872189 112 112 124
-3.060515 -1.853995 0.222788 -0.206366 -0.293893 0.933256 97 97 107
-2.331225 0.949805 -0.239867 -0.673116 0.325968 -0.663778 120 120 133
-0.818645 2.840810 -0.301193 -0.780328 0.243721 0.575854 62 62 69
-0.740227 3.803878 -0.480092 -0.463790 0.241951 0.852260 80 80 89
-1.118216 2.840810 -0.408784 -0.327067 0.189795 0.925718 80 80 89
-0.541919 3.803878 -0.372500 -0.803522 0.335612 0.491592 60 60 67
-2.331225 0.949805 -0.239867 0.000000 0.999969 0.000000 92 92 105
-1.005596 1.863964 -0.174912 -0.351909 0.312815 0.882199 49 49 57
-1.726032 1.839711 -0.408784 -0.026551 -0.982604 0.183691 58 58 69
-0.948205 1.775165 -0.641626 -0.026551 -0.982604 0.183691 59 59 68
-1.005596 1.863964 -0.174912 -0.026551 -0.982604 0.183691 48 48 58
-1.005596 1.863964 -0.174912 -0.647389 0.074496 0.758476 66 66 73
-1.118216 2.840810 -0.408784 -0.444075 0.129765 -0.886502 80 80 89
-0.948205 1.775165 -0.641626 -0.101260 0.089053 -0.990844 75 75 84
-1.726032 1.839711 -0.408784 -0.270333 0.164129 -0.948637 83 83 93
-0.541919 3.803878 -0.629609 -0.337077 0.054720 -0.939879 60 60 69
-0.773456 -1.692166 -0.168971 0.000000 -0.123753 0.992309 194 210 248
-0.773456 -1.692166 0.168971 0.000000 -1.000000 0.000000 221 237 254
-1.334342 0.949805 -0.687154 -0.920255 0.380963 -0.089267 78 78 86
-1.005596 1.863964 -0.174912 -0.906796 0.400220 -0.132267 66 66 73
-0.948205 1.775165 -0.641626 -0.885250 0.424604 -0.189642 75 75 84
-1.000000 -2.317665 0.246989 0.940214 -0.340526 0.000000 42 42 47
-1.000000 -2.317665 0.246989 0.071780 -0.050600 -0.996124 90 90 90
-1.820963 -1.692166 -0.079808 0.000000 -1.000000 0.000000 221 237 254
-1.925834 -2.317665 0.116658 0.986206 -0.165349 0.000000 62 62 69
-1.000000 -2.317665 -0.246989 -0.986206 -0.165349 0.000000 42 42 47
-1.925834 -2.317665 -0.116658 -0.990966 -0.133915 0.000000 63 63 69
-1.925834 -2.317665 -0.116658 0.099063 -0.044374 0.994079 63 63 69
-1.925834 -2.317665 0.116658 0.099063 -0.044374 -0.994079 62 62 69
-2.120523 0.949805 -0.061693 -0.284890 0.283181 0.915738 100 100 111
-1.925834 -1.934168 0.339447 -0.250618 -0.260659 0.932310 61 61 69
-1.370377 0.949805 0.003742 -0.276772 0.232032 0.932493 65 65 73
-1.334342 0.949805 -0.687154 0.000000 1.000000 0.000000 57 57 67
-1.726032 1.839711 -0.408784 -0.308969 0.187597 0.932371 83 83 93
-0.773456 -1.692166 -0.168971 0.000000 -1.000000 0.000000 221 237 255
-1.370377 0.949805 0.003742 -0.930906 0.361980 -0.048524 76 76 84
3 0 1 2
3 3 4 5
3 4 6 5
3 7 8 9
3 10 11 8
3 12 13 14
3 15 9 16
3 17 18 19
3 19 20 17
3 17 20 21
3 22 23 24
3 23 25 18
3 26 27 28
3 29 30 31
3 32 33 34
3 35 33 32
3 26 36 37
3 38 36 26
3 39 40 41
3 42 43 44
3 45 46 47
3 48 49 50
3 51 52 37
3 53 54 55
3 34 56 57
3 58 59 60
3 61 62 63
3 64 65 66
3 67 68 69
3 30 29 70
3 21 20 71
3 72 73 74
3 75 76 77
3 6 78 79
3 70 80 81
3 79 78 82
3 77 76 83
3 84 71 85
3 12 70 81
3 86 87 88
3 87 89 88
3 90 86 91
3 92 93 94
3 95 96 94
3 97 92 98
3 96 95 99
3 100 101 102
3 103 104 105
3 106 107 108
3 109 103 110
3 111 106 112
3 31 30 14
3 72 113 114
3 12 81 115
3 113 16 114
3 116 117 118
3 119 120 118
3 121 79 82
3 102 101 122
3 82 123 124
3 125 126 127
3 117 116 128
3 129 130 131
3 107 132 133
3 85 71 111
3 133 132 134
3 135 136 137
3 138 139 140
3 141 33 35
3 142 143 144
3 15 7 9
3 7 10 8
3 30 12 14
3 113 15 16
3 29 22 24
3 24 23 18
3 22 29 31
3 137 35 32
3 28 38 26
3 145 39 41
3 146 42 44
3 147 45 47
3 148 48 50
3 36 51 37
3 149 53 55
3 32 34 57
3 150 61 63
3 151 64 66
3 152 67 69
3 12 30 70
3 84 21 71
3 153 72 74
3 154 75 77
3 5 6 79
3 155 77 83
3 91 86 88
3 156 90 91
3 98 92 94
3 93 95 94
3 157 97 98
3 158 96 99
3 159 100 102
3 110 103 105
3 112 106 108
3 129 109 110
3 85 111 112
3 73 72 114
3 13 12 115
3 120 116 118
3 160 119 118
3 121 82 124
3 161 117 128
3 109 129 131
3 108 107 133
3 32 135 137
3 162 138 140
3 163 142 144
3 164 2 1
3 3 5 165
3 165 5 166
3 167 168 169
3 10 169 11
3 170 171 172
3 173 174 168
3 175 19 18
3 19 175 20
3 175 176 20
3 177 178 179
3 179 18 25
3 180 28 27
3 181 182 183
3 184 185 186
3 35 184 186
3 180 187 188
3 38 180 188
3 189 190 191
3 42 192 43
3 193 194 195
3 196 197 198
3 199 187 200
3 201 202 203
3 185 204 205
3 206 207 208
3 209 210 211
3 212 213 214
3 215 216 217
3 183 218 181
3 176 71 20
3 219 220 221
3 222 223 224
3 166 79 225
3 218 226 227
3 79 228 225
3 223 229 224
3 230 231 71
3 170 226 218
3 232 88 233
3 233 88 89
3 234 91 232
3 235 236 237
3 238 236 239
3 97 240 235
3 239 99 238
3 241 242 243
3 244 105 104
3 106 245 107
3 246 247 244
3 111 248 106
3 182 171 183
3 219 249 250
3 170 251 226
3 250 249 174
3 252 253 254
3 119 253 255
3 121 228 79
3 242 256 243
3 228 124 257
3 258 259 260
3 254 261 252
3 262 263 264
3 107 265 132
3 231 111 71
3 265 134 132
3 266 137 136
3 267 140 139
3 141 35 186
3 268 269 270
3 173 168 167
3 167 169 10
3 183 171 170
3 250 174 173
3 181 178 177
3 178 18 179
3 177 182 181
3 137 184 35
3 28 180 38
3 271 190 189
3 272 192 42
3 273 194 193
3 274 197 196
3 188 187 199
3 275 202 201
3 184 204 185
3 276 210 209
3 277 213 212
3 278 216 215
3 170 218 183
3 230 71 176
3 279 220 219
3 280 223 222
3 5 79 166
3 281 229 223
3 91 88 232
3 156 91 234
3 240 236 235
3 237 236 238
3 157 240 97
3 158 99 239
3 282 242 241
3 247 105 244
3 248 245 106
3 262 247 246
3 231 248 111
3 221 249 219
3 172 251 170
3 255 253 252
3 160 253 119
3 121 124 228
3 283 261 254
3 246 263 262
3 245 265 107
3 184 137 266
3 284 140 267
3 285 269 268
